G04 #@! TF.GenerationSoftware,KiCad,Pcbnew,no-vcs-found-2a3a699~58~ubuntu16.04.1*
G04 #@! TF.CreationDate,2017-05-21T17:49:45+03:00*
G04 #@! TF.ProjectId,interferometer,696E7465726665726F6D657465722E6B,rev?*
G04 #@! TF.FileFunction,Legend,Bot*
G04 #@! TF.FilePolarity,Positive*
%FSLAX46Y46*%
G04 Gerber Fmt 4.6, Leading zero omitted, Abs format (unit mm)*
G04 Created by KiCad (PCBNEW no-vcs-found-2a3a699~58~ubuntu16.04.1) date Sun May 21 17:49:45 2017*
%MOMM*%
%LPD*%
G01*
G04 APERTURE LIST*
%ADD10C,0.100000*%
%ADD11C,0.120000*%
%ADD12C,0.150000*%
G04 APERTURE END LIST*
D10*
D11*
X164584000Y-108165000D02*
X163584000Y-108165000D01*
X163584000Y-106465000D02*
X164584000Y-106465000D01*
D12*
X169326000Y-108063000D02*
X170526000Y-108063000D01*
X170526000Y-106313000D02*
X169326000Y-106313000D01*
D11*
X158361000Y-99402000D02*
X157361000Y-99402000D01*
X157361000Y-97702000D02*
X158361000Y-97702000D01*
D12*
X164472857Y-105894142D02*
X164520476Y-105941761D01*
X164663333Y-105989380D01*
X164758571Y-105989380D01*
X164901428Y-105941761D01*
X164996666Y-105846523D01*
X165044285Y-105751285D01*
X165091904Y-105560809D01*
X165091904Y-105417952D01*
X165044285Y-105227476D01*
X164996666Y-105132238D01*
X164901428Y-105037000D01*
X164758571Y-104989380D01*
X164663333Y-104989380D01*
X164520476Y-105037000D01*
X164472857Y-105084619D01*
X163520476Y-105989380D02*
X164091904Y-105989380D01*
X163806190Y-105989380D02*
X163806190Y-104989380D01*
X163901428Y-105132238D01*
X163996666Y-105227476D01*
X164091904Y-105275095D01*
X162663333Y-105322714D02*
X162663333Y-105989380D01*
X162901428Y-104941761D02*
X163139523Y-105656047D01*
X162520476Y-105656047D01*
X170568857Y-109740380D02*
X170902190Y-109264190D01*
X171140285Y-109740380D02*
X171140285Y-108740380D01*
X170759333Y-108740380D01*
X170664095Y-108788000D01*
X170616476Y-108835619D01*
X170568857Y-108930857D01*
X170568857Y-109073714D01*
X170616476Y-109168952D01*
X170664095Y-109216571D01*
X170759333Y-109264190D01*
X171140285Y-109264190D01*
X169616476Y-109740380D02*
X170187904Y-109740380D01*
X169902190Y-109740380D02*
X169902190Y-108740380D01*
X169997428Y-108883238D01*
X170092666Y-108978476D01*
X170187904Y-109026095D01*
X168664095Y-109740380D02*
X169235523Y-109740380D01*
X168949809Y-109740380D02*
X168949809Y-108740380D01*
X169045047Y-108883238D01*
X169140285Y-108978476D01*
X169235523Y-109026095D01*
X158103866Y-100331542D02*
X158151485Y-100379161D01*
X158294342Y-100426780D01*
X158389580Y-100426780D01*
X158532438Y-100379161D01*
X158627676Y-100283923D01*
X158675295Y-100188685D01*
X158722914Y-99998209D01*
X158722914Y-99855352D01*
X158675295Y-99664876D01*
X158627676Y-99569638D01*
X158532438Y-99474400D01*
X158389580Y-99426780D01*
X158294342Y-99426780D01*
X158151485Y-99474400D01*
X158103866Y-99522019D01*
X157722914Y-99522019D02*
X157675295Y-99474400D01*
X157580057Y-99426780D01*
X157341961Y-99426780D01*
X157246723Y-99474400D01*
X157199104Y-99522019D01*
X157151485Y-99617257D01*
X157151485Y-99712495D01*
X157199104Y-99855352D01*
X157770533Y-100426780D01*
X157151485Y-100426780D01*
M02*
