G04 #@! TF.GenerationSoftware,KiCad,Pcbnew,no-vcs-found-2a3a699~58~ubuntu16.04.1*
G04 #@! TF.CreationDate,2017-05-21T17:49:45+03:00*
G04 #@! TF.ProjectId,interferometer,696E7465726665726F6D657465722E6B,rev?*
G04 #@! TF.FileFunction,Legend,Top*
G04 #@! TF.FilePolarity,Positive*
%FSLAX46Y46*%
G04 Gerber Fmt 4.6, Leading zero omitted, Abs format (unit mm)*
G04 Created by KiCad (PCBNEW no-vcs-found-2a3a699~58~ubuntu16.04.1) date Sun May 21 17:49:45 2017*
%MOMM*%
%LPD*%
G01*
G04 APERTURE LIST*
%ADD10C,0.100000*%
%ADD11C,0.120000*%
%ADD12C,0.152400*%
%ADD13C,0.150000*%
%ADD14C,0.203200*%
G04 APERTURE END LIST*
D10*
D11*
X163545600Y-89026000D02*
X161005600Y-89026000D01*
X161005600Y-90806000D02*
X163545600Y-90806000D01*
X161005600Y-90806000D02*
X161005600Y-89026000D01*
X163545600Y-89026000D02*
X163545600Y-90806000D01*
D12*
X166222799Y-88773000D02*
G75*
G03X165613199Y-88773000I-304800J0D01*
G01*
X163670099Y-88773000D02*
X168165899Y-88773000D01*
X168165899Y-85674200D02*
X163670099Y-85674200D01*
D11*
X169299000Y-95592000D02*
X170299000Y-95592000D01*
X170299000Y-93892000D02*
X169299000Y-93892000D01*
X142232000Y-93638000D02*
X141232000Y-93638000D01*
X141232000Y-95338000D02*
X142232000Y-95338000D01*
X146950000Y-94021000D02*
X144500000Y-94021000D01*
X145150000Y-97241000D02*
X146950000Y-97241000D01*
D13*
X141828000Y-95772000D02*
X143028000Y-95772000D01*
X143028000Y-97522000D02*
X141828000Y-97522000D01*
D11*
X158431000Y-114068000D02*
X158431000Y-111268000D01*
X159831000Y-114068000D02*
X159831000Y-111268000D01*
X158431000Y-114068000D02*
X159831000Y-114068000D01*
X145146800Y-113153600D02*
X145146800Y-110353600D01*
X146546800Y-113153600D02*
X146546800Y-110353600D01*
X145146800Y-113153600D02*
X146546800Y-113153600D01*
D13*
X160082200Y-116951200D02*
X160082200Y-118151200D01*
X158332200Y-118151200D02*
X158332200Y-116951200D01*
X146721800Y-116519400D02*
X146721800Y-117719400D01*
X144971800Y-117719400D02*
X144971800Y-116519400D01*
D14*
X168021000Y-115824000D02*
X166751000Y-115824000D01*
X166116000Y-110109000D02*
X166116000Y-108839000D01*
X166751000Y-108204000D02*
X166116000Y-108839000D01*
X168656000Y-108839000D02*
X168021000Y-108204000D01*
X168021000Y-108204000D02*
X166751000Y-108204000D01*
X166116000Y-111379000D02*
X166751000Y-110744000D01*
X166116000Y-112649000D02*
X166116000Y-111379000D01*
X166751000Y-113284000D02*
X166116000Y-112649000D01*
X168656000Y-112649000D02*
X168021000Y-113284000D01*
X168656000Y-111379000D02*
X168656000Y-112649000D01*
X168021000Y-110744000D02*
X168656000Y-111379000D01*
X166751000Y-110744000D02*
X166116000Y-110109000D01*
X168656000Y-110109000D02*
X168021000Y-110744000D01*
X168656000Y-108839000D02*
X168656000Y-110109000D01*
X166116000Y-113919000D02*
X166751000Y-113284000D01*
X166116000Y-115189000D02*
X166116000Y-113919000D01*
X166751000Y-115824000D02*
X166116000Y-115189000D01*
X168656000Y-115189000D02*
X168021000Y-115824000D01*
X168656000Y-113919000D02*
X168656000Y-115189000D01*
X168021000Y-113284000D02*
X168656000Y-113919000D01*
D10*
X150238000Y-96520000D02*
X149838000Y-96120000D01*
X150238000Y-96520000D02*
X149838000Y-96920000D01*
X155038000Y-96520000D02*
X155438000Y-96120000D01*
X155038000Y-96520000D02*
X155438000Y-96920000D01*
X155466427Y-96520000D02*
G75*
G03X155466427Y-96520000I-2828427J0D01*
G01*
D12*
X162114860Y-95173800D02*
X161856100Y-95173800D01*
X165843900Y-95432560D02*
X165843900Y-95173800D01*
X165585140Y-99161600D02*
X165843900Y-99161600D01*
X161856100Y-99161600D02*
X162114860Y-99161600D01*
X161856100Y-95173800D02*
X161856100Y-95432560D01*
X165843900Y-95173800D02*
X165585140Y-95173800D01*
X165843900Y-99161600D02*
X165843900Y-98902840D01*
X161856100Y-98902840D02*
X161856100Y-99161600D01*
D11*
X146312000Y-101815000D02*
X147312000Y-101815000D01*
X147312000Y-100115000D02*
X146312000Y-100115000D01*
X161505000Y-86860000D02*
X161505000Y-85860000D01*
X159805000Y-85860000D02*
X159805000Y-86860000D01*
X158330000Y-94353000D02*
X158330000Y-93353000D01*
X156630000Y-93353000D02*
X156630000Y-94353000D01*
X166378000Y-93941000D02*
X167378000Y-93941000D01*
X167378000Y-92241000D02*
X166378000Y-92241000D01*
X168918000Y-98767000D02*
X169918000Y-98767000D01*
X169918000Y-97067000D02*
X168918000Y-97067000D01*
X161917000Y-91606000D02*
X160917000Y-91606000D01*
X160917000Y-93306000D02*
X161917000Y-93306000D01*
X141232000Y-93179000D02*
X142232000Y-93179000D01*
X142232000Y-91479000D02*
X141232000Y-91479000D01*
X161085000Y-114062000D02*
X161085000Y-116062000D01*
X164035000Y-116062000D02*
X164035000Y-114062000D01*
X149020000Y-114062000D02*
X149020000Y-116062000D01*
X151970000Y-116062000D02*
X151970000Y-114062000D01*
X153338000Y-113935000D02*
X153338000Y-115935000D01*
X156288000Y-115935000D02*
X156288000Y-113935000D01*
D13*
X146212000Y-97804000D02*
X147412000Y-97804000D01*
X147412000Y-99554000D02*
X146212000Y-99554000D01*
X163738000Y-102376000D02*
X164938000Y-102376000D01*
X164938000Y-104126000D02*
X163738000Y-104126000D01*
X146396000Y-93204000D02*
X145196000Y-93204000D01*
X145196000Y-91454000D02*
X146396000Y-91454000D01*
X151243000Y-90967000D02*
X151243000Y-92167000D01*
X149493000Y-92167000D02*
X149493000Y-90967000D01*
X160055000Y-76595000D02*
X161255000Y-76595000D01*
X161255000Y-78345000D02*
X160055000Y-78345000D01*
X154651000Y-78472000D02*
X153451000Y-78472000D01*
X153451000Y-76722000D02*
X154651000Y-76722000D01*
X165643000Y-76595000D02*
X166843000Y-76595000D01*
X166843000Y-78345000D02*
X165643000Y-78345000D01*
D11*
X156548000Y-101401000D02*
X156548000Y-103851000D01*
X159768000Y-103201000D02*
X159768000Y-101401000D01*
D14*
X170815000Y-81915000D02*
X170815000Y-80645000D01*
X176530000Y-80010000D02*
X177800000Y-80010000D01*
X178435000Y-80645000D02*
X177800000Y-80010000D01*
X177800000Y-82550000D02*
X178435000Y-81915000D01*
X178435000Y-81915000D02*
X178435000Y-80645000D01*
X175260000Y-80010000D02*
X175895000Y-80645000D01*
X173990000Y-80010000D02*
X175260000Y-80010000D01*
X173355000Y-80645000D02*
X173990000Y-80010000D01*
X173990000Y-82550000D02*
X173355000Y-81915000D01*
X175260000Y-82550000D02*
X173990000Y-82550000D01*
X175895000Y-81915000D02*
X175260000Y-82550000D01*
X175895000Y-80645000D02*
X176530000Y-80010000D01*
X176530000Y-82550000D02*
X175895000Y-81915000D01*
X177800000Y-82550000D02*
X176530000Y-82550000D01*
X172720000Y-80010000D02*
X173355000Y-80645000D01*
X171450000Y-80010000D02*
X172720000Y-80010000D01*
X170815000Y-80645000D02*
X171450000Y-80010000D01*
X171450000Y-82550000D02*
X170815000Y-81915000D01*
X172720000Y-82550000D02*
X171450000Y-82550000D01*
X173355000Y-81915000D02*
X172720000Y-82550000D01*
X170815000Y-79121000D02*
X170815000Y-77851000D01*
X176530000Y-77216000D02*
X177800000Y-77216000D01*
X178435000Y-77851000D02*
X177800000Y-77216000D01*
X177800000Y-79756000D02*
X178435000Y-79121000D01*
X178435000Y-79121000D02*
X178435000Y-77851000D01*
X175260000Y-77216000D02*
X175895000Y-77851000D01*
X173990000Y-77216000D02*
X175260000Y-77216000D01*
X173355000Y-77851000D02*
X173990000Y-77216000D01*
X173990000Y-79756000D02*
X173355000Y-79121000D01*
X175260000Y-79756000D02*
X173990000Y-79756000D01*
X175895000Y-79121000D02*
X175260000Y-79756000D01*
X175895000Y-77851000D02*
X176530000Y-77216000D01*
X176530000Y-79756000D02*
X175895000Y-79121000D01*
X177800000Y-79756000D02*
X176530000Y-79756000D01*
X172720000Y-77216000D02*
X173355000Y-77851000D01*
X171450000Y-77216000D02*
X172720000Y-77216000D01*
X170815000Y-77851000D02*
X171450000Y-77216000D01*
X171450000Y-79756000D02*
X170815000Y-79121000D01*
X172720000Y-79756000D02*
X171450000Y-79756000D01*
X173355000Y-79121000D02*
X172720000Y-79756000D01*
X148590000Y-108331000D02*
X148590000Y-107061000D01*
X154305000Y-106426000D02*
X155575000Y-106426000D01*
X156210000Y-107061000D02*
X155575000Y-106426000D01*
X155575000Y-108966000D02*
X156210000Y-108331000D01*
X156210000Y-108331000D02*
X156210000Y-107061000D01*
X153035000Y-106426000D02*
X153670000Y-107061000D01*
X151765000Y-106426000D02*
X153035000Y-106426000D01*
X151130000Y-107061000D02*
X151765000Y-106426000D01*
X151765000Y-108966000D02*
X151130000Y-108331000D01*
X153035000Y-108966000D02*
X151765000Y-108966000D01*
X153670000Y-108331000D02*
X153035000Y-108966000D01*
X153670000Y-107061000D02*
X154305000Y-106426000D01*
X154305000Y-108966000D02*
X153670000Y-108331000D01*
X155575000Y-108966000D02*
X154305000Y-108966000D01*
X150495000Y-106426000D02*
X151130000Y-107061000D01*
X149225000Y-106426000D02*
X150495000Y-106426000D01*
X148590000Y-107061000D02*
X149225000Y-106426000D01*
X149225000Y-108966000D02*
X148590000Y-108331000D01*
X150495000Y-108966000D02*
X149225000Y-108966000D01*
X151130000Y-108331000D02*
X150495000Y-108966000D01*
X170815000Y-84709000D02*
X170815000Y-83439000D01*
X176530000Y-82804000D02*
X177800000Y-82804000D01*
X178435000Y-83439000D02*
X177800000Y-82804000D01*
X177800000Y-85344000D02*
X178435000Y-84709000D01*
X178435000Y-84709000D02*
X178435000Y-83439000D01*
X175260000Y-82804000D02*
X175895000Y-83439000D01*
X173990000Y-82804000D02*
X175260000Y-82804000D01*
X173355000Y-83439000D02*
X173990000Y-82804000D01*
X173990000Y-85344000D02*
X173355000Y-84709000D01*
X175260000Y-85344000D02*
X173990000Y-85344000D01*
X175895000Y-84709000D02*
X175260000Y-85344000D01*
X175895000Y-83439000D02*
X176530000Y-82804000D01*
X176530000Y-85344000D02*
X175895000Y-84709000D01*
X177800000Y-85344000D02*
X176530000Y-85344000D01*
X172720000Y-82804000D02*
X173355000Y-83439000D01*
X171450000Y-82804000D02*
X172720000Y-82804000D01*
X170815000Y-83439000D02*
X171450000Y-82804000D01*
X171450000Y-85344000D02*
X170815000Y-84709000D01*
X172720000Y-85344000D02*
X171450000Y-85344000D01*
X173355000Y-84709000D02*
X172720000Y-85344000D01*
D13*
X161942266Y-91148380D02*
X161942266Y-91862666D01*
X161894647Y-92005523D01*
X161799409Y-92100761D01*
X161656552Y-92148380D01*
X161561314Y-92148380D01*
X162942266Y-92148380D02*
X162370838Y-92148380D01*
X162656552Y-92148380D02*
X162656552Y-91148380D01*
X162561314Y-91291238D01*
X162466076Y-91386476D01*
X162370838Y-91434095D01*
X168529095Y-89114380D02*
X168529095Y-89923904D01*
X168576714Y-90019142D01*
X168624333Y-90066761D01*
X168719571Y-90114380D01*
X168910047Y-90114380D01*
X169005285Y-90066761D01*
X169052904Y-90019142D01*
X169100523Y-89923904D01*
X169100523Y-89114380D01*
X169481476Y-89114380D02*
X170100523Y-89114380D01*
X169767190Y-89495333D01*
X169910047Y-89495333D01*
X170005285Y-89542952D01*
X170052904Y-89590571D01*
X170100523Y-89685809D01*
X170100523Y-89923904D01*
X170052904Y-90019142D01*
X170005285Y-90066761D01*
X169910047Y-90114380D01*
X169624333Y-90114380D01*
X169529095Y-90066761D01*
X169481476Y-90019142D01*
X172680333Y-96496142D02*
X172632714Y-96543761D01*
X172489857Y-96591380D01*
X172394619Y-96591380D01*
X172251761Y-96543761D01*
X172156523Y-96448523D01*
X172108904Y-96353285D01*
X172061285Y-96162809D01*
X172061285Y-96019952D01*
X172108904Y-95829476D01*
X172156523Y-95734238D01*
X172251761Y-95639000D01*
X172394619Y-95591380D01*
X172489857Y-95591380D01*
X172632714Y-95639000D01*
X172680333Y-95686619D01*
X173537476Y-95591380D02*
X173347000Y-95591380D01*
X173251761Y-95639000D01*
X173204142Y-95686619D01*
X173108904Y-95829476D01*
X173061285Y-96019952D01*
X173061285Y-96400904D01*
X173108904Y-96496142D01*
X173156523Y-96543761D01*
X173251761Y-96591380D01*
X173442238Y-96591380D01*
X173537476Y-96543761D01*
X173585095Y-96496142D01*
X173632714Y-96400904D01*
X173632714Y-96162809D01*
X173585095Y-96067571D01*
X173537476Y-96019952D01*
X173442238Y-95972333D01*
X173251761Y-95972333D01*
X173156523Y-96019952D01*
X173108904Y-96067571D01*
X173061285Y-96162809D01*
X135882142Y-94972142D02*
X135834523Y-95019761D01*
X135691666Y-95067380D01*
X135596428Y-95067380D01*
X135453571Y-95019761D01*
X135358333Y-94924523D01*
X135310714Y-94829285D01*
X135263095Y-94638809D01*
X135263095Y-94495952D01*
X135310714Y-94305476D01*
X135358333Y-94210238D01*
X135453571Y-94115000D01*
X135596428Y-94067380D01*
X135691666Y-94067380D01*
X135834523Y-94115000D01*
X135882142Y-94162619D01*
X136834523Y-95067380D02*
X136263095Y-95067380D01*
X136548809Y-95067380D02*
X136548809Y-94067380D01*
X136453571Y-94210238D01*
X136358333Y-94305476D01*
X136263095Y-94353095D01*
X137167857Y-94067380D02*
X137786904Y-94067380D01*
X137453571Y-94448333D01*
X137596428Y-94448333D01*
X137691666Y-94495952D01*
X137739285Y-94543571D01*
X137786904Y-94638809D01*
X137786904Y-94876904D01*
X137739285Y-94972142D01*
X137691666Y-95019761D01*
X137596428Y-95067380D01*
X137310714Y-95067380D01*
X137215476Y-95019761D01*
X137167857Y-94972142D01*
X148169380Y-96265904D02*
X148978904Y-96265904D01*
X149074142Y-96218285D01*
X149121761Y-96170666D01*
X149169380Y-96075428D01*
X149169380Y-95884952D01*
X149121761Y-95789714D01*
X149074142Y-95742095D01*
X148978904Y-95694476D01*
X148169380Y-95694476D01*
X148264619Y-95265904D02*
X148217000Y-95218285D01*
X148169380Y-95123047D01*
X148169380Y-94884952D01*
X148217000Y-94789714D01*
X148264619Y-94742095D01*
X148359857Y-94694476D01*
X148455095Y-94694476D01*
X148597952Y-94742095D01*
X149169380Y-95313523D01*
X149169380Y-94694476D01*
X140152380Y-96813666D02*
X139676190Y-97147000D01*
X140152380Y-97385095D02*
X139152380Y-97385095D01*
X139152380Y-97004142D01*
X139200000Y-96908904D01*
X139247619Y-96861285D01*
X139342857Y-96813666D01*
X139485714Y-96813666D01*
X139580952Y-96861285D01*
X139628571Y-96908904D01*
X139676190Y-97004142D01*
X139676190Y-97385095D01*
X140152380Y-95861285D02*
X140152380Y-96432714D01*
X140152380Y-96147000D02*
X139152380Y-96147000D01*
X139295238Y-96242238D01*
X139390476Y-96337476D01*
X139438095Y-96432714D01*
X160361380Y-108449904D02*
X160361380Y-107878476D01*
X161361380Y-108164190D02*
X160361380Y-108164190D01*
X161361380Y-107545142D02*
X160361380Y-107545142D01*
X160361380Y-107164190D01*
X160409000Y-107068952D01*
X160456619Y-107021333D01*
X160551857Y-106973714D01*
X160694714Y-106973714D01*
X160789952Y-107021333D01*
X160837571Y-107068952D01*
X160885190Y-107164190D01*
X160885190Y-107545142D01*
X160361380Y-106640380D02*
X160361380Y-106021333D01*
X160742333Y-106354666D01*
X160742333Y-106211809D01*
X160789952Y-106116571D01*
X160837571Y-106068952D01*
X160932809Y-106021333D01*
X161170904Y-106021333D01*
X161266142Y-106068952D01*
X161313761Y-106116571D01*
X161361380Y-106211809D01*
X161361380Y-106497523D01*
X161313761Y-106592761D01*
X161266142Y-106640380D01*
X168870380Y-118736904D02*
X168870380Y-118165476D01*
X169870380Y-118451190D02*
X168870380Y-118451190D01*
X169870380Y-117832142D02*
X168870380Y-117832142D01*
X168870380Y-117451190D01*
X168918000Y-117355952D01*
X168965619Y-117308333D01*
X169060857Y-117260714D01*
X169203714Y-117260714D01*
X169298952Y-117308333D01*
X169346571Y-117355952D01*
X169394190Y-117451190D01*
X169394190Y-117832142D01*
X169870380Y-116308333D02*
X169870380Y-116879761D01*
X169870380Y-116594047D02*
X168870380Y-116594047D01*
X169013238Y-116689285D01*
X169108476Y-116784523D01*
X169156095Y-116879761D01*
X166584380Y-85462904D02*
X166584380Y-84891476D01*
X167584380Y-85177190D02*
X166584380Y-85177190D01*
X167584380Y-84558142D02*
X166584380Y-84558142D01*
X166584380Y-84177190D01*
X166632000Y-84081952D01*
X166679619Y-84034333D01*
X166774857Y-83986714D01*
X166917714Y-83986714D01*
X167012952Y-84034333D01*
X167060571Y-84081952D01*
X167108190Y-84177190D01*
X167108190Y-84558142D01*
X166679619Y-83605761D02*
X166632000Y-83558142D01*
X166584380Y-83462904D01*
X166584380Y-83224809D01*
X166632000Y-83129571D01*
X166679619Y-83081952D01*
X166774857Y-83034333D01*
X166870095Y-83034333D01*
X167012952Y-83081952D01*
X167584380Y-83653380D01*
X167584380Y-83034333D01*
X143089380Y-108703904D02*
X143089380Y-108132476D01*
X144089380Y-108418190D02*
X143089380Y-108418190D01*
X144089380Y-107799142D02*
X143089380Y-107799142D01*
X143089380Y-107418190D01*
X143137000Y-107322952D01*
X143184619Y-107275333D01*
X143279857Y-107227714D01*
X143422714Y-107227714D01*
X143517952Y-107275333D01*
X143565571Y-107322952D01*
X143613190Y-107418190D01*
X143613190Y-107799142D01*
X143422714Y-106370571D02*
X144089380Y-106370571D01*
X143041761Y-106608666D02*
X143756047Y-106846761D01*
X143756047Y-106227714D01*
X158469104Y-110053380D02*
X158469104Y-109053380D01*
X158707200Y-109053380D01*
X158850057Y-109101000D01*
X158945295Y-109196238D01*
X158992914Y-109291476D01*
X159040533Y-109481952D01*
X159040533Y-109624809D01*
X158992914Y-109815285D01*
X158945295Y-109910523D01*
X158850057Y-110005761D01*
X158707200Y-110053380D01*
X158469104Y-110053380D01*
X159992914Y-110053380D02*
X159421485Y-110053380D01*
X159707200Y-110053380D02*
X159707200Y-109053380D01*
X159611961Y-109196238D01*
X159516723Y-109291476D01*
X159421485Y-109339095D01*
X145134104Y-109062780D02*
X145134104Y-108062780D01*
X145372200Y-108062780D01*
X145515057Y-108110400D01*
X145610295Y-108205638D01*
X145657914Y-108300876D01*
X145705533Y-108491352D01*
X145705533Y-108634209D01*
X145657914Y-108824685D01*
X145610295Y-108919923D01*
X145515057Y-109015161D01*
X145372200Y-109062780D01*
X145134104Y-109062780D01*
X146086485Y-108158019D02*
X146134104Y-108110400D01*
X146229342Y-108062780D01*
X146467438Y-108062780D01*
X146562676Y-108110400D01*
X146610295Y-108158019D01*
X146657914Y-108253257D01*
X146657914Y-108348495D01*
X146610295Y-108491352D01*
X146038866Y-109062780D01*
X146657914Y-109062780D01*
X157008533Y-119654580D02*
X156675200Y-119178390D01*
X156437104Y-119654580D02*
X156437104Y-118654580D01*
X156818057Y-118654580D01*
X156913295Y-118702200D01*
X156960914Y-118749819D01*
X157008533Y-118845057D01*
X157008533Y-118987914D01*
X156960914Y-119083152D01*
X156913295Y-119130771D01*
X156818057Y-119178390D01*
X156437104Y-119178390D01*
X157484723Y-119654580D02*
X157675200Y-119654580D01*
X157770438Y-119606961D01*
X157818057Y-119559342D01*
X157913295Y-119416485D01*
X157960914Y-119226009D01*
X157960914Y-118845057D01*
X157913295Y-118749819D01*
X157865676Y-118702200D01*
X157770438Y-118654580D01*
X157579961Y-118654580D01*
X157484723Y-118702200D01*
X157437104Y-118749819D01*
X157389485Y-118845057D01*
X157389485Y-119083152D01*
X157437104Y-119178390D01*
X157484723Y-119226009D01*
X157579961Y-119273628D01*
X157770438Y-119273628D01*
X157865676Y-119226009D01*
X157913295Y-119178390D01*
X157960914Y-119083152D01*
X147718542Y-119603780D02*
X147385209Y-119127590D01*
X147147114Y-119603780D02*
X147147114Y-118603780D01*
X147528066Y-118603780D01*
X147623304Y-118651400D01*
X147670923Y-118699019D01*
X147718542Y-118794257D01*
X147718542Y-118937114D01*
X147670923Y-119032352D01*
X147623304Y-119079971D01*
X147528066Y-119127590D01*
X147147114Y-119127590D01*
X148670923Y-119603780D02*
X148099495Y-119603780D01*
X148385209Y-119603780D02*
X148385209Y-118603780D01*
X148289971Y-118746638D01*
X148194733Y-118841876D01*
X148099495Y-118889495D01*
X149289971Y-118603780D02*
X149385209Y-118603780D01*
X149480447Y-118651400D01*
X149528066Y-118699019D01*
X149575685Y-118794257D01*
X149623304Y-118984733D01*
X149623304Y-119222828D01*
X149575685Y-119413304D01*
X149528066Y-119508542D01*
X149480447Y-119556161D01*
X149385209Y-119603780D01*
X149289971Y-119603780D01*
X149194733Y-119556161D01*
X149147114Y-119508542D01*
X149099495Y-119413304D01*
X149051876Y-119222828D01*
X149051876Y-118984733D01*
X149099495Y-118794257D01*
X149147114Y-118699019D01*
X149194733Y-118651400D01*
X149289971Y-118603780D01*
X151971333Y-100782380D02*
X151495142Y-100782380D01*
X151495142Y-99782380D01*
X152304666Y-100782380D02*
X152304666Y-99782380D01*
X152542761Y-99782380D01*
X152685619Y-99830000D01*
X152780857Y-99925238D01*
X152828476Y-100020476D01*
X152876095Y-100210952D01*
X152876095Y-100353809D01*
X152828476Y-100544285D01*
X152780857Y-100639523D01*
X152685619Y-100734761D01*
X152542761Y-100782380D01*
X152304666Y-100782380D01*
X153828476Y-100782380D02*
X153257047Y-100782380D01*
X153542761Y-100782380D02*
X153542761Y-99782380D01*
X153447523Y-99925238D01*
X153352285Y-100020476D01*
X153257047Y-100068095D01*
X166243095Y-99401380D02*
X166243095Y-100210904D01*
X166290714Y-100306142D01*
X166338333Y-100353761D01*
X166433571Y-100401380D01*
X166624047Y-100401380D01*
X166719285Y-100353761D01*
X166766904Y-100306142D01*
X166814523Y-100210904D01*
X166814523Y-99401380D01*
X167814523Y-100401380D02*
X167243095Y-100401380D01*
X167528809Y-100401380D02*
X167528809Y-99401380D01*
X167433571Y-99544238D01*
X167338333Y-99639476D01*
X167243095Y-99687095D01*
X142232142Y-101449142D02*
X142184523Y-101496761D01*
X142041666Y-101544380D01*
X141946428Y-101544380D01*
X141803571Y-101496761D01*
X141708333Y-101401523D01*
X141660714Y-101306285D01*
X141613095Y-101115809D01*
X141613095Y-100972952D01*
X141660714Y-100782476D01*
X141708333Y-100687238D01*
X141803571Y-100592000D01*
X141946428Y-100544380D01*
X142041666Y-100544380D01*
X142184523Y-100592000D01*
X142232142Y-100639619D01*
X143184523Y-101544380D02*
X142613095Y-101544380D01*
X142898809Y-101544380D02*
X142898809Y-100544380D01*
X142803571Y-100687238D01*
X142708333Y-100782476D01*
X142613095Y-100830095D01*
X143565476Y-100639619D02*
X143613095Y-100592000D01*
X143708333Y-100544380D01*
X143946428Y-100544380D01*
X144041666Y-100592000D01*
X144089285Y-100639619D01*
X144136904Y-100734857D01*
X144136904Y-100830095D01*
X144089285Y-100972952D01*
X143517857Y-101544380D01*
X144136904Y-101544380D01*
X158912142Y-87002857D02*
X158959761Y-87050476D01*
X159007380Y-87193333D01*
X159007380Y-87288571D01*
X158959761Y-87431428D01*
X158864523Y-87526666D01*
X158769285Y-87574285D01*
X158578809Y-87621904D01*
X158435952Y-87621904D01*
X158245476Y-87574285D01*
X158150238Y-87526666D01*
X158055000Y-87431428D01*
X158007380Y-87288571D01*
X158007380Y-87193333D01*
X158055000Y-87050476D01*
X158102619Y-87002857D01*
X159007380Y-86050476D02*
X159007380Y-86621904D01*
X159007380Y-86336190D02*
X158007380Y-86336190D01*
X158150238Y-86431428D01*
X158245476Y-86526666D01*
X158293095Y-86621904D01*
X159007380Y-85098095D02*
X159007380Y-85669523D01*
X159007380Y-85383809D02*
X158007380Y-85383809D01*
X158150238Y-85479047D01*
X158245476Y-85574285D01*
X158293095Y-85669523D01*
X157440333Y-97766142D02*
X157392714Y-97813761D01*
X157249857Y-97861380D01*
X157154619Y-97861380D01*
X157011761Y-97813761D01*
X156916523Y-97718523D01*
X156868904Y-97623285D01*
X156821285Y-97432809D01*
X156821285Y-97289952D01*
X156868904Y-97099476D01*
X156916523Y-97004238D01*
X157011761Y-96909000D01*
X157154619Y-96861380D01*
X157249857Y-96861380D01*
X157392714Y-96909000D01*
X157440333Y-96956619D01*
X158345095Y-96861380D02*
X157868904Y-96861380D01*
X157821285Y-97337571D01*
X157868904Y-97289952D01*
X157964142Y-97242333D01*
X158202238Y-97242333D01*
X158297476Y-97289952D01*
X158345095Y-97337571D01*
X158392714Y-97432809D01*
X158392714Y-97670904D01*
X158345095Y-97766142D01*
X158297476Y-97813761D01*
X158202238Y-97861380D01*
X157964142Y-97861380D01*
X157868904Y-97813761D01*
X157821285Y-97766142D01*
X166711333Y-91670142D02*
X166663714Y-91717761D01*
X166520857Y-91765380D01*
X166425619Y-91765380D01*
X166282761Y-91717761D01*
X166187523Y-91622523D01*
X166139904Y-91527285D01*
X166092285Y-91336809D01*
X166092285Y-91193952D01*
X166139904Y-91003476D01*
X166187523Y-90908238D01*
X166282761Y-90813000D01*
X166425619Y-90765380D01*
X166520857Y-90765380D01*
X166663714Y-90813000D01*
X166711333Y-90860619D01*
X167568476Y-91098714D02*
X167568476Y-91765380D01*
X167330380Y-90717761D02*
X167092285Y-91432047D01*
X167711333Y-91432047D01*
X172553333Y-99671142D02*
X172505714Y-99718761D01*
X172362857Y-99766380D01*
X172267619Y-99766380D01*
X172124761Y-99718761D01*
X172029523Y-99623523D01*
X171981904Y-99528285D01*
X171934285Y-99337809D01*
X171934285Y-99194952D01*
X171981904Y-99004476D01*
X172029523Y-98909238D01*
X172124761Y-98814000D01*
X172267619Y-98766380D01*
X172362857Y-98766380D01*
X172505714Y-98814000D01*
X172553333Y-98861619D01*
X172886666Y-98766380D02*
X173505714Y-98766380D01*
X173172380Y-99147333D01*
X173315238Y-99147333D01*
X173410476Y-99194952D01*
X173458095Y-99242571D01*
X173505714Y-99337809D01*
X173505714Y-99575904D01*
X173458095Y-99671142D01*
X173410476Y-99718761D01*
X173315238Y-99766380D01*
X173029523Y-99766380D01*
X172934285Y-99718761D01*
X172886666Y-99671142D01*
X161631333Y-94286342D02*
X161583714Y-94333961D01*
X161440857Y-94381580D01*
X161345619Y-94381580D01*
X161202761Y-94333961D01*
X161107523Y-94238723D01*
X161059904Y-94143485D01*
X161012285Y-93953009D01*
X161012285Y-93810152D01*
X161059904Y-93619676D01*
X161107523Y-93524438D01*
X161202761Y-93429200D01*
X161345619Y-93381580D01*
X161440857Y-93381580D01*
X161583714Y-93429200D01*
X161631333Y-93476819D01*
X162583714Y-94381580D02*
X162012285Y-94381580D01*
X162298000Y-94381580D02*
X162298000Y-93381580D01*
X162202761Y-93524438D01*
X162107523Y-93619676D01*
X162012285Y-93667295D01*
X141565333Y-91035142D02*
X141517714Y-91082761D01*
X141374857Y-91130380D01*
X141279619Y-91130380D01*
X141136761Y-91082761D01*
X141041523Y-90987523D01*
X140993904Y-90892285D01*
X140946285Y-90701809D01*
X140946285Y-90558952D01*
X140993904Y-90368476D01*
X141041523Y-90273238D01*
X141136761Y-90178000D01*
X141279619Y-90130380D01*
X141374857Y-90130380D01*
X141517714Y-90178000D01*
X141565333Y-90225619D01*
X141898666Y-90130380D02*
X142565333Y-90130380D01*
X142136761Y-91130380D01*
X162520333Y-111355142D02*
X162472714Y-111402761D01*
X162329857Y-111450380D01*
X162234619Y-111450380D01*
X162091761Y-111402761D01*
X161996523Y-111307523D01*
X161948904Y-111212285D01*
X161901285Y-111021809D01*
X161901285Y-110878952D01*
X161948904Y-110688476D01*
X161996523Y-110593238D01*
X162091761Y-110498000D01*
X162234619Y-110450380D01*
X162329857Y-110450380D01*
X162472714Y-110498000D01*
X162520333Y-110545619D01*
X163091761Y-110878952D02*
X162996523Y-110831333D01*
X162948904Y-110783714D01*
X162901285Y-110688476D01*
X162901285Y-110640857D01*
X162948904Y-110545619D01*
X162996523Y-110498000D01*
X163091761Y-110450380D01*
X163282238Y-110450380D01*
X163377476Y-110498000D01*
X163425095Y-110545619D01*
X163472714Y-110640857D01*
X163472714Y-110688476D01*
X163425095Y-110783714D01*
X163377476Y-110831333D01*
X163282238Y-110878952D01*
X163091761Y-110878952D01*
X162996523Y-110926571D01*
X162948904Y-110974190D01*
X162901285Y-111069428D01*
X162901285Y-111259904D01*
X162948904Y-111355142D01*
X162996523Y-111402761D01*
X163091761Y-111450380D01*
X163282238Y-111450380D01*
X163377476Y-111402761D01*
X163425095Y-111355142D01*
X163472714Y-111259904D01*
X163472714Y-111069428D01*
X163425095Y-110974190D01*
X163377476Y-110926571D01*
X163282238Y-110878952D01*
X150353733Y-111228142D02*
X150306114Y-111275761D01*
X150163257Y-111323380D01*
X150068019Y-111323380D01*
X149925161Y-111275761D01*
X149829923Y-111180523D01*
X149782304Y-111085285D01*
X149734685Y-110894809D01*
X149734685Y-110751952D01*
X149782304Y-110561476D01*
X149829923Y-110466238D01*
X149925161Y-110371000D01*
X150068019Y-110323380D01*
X150163257Y-110323380D01*
X150306114Y-110371000D01*
X150353733Y-110418619D01*
X150829923Y-111323380D02*
X151020400Y-111323380D01*
X151115638Y-111275761D01*
X151163257Y-111228142D01*
X151258495Y-111085285D01*
X151306114Y-110894809D01*
X151306114Y-110513857D01*
X151258495Y-110418619D01*
X151210876Y-110371000D01*
X151115638Y-110323380D01*
X150925161Y-110323380D01*
X150829923Y-110371000D01*
X150782304Y-110418619D01*
X150734685Y-110513857D01*
X150734685Y-110751952D01*
X150782304Y-110847190D01*
X150829923Y-110894809D01*
X150925161Y-110942428D01*
X151115638Y-110942428D01*
X151210876Y-110894809D01*
X151258495Y-110847190D01*
X151306114Y-110751952D01*
X154119342Y-111228142D02*
X154071723Y-111275761D01*
X153928866Y-111323380D01*
X153833628Y-111323380D01*
X153690771Y-111275761D01*
X153595533Y-111180523D01*
X153547914Y-111085285D01*
X153500295Y-110894809D01*
X153500295Y-110751952D01*
X153547914Y-110561476D01*
X153595533Y-110466238D01*
X153690771Y-110371000D01*
X153833628Y-110323380D01*
X153928866Y-110323380D01*
X154071723Y-110371000D01*
X154119342Y-110418619D01*
X155071723Y-111323380D02*
X154500295Y-111323380D01*
X154786009Y-111323380D02*
X154786009Y-110323380D01*
X154690771Y-110466238D01*
X154595533Y-110561476D01*
X154500295Y-110609095D01*
X155690771Y-110323380D02*
X155786009Y-110323380D01*
X155881247Y-110371000D01*
X155928866Y-110418619D01*
X155976485Y-110513857D01*
X156024104Y-110704333D01*
X156024104Y-110942428D01*
X155976485Y-111132904D01*
X155928866Y-111228142D01*
X155881247Y-111275761D01*
X155786009Y-111323380D01*
X155690771Y-111323380D01*
X155595533Y-111275761D01*
X155547914Y-111228142D01*
X155500295Y-111132904D01*
X155452676Y-110942428D01*
X155452676Y-110704333D01*
X155500295Y-110513857D01*
X155547914Y-110418619D01*
X155595533Y-110371000D01*
X155690771Y-110323380D01*
X143851333Y-99385380D02*
X143518000Y-98909190D01*
X143279904Y-99385380D02*
X143279904Y-98385380D01*
X143660857Y-98385380D01*
X143756095Y-98433000D01*
X143803714Y-98480619D01*
X143851333Y-98575857D01*
X143851333Y-98718714D01*
X143803714Y-98813952D01*
X143756095Y-98861571D01*
X143660857Y-98909190D01*
X143279904Y-98909190D01*
X144708476Y-98718714D02*
X144708476Y-99385380D01*
X144470380Y-98337761D02*
X144232285Y-99052047D01*
X144851333Y-99052047D01*
X167203380Y-103417666D02*
X166727190Y-103751000D01*
X167203380Y-103989095D02*
X166203380Y-103989095D01*
X166203380Y-103608142D01*
X166251000Y-103512904D01*
X166298619Y-103465285D01*
X166393857Y-103417666D01*
X166536714Y-103417666D01*
X166631952Y-103465285D01*
X166679571Y-103512904D01*
X166727190Y-103608142D01*
X166727190Y-103989095D01*
X166203380Y-103084333D02*
X166203380Y-102465285D01*
X166584333Y-102798619D01*
X166584333Y-102655761D01*
X166631952Y-102560523D01*
X166679571Y-102512904D01*
X166774809Y-102465285D01*
X167012904Y-102465285D01*
X167108142Y-102512904D01*
X167155761Y-102560523D01*
X167203380Y-102655761D01*
X167203380Y-102941476D01*
X167155761Y-103036714D01*
X167108142Y-103084333D01*
X145629333Y-91003380D02*
X145296000Y-90527190D01*
X145057904Y-91003380D02*
X145057904Y-90003380D01*
X145438857Y-90003380D01*
X145534095Y-90051000D01*
X145581714Y-90098619D01*
X145629333Y-90193857D01*
X145629333Y-90336714D01*
X145581714Y-90431952D01*
X145534095Y-90479571D01*
X145438857Y-90527190D01*
X145057904Y-90527190D01*
X146010285Y-90098619D02*
X146057904Y-90051000D01*
X146153142Y-90003380D01*
X146391238Y-90003380D01*
X146486476Y-90051000D01*
X146534095Y-90098619D01*
X146581714Y-90193857D01*
X146581714Y-90289095D01*
X146534095Y-90431952D01*
X145962666Y-91003380D01*
X146581714Y-91003380D01*
X152920380Y-91733666D02*
X152444190Y-92067000D01*
X152920380Y-92305095D02*
X151920380Y-92305095D01*
X151920380Y-91924142D01*
X151968000Y-91828904D01*
X152015619Y-91781285D01*
X152110857Y-91733666D01*
X152253714Y-91733666D01*
X152348952Y-91781285D01*
X152396571Y-91828904D01*
X152444190Y-91924142D01*
X152444190Y-92305095D01*
X152348952Y-91162238D02*
X152301333Y-91257476D01*
X152253714Y-91305095D01*
X152158476Y-91352714D01*
X152110857Y-91352714D01*
X152015619Y-91305095D01*
X151968000Y-91257476D01*
X151920380Y-91162238D01*
X151920380Y-90971761D01*
X151968000Y-90876523D01*
X152015619Y-90828904D01*
X152110857Y-90781285D01*
X152158476Y-90781285D01*
X152253714Y-90828904D01*
X152301333Y-90876523D01*
X152348952Y-90971761D01*
X152348952Y-91162238D01*
X152396571Y-91257476D01*
X152444190Y-91305095D01*
X152539428Y-91352714D01*
X152729904Y-91352714D01*
X152825142Y-91305095D01*
X152872761Y-91257476D01*
X152920380Y-91162238D01*
X152920380Y-90971761D01*
X152872761Y-90876523D01*
X152825142Y-90828904D01*
X152729904Y-90781285D01*
X152539428Y-90781285D01*
X152444190Y-90828904D01*
X152396571Y-90876523D01*
X152348952Y-90971761D01*
X160488333Y-79700380D02*
X160155000Y-79224190D01*
X159916904Y-79700380D02*
X159916904Y-78700380D01*
X160297857Y-78700380D01*
X160393095Y-78748000D01*
X160440714Y-78795619D01*
X160488333Y-78890857D01*
X160488333Y-79033714D01*
X160440714Y-79128952D01*
X160393095Y-79176571D01*
X160297857Y-79224190D01*
X159916904Y-79224190D01*
X160821666Y-78700380D02*
X161488333Y-78700380D01*
X161059761Y-79700380D01*
X153884333Y-79827380D02*
X153551000Y-79351190D01*
X153312904Y-79827380D02*
X153312904Y-78827380D01*
X153693857Y-78827380D01*
X153789095Y-78875000D01*
X153836714Y-78922619D01*
X153884333Y-79017857D01*
X153884333Y-79160714D01*
X153836714Y-79255952D01*
X153789095Y-79303571D01*
X153693857Y-79351190D01*
X153312904Y-79351190D01*
X154741476Y-78827380D02*
X154551000Y-78827380D01*
X154455761Y-78875000D01*
X154408142Y-78922619D01*
X154312904Y-79065476D01*
X154265285Y-79255952D01*
X154265285Y-79636904D01*
X154312904Y-79732142D01*
X154360523Y-79779761D01*
X154455761Y-79827380D01*
X154646238Y-79827380D01*
X154741476Y-79779761D01*
X154789095Y-79732142D01*
X154836714Y-79636904D01*
X154836714Y-79398809D01*
X154789095Y-79303571D01*
X154741476Y-79255952D01*
X154646238Y-79208333D01*
X154455761Y-79208333D01*
X154360523Y-79255952D01*
X154312904Y-79303571D01*
X154265285Y-79398809D01*
X166076333Y-79700380D02*
X165743000Y-79224190D01*
X165504904Y-79700380D02*
X165504904Y-78700380D01*
X165885857Y-78700380D01*
X165981095Y-78748000D01*
X166028714Y-78795619D01*
X166076333Y-78890857D01*
X166076333Y-79033714D01*
X166028714Y-79128952D01*
X165981095Y-79176571D01*
X165885857Y-79224190D01*
X165504904Y-79224190D01*
X166981095Y-78700380D02*
X166504904Y-78700380D01*
X166457285Y-79176571D01*
X166504904Y-79128952D01*
X166600142Y-79081333D01*
X166838238Y-79081333D01*
X166933476Y-79128952D01*
X166981095Y-79176571D01*
X167028714Y-79271809D01*
X167028714Y-79509904D01*
X166981095Y-79605142D01*
X166933476Y-79652761D01*
X166838238Y-79700380D01*
X166600142Y-79700380D01*
X166504904Y-79652761D01*
X166457285Y-79605142D01*
X155805619Y-102396238D02*
X155758000Y-102491476D01*
X155662761Y-102586714D01*
X155519904Y-102729571D01*
X155472285Y-102824809D01*
X155472285Y-102920047D01*
X155710380Y-102872428D02*
X155662761Y-102967666D01*
X155567523Y-103062904D01*
X155377047Y-103110523D01*
X155043714Y-103110523D01*
X154853238Y-103062904D01*
X154758000Y-102967666D01*
X154710380Y-102872428D01*
X154710380Y-102681952D01*
X154758000Y-102586714D01*
X154853238Y-102491476D01*
X155043714Y-102443857D01*
X155377047Y-102443857D01*
X155567523Y-102491476D01*
X155662761Y-102586714D01*
X155710380Y-102681952D01*
X155710380Y-102872428D01*
X155710380Y-101491476D02*
X155710380Y-102062904D01*
X155710380Y-101777190D02*
X154710380Y-101777190D01*
X154853238Y-101872428D01*
X154948476Y-101967666D01*
X154996095Y-102062904D01*
M02*
