G04 #@! TF.GenerationSoftware,KiCad,Pcbnew,no-vcs-found-2a3a699~58~ubuntu16.04.1*
G04 #@! TF.CreationDate,2017-05-21T17:49:45+03:00*
G04 #@! TF.ProjectId,interferometer,696E7465726665726F6D657465722E6B,rev?*
G04 #@! TF.FileFunction,Copper,L3,Inr,Signal*
G04 #@! TF.FilePolarity,Positive*
%FSLAX46Y46*%
G04 Gerber Fmt 4.6, Leading zero omitted, Abs format (unit mm)*
G04 Created by KiCad (PCBNEW no-vcs-found-2a3a699~58~ubuntu16.04.1) date Sun May 21 17:49:45 2017*
%MOMM*%
%LPD*%
G01*
G04 APERTURE LIST*
%ADD10C,0.100000*%
%ADD11O,1.524000X1.524000*%
%ADD12C,0.900000*%
%ADD13C,1.524000*%
%ADD14O,1.524000X2.540000*%
%ADD15C,0.800000*%
%ADD16C,0.254000*%
G04 APERTURE END LIST*
D10*
D11*
X167386000Y-114554000D03*
X167386000Y-112014000D03*
X167386000Y-109474000D03*
D12*
X153638000Y-96520000D03*
X151638000Y-96520000D03*
X152638000Y-95520000D03*
D11*
X172085000Y-81280000D03*
X174625000Y-81280000D03*
X177165000Y-81280000D03*
X172085000Y-78486000D03*
X174625000Y-78486000D03*
X177165000Y-78486000D03*
X149860000Y-107696000D03*
X152400000Y-107696000D03*
X154940000Y-107696000D03*
X172085000Y-84074000D03*
X174625000Y-84074000D03*
X177165000Y-84074000D03*
D13*
X182206173Y-99230349D03*
X179666173Y-99230349D03*
X182206173Y-96690349D03*
X179666173Y-96690349D03*
X182206173Y-94150349D03*
X179666173Y-94150349D03*
D14*
X144106173Y-122090349D03*
X146646173Y-122090349D03*
X134962173Y-73830349D03*
X137502173Y-73830349D03*
X154266173Y-122090349D03*
X140042173Y-73830349D03*
X142582173Y-73830349D03*
X145122173Y-73830349D03*
X147662173Y-73830349D03*
X150202173Y-73830349D03*
X152742173Y-73830349D03*
X155282173Y-73830349D03*
X157822173Y-73830349D03*
X161886173Y-73830349D03*
X164426173Y-73830349D03*
X166966173Y-73830349D03*
X169506173Y-73830349D03*
X172046173Y-73830349D03*
X174586173Y-73830349D03*
X177126173Y-73830349D03*
X179666173Y-73830349D03*
X149186173Y-122090349D03*
X151726173Y-122090349D03*
X156806173Y-122090349D03*
X159346173Y-122090349D03*
X161886173Y-122090349D03*
X172046173Y-122090349D03*
X169506173Y-122090349D03*
X166966173Y-122090349D03*
X174586173Y-122090349D03*
X177126173Y-122090349D03*
X179666173Y-122090349D03*
D15*
X160782000Y-89357200D03*
X173863000Y-94742000D03*
X172974000Y-107188000D03*
X157607000Y-99822000D03*
X156591000Y-96901000D03*
X161417000Y-91186000D03*
X156794200Y-118897400D03*
X143510000Y-118440200D03*
X148082000Y-117094000D03*
X157353000Y-116967000D03*
X162560000Y-118999000D03*
X162179000Y-85090000D03*
X138557000Y-94488000D03*
X138684000Y-92329000D03*
X155067000Y-91186000D03*
X172212000Y-93091000D03*
X172212000Y-97917000D03*
X147243800Y-110236000D03*
X144780000Y-108712000D03*
X148717000Y-90170000D03*
X164973000Y-78740000D03*
X159258004Y-78740000D03*
X155447998Y-78867000D03*
X147955000Y-92329000D03*
X150495000Y-109855000D03*
X171831000Y-76200000D03*
X169545000Y-78613000D03*
X166497000Y-81153000D03*
X158242000Y-96774000D03*
X163322000Y-82296000D03*
X171577000Y-100457000D03*
X154813000Y-92964000D03*
X152781000Y-80264000D03*
X152781000Y-85979000D03*
X160781942Y-94664927D03*
X160655000Y-82423000D03*
X159758239Y-90431761D03*
X159892980Y-95123000D03*
X170727659Y-87590341D03*
X156083000Y-93599000D03*
X159111000Y-98552000D03*
X164338000Y-91313000D03*
X159512000Y-87630000D03*
X158115000Y-110109004D03*
X154813000Y-109855000D03*
X160274000Y-108839000D03*
X161417000Y-101436010D03*
X161417000Y-99695000D03*
X161671000Y-104140000D03*
X175895000Y-86233000D03*
X176149000Y-101346000D03*
X172338994Y-104013000D03*
X165354000Y-100838000D03*
X174625000Y-76708000D03*
X173990000Y-104902000D03*
X164406160Y-101414160D03*
X163982400Y-89916000D03*
X163850000Y-97167700D03*
X166751000Y-94615010D03*
X163374990Y-93842140D03*
X165277800Y-105003600D03*
X167005000Y-90170000D03*
X141478000Y-98679000D03*
X162560000Y-110490000D03*
X166982288Y-96879498D03*
X161036000Y-102616000D03*
X145415000Y-102870000D03*
D16*
G36*
X129523128Y-72569760D02*
X129184060Y-73386327D01*
X129183288Y-74270492D01*
X129520931Y-75087649D01*
X130145584Y-75713394D01*
X130962151Y-76052462D01*
X131846316Y-76053234D01*
X132663473Y-75715591D01*
X133289218Y-75090938D01*
X133571991Y-74409945D01*
X133671513Y-74910279D01*
X133974345Y-75363498D01*
X134427564Y-75666330D01*
X134962173Y-75772670D01*
X135496782Y-75666330D01*
X135950001Y-75363498D01*
X136232173Y-74941199D01*
X136514345Y-75363498D01*
X136967564Y-75666330D01*
X137502173Y-75772670D01*
X138036782Y-75666330D01*
X138490001Y-75363498D01*
X138772173Y-74941199D01*
X139054345Y-75363498D01*
X139507564Y-75666330D01*
X140042173Y-75772670D01*
X140576782Y-75666330D01*
X141030001Y-75363498D01*
X141312173Y-74941199D01*
X141594345Y-75363498D01*
X142047564Y-75666330D01*
X142582173Y-75772670D01*
X143116782Y-75666330D01*
X143570001Y-75363498D01*
X143852173Y-74941199D01*
X144134345Y-75363498D01*
X144587564Y-75666330D01*
X145122173Y-75772670D01*
X145656782Y-75666330D01*
X146110001Y-75363498D01*
X146392173Y-74941199D01*
X146674345Y-75363498D01*
X147127564Y-75666330D01*
X147662173Y-75772670D01*
X148196782Y-75666330D01*
X148650001Y-75363498D01*
X148932173Y-74941199D01*
X149214345Y-75363498D01*
X149667564Y-75666330D01*
X150202173Y-75772670D01*
X150736782Y-75666330D01*
X151190001Y-75363498D01*
X151472173Y-74941199D01*
X151754345Y-75363498D01*
X152207564Y-75666330D01*
X152742173Y-75772670D01*
X153276782Y-75666330D01*
X153730001Y-75363498D01*
X154012173Y-74941199D01*
X154294345Y-75363498D01*
X154747564Y-75666330D01*
X155282173Y-75772670D01*
X155816782Y-75666330D01*
X156270001Y-75363498D01*
X156552173Y-74941199D01*
X156834345Y-75363498D01*
X157287564Y-75666330D01*
X157822173Y-75772670D01*
X158356782Y-75666330D01*
X158810001Y-75363498D01*
X159112833Y-74910279D01*
X159219173Y-74375670D01*
X159219173Y-73285028D01*
X159112833Y-72750419D01*
X158810001Y-72297200D01*
X158356782Y-71994368D01*
X158168920Y-71957000D01*
X161539426Y-71957000D01*
X161351564Y-71994368D01*
X160898345Y-72297200D01*
X160595513Y-72750419D01*
X160489173Y-73285028D01*
X160489173Y-74375670D01*
X160595513Y-74910279D01*
X160898345Y-75363498D01*
X161351564Y-75666330D01*
X161886173Y-75772670D01*
X162420782Y-75666330D01*
X162874001Y-75363498D01*
X163156173Y-74941199D01*
X163438345Y-75363498D01*
X163891564Y-75666330D01*
X164426173Y-75772670D01*
X164960782Y-75666330D01*
X165414001Y-75363498D01*
X165696173Y-74941199D01*
X165978345Y-75363498D01*
X166243000Y-75540335D01*
X166243000Y-79248000D01*
X153033101Y-79248000D01*
X152987777Y-79229180D01*
X152576029Y-79228821D01*
X152529612Y-79248000D01*
X151765000Y-79248000D01*
X151716399Y-79257667D01*
X151675197Y-79285197D01*
X151647667Y-79326399D01*
X151638000Y-79375000D01*
X151638000Y-91313000D01*
X149225000Y-91313000D01*
X149176399Y-91322667D01*
X149135197Y-91350197D01*
X149107667Y-91391399D01*
X149098000Y-91440000D01*
X149098000Y-92710000D01*
X144145000Y-92710000D01*
X144096399Y-92719667D01*
X144055197Y-92747197D01*
X144027667Y-92788399D01*
X144018000Y-92837000D01*
X144018000Y-97790000D01*
X144027667Y-97838601D01*
X144055197Y-97879803D01*
X144096399Y-97907333D01*
X144145000Y-97917000D01*
X149098000Y-97917000D01*
X149098000Y-99695000D01*
X149107667Y-99743601D01*
X149135197Y-99784803D01*
X149176399Y-99812333D01*
X149225000Y-99822000D01*
X152908000Y-99822000D01*
X152908000Y-106372678D01*
X152400000Y-106271631D01*
X151865391Y-106377971D01*
X151412172Y-106680803D01*
X151109713Y-107133464D01*
X150979858Y-106860801D01*
X150574997Y-106495826D01*
X150203070Y-106341780D01*
X149987000Y-106464280D01*
X149987000Y-107569000D01*
X150007000Y-107569000D01*
X150007000Y-107823000D01*
X149987000Y-107823000D01*
X149987000Y-108927720D01*
X150203070Y-109050220D01*
X150574997Y-108896174D01*
X150979858Y-108531199D01*
X151109713Y-108258536D01*
X151412172Y-108711197D01*
X151865391Y-109014029D01*
X152400000Y-109120369D01*
X152908000Y-109019322D01*
X152908000Y-120855880D01*
X152624199Y-120504719D01*
X152143450Y-120243089D01*
X152069243Y-120228129D01*
X151853173Y-120350629D01*
X151853173Y-121963349D01*
X151873173Y-121963349D01*
X151873173Y-122217349D01*
X151853173Y-122217349D01*
X151853173Y-122237349D01*
X151599173Y-122237349D01*
X151599173Y-122217349D01*
X151579173Y-122217349D01*
X151579173Y-121963349D01*
X151599173Y-121963349D01*
X151599173Y-120350629D01*
X151383103Y-120228129D01*
X151308896Y-120243089D01*
X150828147Y-120504719D01*
X150484114Y-120930408D01*
X150465503Y-120993462D01*
X150174001Y-120557200D01*
X149720782Y-120254368D01*
X149186173Y-120148028D01*
X148651564Y-120254368D01*
X148198345Y-120557200D01*
X147916173Y-120979499D01*
X147634001Y-120557200D01*
X147180782Y-120254368D01*
X146646173Y-120148028D01*
X146111564Y-120254368D01*
X145658345Y-120557200D01*
X145376173Y-120979499D01*
X145094001Y-120557200D01*
X144640782Y-120254368D01*
X144106173Y-120148028D01*
X143571564Y-120254368D01*
X143118345Y-120557200D01*
X142815513Y-121010419D01*
X142709173Y-121545028D01*
X142709173Y-122635670D01*
X142815513Y-123170279D01*
X143118345Y-123623498D01*
X143497737Y-123877000D01*
X131492236Y-123877000D01*
X132019218Y-123350938D01*
X132358286Y-122534371D01*
X132359058Y-121650206D01*
X132021415Y-120833049D01*
X131396762Y-120207304D01*
X130580195Y-119868236D01*
X129696030Y-119867464D01*
X128878873Y-120205107D01*
X128599000Y-120484492D01*
X128599000Y-118645171D01*
X142474821Y-118645171D01*
X142632058Y-119025715D01*
X142922954Y-119317119D01*
X143303223Y-119475020D01*
X143714971Y-119475379D01*
X144095515Y-119318142D01*
X144386919Y-119027246D01*
X144544820Y-118646977D01*
X144545179Y-118235229D01*
X144387942Y-117854685D01*
X144097046Y-117563281D01*
X143716777Y-117405380D01*
X143305029Y-117405021D01*
X142924485Y-117562258D01*
X142633081Y-117853154D01*
X142475180Y-118233423D01*
X142474821Y-118645171D01*
X128599000Y-118645171D01*
X128599000Y-117298971D01*
X147046821Y-117298971D01*
X147204058Y-117679515D01*
X147494954Y-117970919D01*
X147875223Y-118128820D01*
X148286971Y-118129179D01*
X148667515Y-117971942D01*
X148958919Y-117681046D01*
X149116820Y-117300777D01*
X149117179Y-116889029D01*
X148959942Y-116508485D01*
X148669046Y-116217081D01*
X148288777Y-116059180D01*
X147877029Y-116058821D01*
X147496485Y-116216058D01*
X147205081Y-116506954D01*
X147047180Y-116887223D01*
X147046821Y-117298971D01*
X128599000Y-117298971D01*
X128599000Y-108039072D01*
X148505769Y-108039072D01*
X148740142Y-108531199D01*
X149145003Y-108896174D01*
X149516930Y-109050220D01*
X149733000Y-108927720D01*
X149733000Y-107823000D01*
X148627524Y-107823000D01*
X148505769Y-108039072D01*
X128599000Y-108039072D01*
X128599000Y-107352928D01*
X148505769Y-107352928D01*
X148627524Y-107569000D01*
X149733000Y-107569000D01*
X149733000Y-106464280D01*
X149516930Y-106341780D01*
X149145003Y-106495826D01*
X148740142Y-106860801D01*
X148505769Y-107352928D01*
X128599000Y-107352928D01*
X128599000Y-103074971D01*
X144379821Y-103074971D01*
X144537058Y-103455515D01*
X144827954Y-103746919D01*
X145208223Y-103904820D01*
X145619971Y-103905179D01*
X146000515Y-103747942D01*
X146291919Y-103457046D01*
X146449820Y-103076777D01*
X146450179Y-102665029D01*
X146292942Y-102284485D01*
X146002046Y-101993081D01*
X145621777Y-101835180D01*
X145210029Y-101834821D01*
X144829485Y-101992058D01*
X144538081Y-102282954D01*
X144380180Y-102663223D01*
X144379821Y-103074971D01*
X128599000Y-103074971D01*
X128599000Y-98883971D01*
X140442821Y-98883971D01*
X140600058Y-99264515D01*
X140890954Y-99555919D01*
X141271223Y-99713820D01*
X141682971Y-99714179D01*
X142063515Y-99556942D01*
X142354919Y-99266046D01*
X142512820Y-98885777D01*
X142513179Y-98474029D01*
X142355942Y-98093485D01*
X142065046Y-97802081D01*
X141684777Y-97644180D01*
X141273029Y-97643821D01*
X140892485Y-97801058D01*
X140601081Y-98091954D01*
X140443180Y-98472223D01*
X140442821Y-98883971D01*
X128599000Y-98883971D01*
X128599000Y-94692971D01*
X137521821Y-94692971D01*
X137679058Y-95073515D01*
X137969954Y-95364919D01*
X138350223Y-95522820D01*
X138761971Y-95523179D01*
X139142515Y-95365942D01*
X139433919Y-95075046D01*
X139591820Y-94694777D01*
X139592179Y-94283029D01*
X139434942Y-93902485D01*
X139144046Y-93611081D01*
X138763777Y-93453180D01*
X138352029Y-93452821D01*
X137971485Y-93610058D01*
X137680081Y-93900954D01*
X137522180Y-94281223D01*
X137521821Y-94692971D01*
X128599000Y-94692971D01*
X128599000Y-92533971D01*
X137648821Y-92533971D01*
X137806058Y-92914515D01*
X138096954Y-93205919D01*
X138477223Y-93363820D01*
X138888971Y-93364179D01*
X139269515Y-93206942D01*
X139560919Y-92916046D01*
X139718820Y-92535777D01*
X139719179Y-92124029D01*
X139561942Y-91743485D01*
X139271046Y-91452081D01*
X138890777Y-91294180D01*
X138479029Y-91293821D01*
X138098485Y-91451058D01*
X137807081Y-91741954D01*
X137649180Y-92122223D01*
X137648821Y-92533971D01*
X128599000Y-92533971D01*
X128599000Y-71957000D01*
X130136959Y-71957000D01*
X129523128Y-72569760D01*
X129523128Y-72569760D01*
G37*
X129523128Y-72569760D02*
X129184060Y-73386327D01*
X129183288Y-74270492D01*
X129520931Y-75087649D01*
X130145584Y-75713394D01*
X130962151Y-76052462D01*
X131846316Y-76053234D01*
X132663473Y-75715591D01*
X133289218Y-75090938D01*
X133571991Y-74409945D01*
X133671513Y-74910279D01*
X133974345Y-75363498D01*
X134427564Y-75666330D01*
X134962173Y-75772670D01*
X135496782Y-75666330D01*
X135950001Y-75363498D01*
X136232173Y-74941199D01*
X136514345Y-75363498D01*
X136967564Y-75666330D01*
X137502173Y-75772670D01*
X138036782Y-75666330D01*
X138490001Y-75363498D01*
X138772173Y-74941199D01*
X139054345Y-75363498D01*
X139507564Y-75666330D01*
X140042173Y-75772670D01*
X140576782Y-75666330D01*
X141030001Y-75363498D01*
X141312173Y-74941199D01*
X141594345Y-75363498D01*
X142047564Y-75666330D01*
X142582173Y-75772670D01*
X143116782Y-75666330D01*
X143570001Y-75363498D01*
X143852173Y-74941199D01*
X144134345Y-75363498D01*
X144587564Y-75666330D01*
X145122173Y-75772670D01*
X145656782Y-75666330D01*
X146110001Y-75363498D01*
X146392173Y-74941199D01*
X146674345Y-75363498D01*
X147127564Y-75666330D01*
X147662173Y-75772670D01*
X148196782Y-75666330D01*
X148650001Y-75363498D01*
X148932173Y-74941199D01*
X149214345Y-75363498D01*
X149667564Y-75666330D01*
X150202173Y-75772670D01*
X150736782Y-75666330D01*
X151190001Y-75363498D01*
X151472173Y-74941199D01*
X151754345Y-75363498D01*
X152207564Y-75666330D01*
X152742173Y-75772670D01*
X153276782Y-75666330D01*
X153730001Y-75363498D01*
X154012173Y-74941199D01*
X154294345Y-75363498D01*
X154747564Y-75666330D01*
X155282173Y-75772670D01*
X155816782Y-75666330D01*
X156270001Y-75363498D01*
X156552173Y-74941199D01*
X156834345Y-75363498D01*
X157287564Y-75666330D01*
X157822173Y-75772670D01*
X158356782Y-75666330D01*
X158810001Y-75363498D01*
X159112833Y-74910279D01*
X159219173Y-74375670D01*
X159219173Y-73285028D01*
X159112833Y-72750419D01*
X158810001Y-72297200D01*
X158356782Y-71994368D01*
X158168920Y-71957000D01*
X161539426Y-71957000D01*
X161351564Y-71994368D01*
X160898345Y-72297200D01*
X160595513Y-72750419D01*
X160489173Y-73285028D01*
X160489173Y-74375670D01*
X160595513Y-74910279D01*
X160898345Y-75363498D01*
X161351564Y-75666330D01*
X161886173Y-75772670D01*
X162420782Y-75666330D01*
X162874001Y-75363498D01*
X163156173Y-74941199D01*
X163438345Y-75363498D01*
X163891564Y-75666330D01*
X164426173Y-75772670D01*
X164960782Y-75666330D01*
X165414001Y-75363498D01*
X165696173Y-74941199D01*
X165978345Y-75363498D01*
X166243000Y-75540335D01*
X166243000Y-79248000D01*
X153033101Y-79248000D01*
X152987777Y-79229180D01*
X152576029Y-79228821D01*
X152529612Y-79248000D01*
X151765000Y-79248000D01*
X151716399Y-79257667D01*
X151675197Y-79285197D01*
X151647667Y-79326399D01*
X151638000Y-79375000D01*
X151638000Y-91313000D01*
X149225000Y-91313000D01*
X149176399Y-91322667D01*
X149135197Y-91350197D01*
X149107667Y-91391399D01*
X149098000Y-91440000D01*
X149098000Y-92710000D01*
X144145000Y-92710000D01*
X144096399Y-92719667D01*
X144055197Y-92747197D01*
X144027667Y-92788399D01*
X144018000Y-92837000D01*
X144018000Y-97790000D01*
X144027667Y-97838601D01*
X144055197Y-97879803D01*
X144096399Y-97907333D01*
X144145000Y-97917000D01*
X149098000Y-97917000D01*
X149098000Y-99695000D01*
X149107667Y-99743601D01*
X149135197Y-99784803D01*
X149176399Y-99812333D01*
X149225000Y-99822000D01*
X152908000Y-99822000D01*
X152908000Y-106372678D01*
X152400000Y-106271631D01*
X151865391Y-106377971D01*
X151412172Y-106680803D01*
X151109713Y-107133464D01*
X150979858Y-106860801D01*
X150574997Y-106495826D01*
X150203070Y-106341780D01*
X149987000Y-106464280D01*
X149987000Y-107569000D01*
X150007000Y-107569000D01*
X150007000Y-107823000D01*
X149987000Y-107823000D01*
X149987000Y-108927720D01*
X150203070Y-109050220D01*
X150574997Y-108896174D01*
X150979858Y-108531199D01*
X151109713Y-108258536D01*
X151412172Y-108711197D01*
X151865391Y-109014029D01*
X152400000Y-109120369D01*
X152908000Y-109019322D01*
X152908000Y-120855880D01*
X152624199Y-120504719D01*
X152143450Y-120243089D01*
X152069243Y-120228129D01*
X151853173Y-120350629D01*
X151853173Y-121963349D01*
X151873173Y-121963349D01*
X151873173Y-122217349D01*
X151853173Y-122217349D01*
X151853173Y-122237349D01*
X151599173Y-122237349D01*
X151599173Y-122217349D01*
X151579173Y-122217349D01*
X151579173Y-121963349D01*
X151599173Y-121963349D01*
X151599173Y-120350629D01*
X151383103Y-120228129D01*
X151308896Y-120243089D01*
X150828147Y-120504719D01*
X150484114Y-120930408D01*
X150465503Y-120993462D01*
X150174001Y-120557200D01*
X149720782Y-120254368D01*
X149186173Y-120148028D01*
X148651564Y-120254368D01*
X148198345Y-120557200D01*
X147916173Y-120979499D01*
X147634001Y-120557200D01*
X147180782Y-120254368D01*
X146646173Y-120148028D01*
X146111564Y-120254368D01*
X145658345Y-120557200D01*
X145376173Y-120979499D01*
X145094001Y-120557200D01*
X144640782Y-120254368D01*
X144106173Y-120148028D01*
X143571564Y-120254368D01*
X143118345Y-120557200D01*
X142815513Y-121010419D01*
X142709173Y-121545028D01*
X142709173Y-122635670D01*
X142815513Y-123170279D01*
X143118345Y-123623498D01*
X143497737Y-123877000D01*
X131492236Y-123877000D01*
X132019218Y-123350938D01*
X132358286Y-122534371D01*
X132359058Y-121650206D01*
X132021415Y-120833049D01*
X131396762Y-120207304D01*
X130580195Y-119868236D01*
X129696030Y-119867464D01*
X128878873Y-120205107D01*
X128599000Y-120484492D01*
X128599000Y-118645171D01*
X142474821Y-118645171D01*
X142632058Y-119025715D01*
X142922954Y-119317119D01*
X143303223Y-119475020D01*
X143714971Y-119475379D01*
X144095515Y-119318142D01*
X144386919Y-119027246D01*
X144544820Y-118646977D01*
X144545179Y-118235229D01*
X144387942Y-117854685D01*
X144097046Y-117563281D01*
X143716777Y-117405380D01*
X143305029Y-117405021D01*
X142924485Y-117562258D01*
X142633081Y-117853154D01*
X142475180Y-118233423D01*
X142474821Y-118645171D01*
X128599000Y-118645171D01*
X128599000Y-117298971D01*
X147046821Y-117298971D01*
X147204058Y-117679515D01*
X147494954Y-117970919D01*
X147875223Y-118128820D01*
X148286971Y-118129179D01*
X148667515Y-117971942D01*
X148958919Y-117681046D01*
X149116820Y-117300777D01*
X149117179Y-116889029D01*
X148959942Y-116508485D01*
X148669046Y-116217081D01*
X148288777Y-116059180D01*
X147877029Y-116058821D01*
X147496485Y-116216058D01*
X147205081Y-116506954D01*
X147047180Y-116887223D01*
X147046821Y-117298971D01*
X128599000Y-117298971D01*
X128599000Y-108039072D01*
X148505769Y-108039072D01*
X148740142Y-108531199D01*
X149145003Y-108896174D01*
X149516930Y-109050220D01*
X149733000Y-108927720D01*
X149733000Y-107823000D01*
X148627524Y-107823000D01*
X148505769Y-108039072D01*
X128599000Y-108039072D01*
X128599000Y-107352928D01*
X148505769Y-107352928D01*
X148627524Y-107569000D01*
X149733000Y-107569000D01*
X149733000Y-106464280D01*
X149516930Y-106341780D01*
X149145003Y-106495826D01*
X148740142Y-106860801D01*
X148505769Y-107352928D01*
X128599000Y-107352928D01*
X128599000Y-103074971D01*
X144379821Y-103074971D01*
X144537058Y-103455515D01*
X144827954Y-103746919D01*
X145208223Y-103904820D01*
X145619971Y-103905179D01*
X146000515Y-103747942D01*
X146291919Y-103457046D01*
X146449820Y-103076777D01*
X146450179Y-102665029D01*
X146292942Y-102284485D01*
X146002046Y-101993081D01*
X145621777Y-101835180D01*
X145210029Y-101834821D01*
X144829485Y-101992058D01*
X144538081Y-102282954D01*
X144380180Y-102663223D01*
X144379821Y-103074971D01*
X128599000Y-103074971D01*
X128599000Y-98883971D01*
X140442821Y-98883971D01*
X140600058Y-99264515D01*
X140890954Y-99555919D01*
X141271223Y-99713820D01*
X141682971Y-99714179D01*
X142063515Y-99556942D01*
X142354919Y-99266046D01*
X142512820Y-98885777D01*
X142513179Y-98474029D01*
X142355942Y-98093485D01*
X142065046Y-97802081D01*
X141684777Y-97644180D01*
X141273029Y-97643821D01*
X140892485Y-97801058D01*
X140601081Y-98091954D01*
X140443180Y-98472223D01*
X140442821Y-98883971D01*
X128599000Y-98883971D01*
X128599000Y-94692971D01*
X137521821Y-94692971D01*
X137679058Y-95073515D01*
X137969954Y-95364919D01*
X138350223Y-95522820D01*
X138761971Y-95523179D01*
X139142515Y-95365942D01*
X139433919Y-95075046D01*
X139591820Y-94694777D01*
X139592179Y-94283029D01*
X139434942Y-93902485D01*
X139144046Y-93611081D01*
X138763777Y-93453180D01*
X138352029Y-93452821D01*
X137971485Y-93610058D01*
X137680081Y-93900954D01*
X137522180Y-94281223D01*
X137521821Y-94692971D01*
X128599000Y-94692971D01*
X128599000Y-92533971D01*
X137648821Y-92533971D01*
X137806058Y-92914515D01*
X138096954Y-93205919D01*
X138477223Y-93363820D01*
X138888971Y-93364179D01*
X139269515Y-93206942D01*
X139560919Y-92916046D01*
X139718820Y-92535777D01*
X139719179Y-92124029D01*
X139561942Y-91743485D01*
X139271046Y-91452081D01*
X138890777Y-91294180D01*
X138479029Y-91293821D01*
X138098485Y-91451058D01*
X137807081Y-91741954D01*
X137649180Y-92122223D01*
X137648821Y-92533971D01*
X128599000Y-92533971D01*
X128599000Y-71957000D01*
X130136959Y-71957000D01*
X129523128Y-72569760D01*
G36*
X181535000Y-72938092D02*
X181535000Y-84074000D01*
X181589046Y-84345705D01*
X181742954Y-84576046D01*
X184075000Y-86908091D01*
X184075000Y-87796605D01*
X183466762Y-87187304D01*
X182650195Y-86848236D01*
X181766030Y-86847464D01*
X180948873Y-87185107D01*
X180323128Y-87809760D01*
X179984060Y-88626327D01*
X179983288Y-89510492D01*
X180320931Y-90327649D01*
X180945584Y-90953394D01*
X181762151Y-91292462D01*
X182646316Y-91293234D01*
X183463473Y-90955591D01*
X184075000Y-90345131D01*
X184075000Y-115736605D01*
X183466762Y-115127304D01*
X182650195Y-114788236D01*
X181766030Y-114787464D01*
X180948873Y-115125107D01*
X180323128Y-115749760D01*
X179984060Y-116566327D01*
X179983288Y-117450492D01*
X180320931Y-118267649D01*
X180945584Y-118893394D01*
X181762151Y-119232462D01*
X182646316Y-119233234D01*
X183463473Y-118895591D01*
X184075000Y-118285131D01*
X184075000Y-119212909D01*
X181742954Y-121544954D01*
X181589046Y-121775295D01*
X181535000Y-122047000D01*
X181535000Y-123877000D01*
X180274609Y-123877000D01*
X180654001Y-123623498D01*
X180956833Y-123170279D01*
X181063173Y-122635670D01*
X181063173Y-121545028D01*
X180956833Y-121010419D01*
X180654001Y-120557200D01*
X180200782Y-120254368D01*
X179666173Y-120148028D01*
X179131564Y-120254368D01*
X178678345Y-120557200D01*
X178396173Y-120979499D01*
X178114001Y-120557200D01*
X177660782Y-120254368D01*
X177126173Y-120148028D01*
X176591564Y-120254368D01*
X176138345Y-120557200D01*
X175856173Y-120979499D01*
X175574001Y-120557200D01*
X175120782Y-120254368D01*
X174586173Y-120148028D01*
X174051564Y-120254368D01*
X173598345Y-120557200D01*
X173316173Y-120979499D01*
X173034001Y-120557200D01*
X172580782Y-120254368D01*
X172046173Y-120148028D01*
X171511564Y-120254368D01*
X171058345Y-120557200D01*
X170776173Y-120979499D01*
X170494001Y-120557200D01*
X170040782Y-120254368D01*
X169506173Y-120148028D01*
X168971564Y-120254368D01*
X168518345Y-120557200D01*
X168236173Y-120979499D01*
X167954001Y-120557200D01*
X167500782Y-120254368D01*
X166966173Y-120148028D01*
X166431564Y-120254368D01*
X165978345Y-120557200D01*
X165675513Y-121010419D01*
X165569173Y-121545028D01*
X165569173Y-122635670D01*
X165675513Y-123170279D01*
X165978345Y-123623498D01*
X166357737Y-123877000D01*
X162494609Y-123877000D01*
X162874001Y-123623498D01*
X163176833Y-123170279D01*
X163283173Y-122635670D01*
X163283173Y-121545028D01*
X163176833Y-121010419D01*
X162874001Y-120557200D01*
X162420782Y-120254368D01*
X161886173Y-120148028D01*
X161351564Y-120254368D01*
X160898345Y-120557200D01*
X160616173Y-120979499D01*
X160334001Y-120557200D01*
X159880782Y-120254368D01*
X159346173Y-120148028D01*
X158811564Y-120254368D01*
X158358345Y-120557200D01*
X158076173Y-120979499D01*
X157794001Y-120557200D01*
X157340782Y-120254368D01*
X156806173Y-120148028D01*
X156271564Y-120254368D01*
X155818345Y-120557200D01*
X155526843Y-120993462D01*
X155508232Y-120930408D01*
X155164199Y-120504719D01*
X154683450Y-120243089D01*
X154609243Y-120228129D01*
X154393173Y-120350629D01*
X154393173Y-121963349D01*
X154413173Y-121963349D01*
X154413173Y-122217349D01*
X154393173Y-122217349D01*
X154393173Y-122237349D01*
X154139173Y-122237349D01*
X154139173Y-122217349D01*
X154119173Y-122217349D01*
X154119173Y-121963349D01*
X154139173Y-121963349D01*
X154139173Y-120350629D01*
X153923103Y-120228129D01*
X153848896Y-120243089D01*
X153670000Y-120340447D01*
X153670000Y-119102371D01*
X155759021Y-119102371D01*
X155916258Y-119482915D01*
X156207154Y-119774319D01*
X156587423Y-119932220D01*
X156999171Y-119932579D01*
X157379715Y-119775342D01*
X157671119Y-119484446D01*
X157787582Y-119203971D01*
X161524821Y-119203971D01*
X161682058Y-119584515D01*
X161972954Y-119875919D01*
X162353223Y-120033820D01*
X162764971Y-120034179D01*
X163145515Y-119876942D01*
X163436919Y-119586046D01*
X163594820Y-119205777D01*
X163595179Y-118794029D01*
X163437942Y-118413485D01*
X163147046Y-118122081D01*
X162766777Y-117964180D01*
X162355029Y-117963821D01*
X161974485Y-118121058D01*
X161683081Y-118411954D01*
X161525180Y-118792223D01*
X161524821Y-119203971D01*
X157787582Y-119203971D01*
X157829020Y-119104177D01*
X157829379Y-118692429D01*
X157672142Y-118311885D01*
X157381246Y-118020481D01*
X157336705Y-118001986D01*
X157557971Y-118002179D01*
X157938515Y-117844942D01*
X158229919Y-117554046D01*
X158387820Y-117173777D01*
X158388179Y-116762029D01*
X158230942Y-116381485D01*
X157940046Y-116090081D01*
X157559777Y-115932180D01*
X157148029Y-115931821D01*
X156767485Y-116089058D01*
X156476081Y-116379954D01*
X156318180Y-116760223D01*
X156317821Y-117171971D01*
X156475058Y-117552515D01*
X156765954Y-117843919D01*
X156810495Y-117862414D01*
X156589229Y-117862221D01*
X156208685Y-118019458D01*
X155917281Y-118310354D01*
X155759380Y-118690623D01*
X155759021Y-119102371D01*
X153670000Y-119102371D01*
X153670000Y-110694971D01*
X161524821Y-110694971D01*
X161682058Y-111075515D01*
X161972954Y-111366919D01*
X162353223Y-111524820D01*
X162764971Y-111525179D01*
X163145515Y-111367942D01*
X163436919Y-111077046D01*
X163594820Y-110696777D01*
X163595179Y-110285029D01*
X163437942Y-109904485D01*
X163147046Y-109613081D01*
X162812101Y-109474000D01*
X165961631Y-109474000D01*
X166067971Y-110008609D01*
X166370803Y-110461828D01*
X166793102Y-110744000D01*
X166370803Y-111026172D01*
X166067971Y-111479391D01*
X165961631Y-112014000D01*
X166067971Y-112548609D01*
X166370803Y-113001828D01*
X166793102Y-113284000D01*
X166370803Y-113566172D01*
X166067971Y-114019391D01*
X165961631Y-114554000D01*
X166067971Y-115088609D01*
X166370803Y-115541828D01*
X166824022Y-115844660D01*
X167358631Y-115951000D01*
X167413369Y-115951000D01*
X167947978Y-115844660D01*
X168401197Y-115541828D01*
X168704029Y-115088609D01*
X168810369Y-114554000D01*
X168704029Y-114019391D01*
X168401197Y-113566172D01*
X167978898Y-113284000D01*
X168401197Y-113001828D01*
X168704029Y-112548609D01*
X168810369Y-112014000D01*
X168704029Y-111479391D01*
X168401197Y-111026172D01*
X167978898Y-110744000D01*
X168401197Y-110461828D01*
X168704029Y-110008609D01*
X168810369Y-109474000D01*
X168704029Y-108939391D01*
X168401197Y-108486172D01*
X167947978Y-108183340D01*
X167413369Y-108077000D01*
X167358631Y-108077000D01*
X166824022Y-108183340D01*
X166370803Y-108486172D01*
X166067971Y-108939391D01*
X165961631Y-109474000D01*
X162812101Y-109474000D01*
X162766777Y-109455180D01*
X162355029Y-109454821D01*
X161974485Y-109612058D01*
X161683081Y-109902954D01*
X161525180Y-110283223D01*
X161524821Y-110694971D01*
X153670000Y-110694971D01*
X153670000Y-108288898D01*
X153690287Y-108258536D01*
X153820142Y-108531199D01*
X154225003Y-108896174D01*
X154596930Y-109050220D01*
X154813000Y-108927720D01*
X154813000Y-107823000D01*
X155067000Y-107823000D01*
X155067000Y-108927720D01*
X155283070Y-109050220D01*
X155654997Y-108896174D01*
X156059858Y-108531199D01*
X156294231Y-108039072D01*
X156172476Y-107823000D01*
X155067000Y-107823000D01*
X154813000Y-107823000D01*
X154793000Y-107823000D01*
X154793000Y-107569000D01*
X154813000Y-107569000D01*
X154813000Y-106464280D01*
X155067000Y-106464280D01*
X155067000Y-107569000D01*
X156172476Y-107569000D01*
X156271667Y-107392971D01*
X171938821Y-107392971D01*
X172096058Y-107773515D01*
X172386954Y-108064919D01*
X172767223Y-108222820D01*
X173178971Y-108223179D01*
X173559515Y-108065942D01*
X173850919Y-107775046D01*
X174008820Y-107394777D01*
X174009179Y-106983029D01*
X173851942Y-106602485D01*
X173561046Y-106311081D01*
X173180777Y-106153180D01*
X172769029Y-106152821D01*
X172388485Y-106310058D01*
X172097081Y-106600954D01*
X171939180Y-106981223D01*
X171938821Y-107392971D01*
X156271667Y-107392971D01*
X156294231Y-107352928D01*
X156059858Y-106860801D01*
X155654997Y-106495826D01*
X155283070Y-106341780D01*
X155067000Y-106464280D01*
X154813000Y-106464280D01*
X154596930Y-106341780D01*
X154225003Y-106495826D01*
X153820142Y-106860801D01*
X153690287Y-107133464D01*
X153670000Y-107103102D01*
X153670000Y-105208571D01*
X164242621Y-105208571D01*
X164399858Y-105589115D01*
X164690754Y-105880519D01*
X165071023Y-106038420D01*
X165482771Y-106038779D01*
X165863315Y-105881542D01*
X166154719Y-105590646D01*
X166312620Y-105210377D01*
X166312979Y-104798629D01*
X166155742Y-104418085D01*
X165955977Y-104217971D01*
X171303815Y-104217971D01*
X171461052Y-104598515D01*
X171751948Y-104889919D01*
X172132217Y-105047820D01*
X172543965Y-105048179D01*
X172924509Y-104890942D01*
X172955036Y-104860468D01*
X172954821Y-105106971D01*
X173112058Y-105487515D01*
X173402954Y-105778919D01*
X173783223Y-105936820D01*
X174194971Y-105937179D01*
X174575515Y-105779942D01*
X174866919Y-105489046D01*
X175024820Y-105108777D01*
X175025179Y-104697029D01*
X174867942Y-104316485D01*
X174577046Y-104025081D01*
X174196777Y-103867180D01*
X173785029Y-103866821D01*
X173404485Y-104024058D01*
X173373958Y-104054532D01*
X173374173Y-103808029D01*
X173216936Y-103427485D01*
X172926040Y-103136081D01*
X172545771Y-102978180D01*
X172134023Y-102977821D01*
X171753479Y-103135058D01*
X171462075Y-103425954D01*
X171304174Y-103806223D01*
X171303815Y-104217971D01*
X165955977Y-104217971D01*
X165864846Y-104126681D01*
X165484577Y-103968780D01*
X165072829Y-103968421D01*
X164692285Y-104125658D01*
X164400881Y-104416554D01*
X164242980Y-104796823D01*
X164242621Y-105208571D01*
X153670000Y-105208571D01*
X153670000Y-102820971D01*
X160000821Y-102820971D01*
X160158058Y-103201515D01*
X160448954Y-103492919D01*
X160764588Y-103623981D01*
X160636180Y-103933223D01*
X160635821Y-104344971D01*
X160793058Y-104725515D01*
X161083954Y-105016919D01*
X161464223Y-105174820D01*
X161875971Y-105175179D01*
X162256515Y-105017942D01*
X162547919Y-104727046D01*
X162705820Y-104346777D01*
X162706179Y-103935029D01*
X162548942Y-103554485D01*
X162258046Y-103263081D01*
X161942412Y-103132019D01*
X162070820Y-102822777D01*
X162071179Y-102411029D01*
X162022730Y-102293772D01*
X162293919Y-102023056D01*
X162451820Y-101642787D01*
X162451840Y-101619131D01*
X163370981Y-101619131D01*
X163528218Y-101999675D01*
X163819114Y-102291079D01*
X164199383Y-102448980D01*
X164611131Y-102449339D01*
X164991675Y-102292102D01*
X165283079Y-102001206D01*
X165336321Y-101872985D01*
X165558971Y-101873179D01*
X165939515Y-101715942D01*
X166104774Y-101550971D01*
X175113821Y-101550971D01*
X175271058Y-101931515D01*
X175561954Y-102222919D01*
X175942223Y-102380820D01*
X176353971Y-102381179D01*
X176734515Y-102223942D01*
X177025919Y-101933046D01*
X177183820Y-101552777D01*
X177184179Y-101141029D01*
X177026942Y-100760485D01*
X176736046Y-100469081D01*
X176355777Y-100311180D01*
X175944029Y-100310821D01*
X175563485Y-100468058D01*
X175272081Y-100758954D01*
X175114180Y-101139223D01*
X175113821Y-101550971D01*
X166104774Y-101550971D01*
X166230919Y-101425046D01*
X166388820Y-101044777D01*
X166389153Y-100661971D01*
X170541821Y-100661971D01*
X170699058Y-101042515D01*
X170989954Y-101333919D01*
X171370223Y-101491820D01*
X171781971Y-101492179D01*
X172162515Y-101334942D01*
X172453919Y-101044046D01*
X172611820Y-100663777D01*
X172612179Y-100252029D01*
X172454942Y-99871485D01*
X172164046Y-99580081D01*
X171783777Y-99422180D01*
X171372029Y-99421821D01*
X170991485Y-99579058D01*
X170700081Y-99869954D01*
X170542180Y-100250223D01*
X170541821Y-100661971D01*
X166389153Y-100661971D01*
X166389179Y-100633029D01*
X166231942Y-100252485D01*
X165941046Y-99961081D01*
X165560777Y-99803180D01*
X165149029Y-99802821D01*
X164768485Y-99960058D01*
X164477081Y-100250954D01*
X164423839Y-100379175D01*
X164201189Y-100378981D01*
X163820645Y-100536218D01*
X163529241Y-100827114D01*
X163371340Y-101207383D01*
X163370981Y-101619131D01*
X162451840Y-101619131D01*
X162452179Y-101231039D01*
X162294942Y-100850495D01*
X162010207Y-100565263D01*
X162293919Y-100282046D01*
X162451820Y-99901777D01*
X162452179Y-99490029D01*
X162294942Y-99109485D01*
X162004046Y-98818081D01*
X161623777Y-98660180D01*
X161212029Y-98659821D01*
X160831485Y-98817058D01*
X160540081Y-99107954D01*
X160382180Y-99488223D01*
X160381821Y-99899971D01*
X160539058Y-100280515D01*
X160823793Y-100565747D01*
X160540081Y-100848964D01*
X160382180Y-101229233D01*
X160381821Y-101640981D01*
X160430270Y-101758238D01*
X160159081Y-102028954D01*
X160001180Y-102409223D01*
X160000821Y-102820971D01*
X153670000Y-102820971D01*
X153670000Y-100026971D01*
X156571821Y-100026971D01*
X156729058Y-100407515D01*
X157019954Y-100698919D01*
X157400223Y-100856820D01*
X157811971Y-100857179D01*
X158192515Y-100699942D01*
X158483919Y-100409046D01*
X158641820Y-100028777D01*
X158642179Y-99617029D01*
X158484942Y-99236485D01*
X158194046Y-98945081D01*
X157813777Y-98787180D01*
X157402029Y-98786821D01*
X157021485Y-98944058D01*
X156730081Y-99234954D01*
X156572180Y-99615223D01*
X156571821Y-100026971D01*
X153670000Y-100026971D01*
X153670000Y-99822000D01*
X155575000Y-99822000D01*
X155623601Y-99812333D01*
X155664803Y-99784803D01*
X155692333Y-99743601D01*
X155702000Y-99695000D01*
X155702000Y-97459752D01*
X155713058Y-97486515D01*
X156003954Y-97777919D01*
X156384223Y-97935820D01*
X156795971Y-97936179D01*
X157176515Y-97778942D01*
X157467919Y-97488046D01*
X157475100Y-97470751D01*
X157654954Y-97650919D01*
X158035223Y-97808820D01*
X158446971Y-97809179D01*
X158827515Y-97651942D01*
X159107273Y-97372671D01*
X162814821Y-97372671D01*
X162972058Y-97753215D01*
X163262954Y-98044619D01*
X163643223Y-98202520D01*
X164054971Y-98202879D01*
X164250784Y-98121971D01*
X171176821Y-98121971D01*
X171334058Y-98502515D01*
X171624954Y-98793919D01*
X172005223Y-98951820D01*
X172416971Y-98952179D01*
X172797515Y-98794942D01*
X173088919Y-98504046D01*
X173246820Y-98123777D01*
X173247179Y-97712029D01*
X173089942Y-97331485D01*
X172799046Y-97040081D01*
X172418777Y-96882180D01*
X172007029Y-96881821D01*
X171626485Y-97039058D01*
X171335081Y-97329954D01*
X171177180Y-97710223D01*
X171176821Y-98121971D01*
X164250784Y-98121971D01*
X164435515Y-98045642D01*
X164726919Y-97754746D01*
X164884820Y-97374477D01*
X164885072Y-97084469D01*
X165947109Y-97084469D01*
X166104346Y-97465013D01*
X166395242Y-97756417D01*
X166775511Y-97914318D01*
X167187259Y-97914677D01*
X167567803Y-97757440D01*
X167859207Y-97466544D01*
X168017108Y-97086275D01*
X168017467Y-96674527D01*
X167860230Y-96293983D01*
X167569334Y-96002579D01*
X167189065Y-95844678D01*
X166777317Y-95844319D01*
X166396773Y-96001556D01*
X166105369Y-96292452D01*
X165947468Y-96672721D01*
X165947109Y-97084469D01*
X164885072Y-97084469D01*
X164885179Y-96962729D01*
X164727942Y-96582185D01*
X164437046Y-96290781D01*
X164056777Y-96132880D01*
X163645029Y-96132521D01*
X163264485Y-96289758D01*
X162973081Y-96580654D01*
X162815180Y-96960923D01*
X162814821Y-97372671D01*
X159107273Y-97372671D01*
X159118919Y-97361046D01*
X159276820Y-96980777D01*
X159277179Y-96569029D01*
X159119942Y-96188485D01*
X158829046Y-95897081D01*
X158448777Y-95739180D01*
X158037029Y-95738821D01*
X157656485Y-95896058D01*
X157365081Y-96186954D01*
X157357900Y-96204249D01*
X157178046Y-96024081D01*
X156797777Y-95866180D01*
X156386029Y-95865821D01*
X156005485Y-96023058D01*
X155714081Y-96313954D01*
X155702000Y-96343048D01*
X155702000Y-95327971D01*
X158857801Y-95327971D01*
X159015038Y-95708515D01*
X159305934Y-95999919D01*
X159686203Y-96157820D01*
X160097951Y-96158179D01*
X160478495Y-96000942D01*
X160769899Y-95710046D01*
X160774103Y-95699920D01*
X160986913Y-95700106D01*
X161367457Y-95542869D01*
X161658861Y-95251973D01*
X161816762Y-94871704D01*
X161817121Y-94459956D01*
X161659884Y-94079412D01*
X161627640Y-94047111D01*
X162339811Y-94047111D01*
X162497048Y-94427655D01*
X162787944Y-94719059D01*
X163168213Y-94876960D01*
X163579961Y-94877319D01*
X163718730Y-94819981D01*
X165715821Y-94819981D01*
X165873058Y-95200525D01*
X166163954Y-95491929D01*
X166544223Y-95649830D01*
X166955971Y-95650189D01*
X167336515Y-95492952D01*
X167627919Y-95202056D01*
X167733839Y-94946971D01*
X172827821Y-94946971D01*
X172985058Y-95327515D01*
X173275954Y-95618919D01*
X173656223Y-95776820D01*
X174067971Y-95777179D01*
X174448515Y-95619942D01*
X174739919Y-95329046D01*
X174897820Y-94948777D01*
X174898179Y-94537029D01*
X174852721Y-94427010D01*
X178268931Y-94427010D01*
X178481163Y-94940652D01*
X178873803Y-95333978D01*
X179081685Y-95420298D01*
X178875870Y-95505339D01*
X178482544Y-95897979D01*
X178269416Y-96411249D01*
X178268931Y-96967010D01*
X178481163Y-97480652D01*
X178873803Y-97873978D01*
X179081685Y-97960298D01*
X178875870Y-98045339D01*
X178482544Y-98437979D01*
X178269416Y-98951249D01*
X178268931Y-99507010D01*
X178481163Y-100020652D01*
X178873803Y-100413978D01*
X179387073Y-100627106D01*
X179942834Y-100627591D01*
X180456476Y-100415359D01*
X180849802Y-100022719D01*
X180936122Y-99814837D01*
X181021163Y-100020652D01*
X181413803Y-100413978D01*
X181927073Y-100627106D01*
X182482834Y-100627591D01*
X182996476Y-100415359D01*
X183389802Y-100022719D01*
X183602930Y-99509449D01*
X183603415Y-98953688D01*
X183391183Y-98440046D01*
X182998543Y-98046720D01*
X182790661Y-97960400D01*
X182996476Y-97875359D01*
X183389802Y-97482719D01*
X183602930Y-96969449D01*
X183603415Y-96413688D01*
X183391183Y-95900046D01*
X182998543Y-95506720D01*
X182790661Y-95420400D01*
X182996476Y-95335359D01*
X183389802Y-94942719D01*
X183602930Y-94429449D01*
X183603415Y-93873688D01*
X183391183Y-93360046D01*
X182998543Y-92966720D01*
X182485273Y-92753592D01*
X181929512Y-92753107D01*
X181415870Y-92965339D01*
X181022544Y-93357979D01*
X180936224Y-93565861D01*
X180851183Y-93360046D01*
X180458543Y-92966720D01*
X179945273Y-92753592D01*
X179389512Y-92753107D01*
X178875870Y-92965339D01*
X178482544Y-93357979D01*
X178269416Y-93871249D01*
X178268931Y-94427010D01*
X174852721Y-94427010D01*
X174740942Y-94156485D01*
X174450046Y-93865081D01*
X174069777Y-93707180D01*
X173658029Y-93706821D01*
X173277485Y-93864058D01*
X172986081Y-94154954D01*
X172828180Y-94535223D01*
X172827821Y-94946971D01*
X167733839Y-94946971D01*
X167785820Y-94821787D01*
X167786179Y-94410039D01*
X167628942Y-94029495D01*
X167338046Y-93738091D01*
X166957777Y-93580190D01*
X166546029Y-93579831D01*
X166165485Y-93737068D01*
X165874081Y-94027964D01*
X165716180Y-94408233D01*
X165715821Y-94819981D01*
X163718730Y-94819981D01*
X163960505Y-94720082D01*
X164251909Y-94429186D01*
X164409810Y-94048917D01*
X164410169Y-93637169D01*
X164269190Y-93295971D01*
X171176821Y-93295971D01*
X171334058Y-93676515D01*
X171624954Y-93967919D01*
X172005223Y-94125820D01*
X172416971Y-94126179D01*
X172797515Y-93968942D01*
X173088919Y-93678046D01*
X173246820Y-93297777D01*
X173247179Y-92886029D01*
X173089942Y-92505485D01*
X172799046Y-92214081D01*
X172418777Y-92056180D01*
X172007029Y-92055821D01*
X171626485Y-92213058D01*
X171335081Y-92503954D01*
X171177180Y-92884223D01*
X171176821Y-93295971D01*
X164269190Y-93295971D01*
X164252932Y-93256625D01*
X163962036Y-92965221D01*
X163581767Y-92807320D01*
X163170019Y-92806961D01*
X162789475Y-92964198D01*
X162498071Y-93255094D01*
X162340170Y-93635363D01*
X162339811Y-94047111D01*
X161627640Y-94047111D01*
X161368988Y-93788008D01*
X160988719Y-93630107D01*
X160576971Y-93629748D01*
X160196427Y-93786985D01*
X159905023Y-94077881D01*
X159900819Y-94088007D01*
X159688009Y-94087821D01*
X159307465Y-94245058D01*
X159016061Y-94535954D01*
X158858160Y-94916223D01*
X158857801Y-95327971D01*
X155702000Y-95327971D01*
X155702000Y-93521952D01*
X155847820Y-93170777D01*
X155848179Y-92759029D01*
X155690942Y-92378485D01*
X155457419Y-92144554D01*
X155652515Y-92063942D01*
X155943919Y-91773046D01*
X156101820Y-91392777D01*
X156102179Y-90981029D01*
X155959919Y-90636732D01*
X158723060Y-90636732D01*
X158880297Y-91017276D01*
X159171193Y-91308680D01*
X159551462Y-91466581D01*
X159963210Y-91466940D01*
X160343754Y-91309703D01*
X160381925Y-91271598D01*
X160381821Y-91390971D01*
X160539058Y-91771515D01*
X160829954Y-92062919D01*
X161210223Y-92220820D01*
X161621971Y-92221179D01*
X162002515Y-92063942D01*
X162293919Y-91773046D01*
X162451820Y-91392777D01*
X162452179Y-90981029D01*
X162294942Y-90600485D01*
X162004046Y-90309081D01*
X161623777Y-90151180D01*
X161451774Y-90151030D01*
X161481885Y-90120971D01*
X162947221Y-90120971D01*
X163104458Y-90501515D01*
X163395354Y-90792919D01*
X163775623Y-90950820D01*
X164187371Y-90951179D01*
X164567915Y-90793942D01*
X164859319Y-90503046D01*
X164912500Y-90374971D01*
X165969821Y-90374971D01*
X166127058Y-90755515D01*
X166417954Y-91046919D01*
X166798223Y-91204820D01*
X167209971Y-91205179D01*
X167590515Y-91047942D01*
X167881919Y-90757046D01*
X168039820Y-90376777D01*
X168040179Y-89965029D01*
X167882942Y-89584485D01*
X167592046Y-89293081D01*
X167211777Y-89135180D01*
X166800029Y-89134821D01*
X166419485Y-89292058D01*
X166128081Y-89582954D01*
X165970180Y-89963223D01*
X165969821Y-90374971D01*
X164912500Y-90374971D01*
X165017220Y-90122777D01*
X165017579Y-89711029D01*
X164860342Y-89330485D01*
X164569446Y-89039081D01*
X164189177Y-88881180D01*
X163777429Y-88880821D01*
X163396885Y-89038058D01*
X163105481Y-89328954D01*
X162947580Y-89709223D01*
X162947221Y-90120971D01*
X161481885Y-90120971D01*
X161658919Y-89944246D01*
X161816820Y-89563977D01*
X161817179Y-89152229D01*
X161659942Y-88771685D01*
X161369046Y-88480281D01*
X160988777Y-88322380D01*
X160577029Y-88322021D01*
X160196485Y-88479258D01*
X159905081Y-88770154D01*
X159747180Y-89150423D01*
X159746965Y-89396751D01*
X159553268Y-89396582D01*
X159172724Y-89553819D01*
X158881320Y-89844715D01*
X158723419Y-90224984D01*
X158723060Y-90636732D01*
X155959919Y-90636732D01*
X155944942Y-90600485D01*
X155654046Y-90309081D01*
X155273777Y-90151180D01*
X154862029Y-90150821D01*
X154481485Y-90308058D01*
X154190081Y-90598954D01*
X154032180Y-90979223D01*
X154031821Y-91390971D01*
X154189058Y-91771515D01*
X154422581Y-92005446D01*
X154227485Y-92086058D01*
X153936081Y-92376954D01*
X153797789Y-92710000D01*
X149860000Y-92710000D01*
X149860000Y-92075000D01*
X151765000Y-92075000D01*
X152008004Y-92026664D01*
X152214013Y-91889013D01*
X152351664Y-91683004D01*
X152400000Y-91440000D01*
X152400000Y-86941477D01*
X152574223Y-87013820D01*
X152985971Y-87014179D01*
X153366515Y-86856942D01*
X153657919Y-86566046D01*
X153711100Y-86437971D01*
X174859821Y-86437971D01*
X175017058Y-86818515D01*
X175307954Y-87109919D01*
X175688223Y-87267820D01*
X176099971Y-87268179D01*
X176480515Y-87110942D01*
X176771919Y-86820046D01*
X176929820Y-86439777D01*
X176930179Y-86028029D01*
X176772942Y-85647485D01*
X176482046Y-85356081D01*
X176101777Y-85198180D01*
X175690029Y-85197821D01*
X175309485Y-85355058D01*
X175018081Y-85645954D01*
X174860180Y-86026223D01*
X174859821Y-86437971D01*
X153711100Y-86437971D01*
X153815820Y-86185777D01*
X153816179Y-85774029D01*
X153658942Y-85393485D01*
X153560600Y-85294971D01*
X161143821Y-85294971D01*
X161301058Y-85675515D01*
X161591954Y-85966919D01*
X161972223Y-86124820D01*
X162383971Y-86125179D01*
X162764515Y-85967942D01*
X163055919Y-85677046D01*
X163213820Y-85296777D01*
X163214179Y-84885029D01*
X163056942Y-84504485D01*
X162766046Y-84213081D01*
X162385777Y-84055180D01*
X161974029Y-84054821D01*
X161593485Y-84212058D01*
X161302081Y-84502954D01*
X161144180Y-84883223D01*
X161143821Y-85294971D01*
X153560600Y-85294971D01*
X153368046Y-85102081D01*
X152987777Y-84944180D01*
X152576029Y-84943821D01*
X152400000Y-85016554D01*
X152400000Y-82627971D01*
X159619821Y-82627971D01*
X159777058Y-83008515D01*
X160067954Y-83299919D01*
X160448223Y-83457820D01*
X160859971Y-83458179D01*
X161240515Y-83300942D01*
X161531919Y-83010046D01*
X161689820Y-82629777D01*
X161689932Y-82500971D01*
X162286821Y-82500971D01*
X162444058Y-82881515D01*
X162734954Y-83172919D01*
X163115223Y-83330820D01*
X163526971Y-83331179D01*
X163907515Y-83173942D01*
X164198919Y-82883046D01*
X164356820Y-82502777D01*
X164357179Y-82091029D01*
X164199942Y-81710485D01*
X163909046Y-81419081D01*
X163761877Y-81357971D01*
X165461821Y-81357971D01*
X165619058Y-81738515D01*
X165909954Y-82029919D01*
X166290223Y-82187820D01*
X166701971Y-82188179D01*
X167082515Y-82030942D01*
X167373919Y-81740046D01*
X167531820Y-81359777D01*
X167532179Y-80948029D01*
X167374942Y-80567485D01*
X167084046Y-80276081D01*
X166703777Y-80118180D01*
X166292029Y-80117821D01*
X165911485Y-80275058D01*
X165620081Y-80565954D01*
X165462180Y-80946223D01*
X165461821Y-81357971D01*
X163761877Y-81357971D01*
X163528777Y-81261180D01*
X163117029Y-81260821D01*
X162736485Y-81418058D01*
X162445081Y-81708954D01*
X162287180Y-82089223D01*
X162286821Y-82500971D01*
X161689932Y-82500971D01*
X161690179Y-82218029D01*
X161532942Y-81837485D01*
X161242046Y-81546081D01*
X160861777Y-81388180D01*
X160450029Y-81387821D01*
X160069485Y-81545058D01*
X159778081Y-81835954D01*
X159620180Y-82216223D01*
X159619821Y-82627971D01*
X152400000Y-82627971D01*
X152400000Y-81226477D01*
X152574223Y-81298820D01*
X152985971Y-81299179D01*
X153366515Y-81141942D01*
X153657919Y-80851046D01*
X153815820Y-80470777D01*
X153816179Y-80059029D01*
X153795921Y-80010000D01*
X166370000Y-80010000D01*
X166613004Y-79961664D01*
X166819013Y-79824013D01*
X166956664Y-79618004D01*
X167005000Y-79375000D01*
X167005000Y-78817971D01*
X168509821Y-78817971D01*
X168667058Y-79198515D01*
X168957954Y-79489919D01*
X169338223Y-79647820D01*
X169749971Y-79648179D01*
X170130515Y-79490942D01*
X170421919Y-79200046D01*
X170579820Y-78819777D01*
X170580179Y-78408029D01*
X170422942Y-78027485D01*
X170132046Y-77736081D01*
X169751777Y-77578180D01*
X169340029Y-77577821D01*
X168959485Y-77735058D01*
X168668081Y-78025954D01*
X168510180Y-78406223D01*
X168509821Y-78817971D01*
X167005000Y-78817971D01*
X167005000Y-75764947D01*
X167500782Y-75666330D01*
X167954001Y-75363498D01*
X168236173Y-74941199D01*
X168518345Y-75363498D01*
X168971564Y-75666330D01*
X169506173Y-75772670D01*
X170040782Y-75666330D01*
X170494001Y-75363498D01*
X170776173Y-74941199D01*
X171058345Y-75363498D01*
X171145581Y-75421788D01*
X170954081Y-75612954D01*
X170796180Y-75993223D01*
X170795821Y-76404971D01*
X170953058Y-76785515D01*
X171243954Y-77076919D01*
X171516986Y-77190291D01*
X171097172Y-77470803D01*
X170794340Y-77924022D01*
X170688000Y-78458631D01*
X170688000Y-78513369D01*
X170794340Y-79047978D01*
X171097172Y-79501197D01*
X171550391Y-79804029D01*
X171947406Y-79883000D01*
X171550391Y-79961971D01*
X171097172Y-80264803D01*
X170794340Y-80718022D01*
X170688000Y-81252631D01*
X170688000Y-81307369D01*
X170794340Y-81841978D01*
X171097172Y-82295197D01*
X171550391Y-82598029D01*
X171947406Y-82677000D01*
X171550391Y-82755971D01*
X171097172Y-83058803D01*
X170794340Y-83512022D01*
X170688000Y-84046631D01*
X170688000Y-84101369D01*
X170794340Y-84635978D01*
X171097172Y-85089197D01*
X171550391Y-85392029D01*
X172085000Y-85498369D01*
X172619609Y-85392029D01*
X173072828Y-85089197D01*
X173355000Y-84666898D01*
X173637172Y-85089197D01*
X174090391Y-85392029D01*
X174625000Y-85498369D01*
X175159609Y-85392029D01*
X175612828Y-85089197D01*
X175895000Y-84666898D01*
X176177172Y-85089197D01*
X176630391Y-85392029D01*
X177165000Y-85498369D01*
X177699609Y-85392029D01*
X178152828Y-85089197D01*
X178455660Y-84635978D01*
X178562000Y-84101369D01*
X178562000Y-84046631D01*
X178455660Y-83512022D01*
X178152828Y-83058803D01*
X177699609Y-82755971D01*
X177302594Y-82677000D01*
X177699609Y-82598029D01*
X178152828Y-82295197D01*
X178455660Y-81841978D01*
X178562000Y-81307369D01*
X178562000Y-81252631D01*
X178455660Y-80718022D01*
X178152828Y-80264803D01*
X177699609Y-79961971D01*
X177302594Y-79883000D01*
X177699609Y-79804029D01*
X178152828Y-79501197D01*
X178455660Y-79047978D01*
X178562000Y-78513369D01*
X178562000Y-78458631D01*
X178455660Y-77924022D01*
X178152828Y-77470803D01*
X177699609Y-77167971D01*
X177165000Y-77061631D01*
X176630391Y-77167971D01*
X176177172Y-77470803D01*
X175895000Y-77893102D01*
X175612828Y-77470803D01*
X175440921Y-77355938D01*
X175501919Y-77295046D01*
X175659820Y-76914777D01*
X175660179Y-76503029D01*
X175502942Y-76122485D01*
X175212046Y-75831081D01*
X174914227Y-75707416D01*
X175120782Y-75666330D01*
X175574001Y-75363498D01*
X175856173Y-74941199D01*
X176138345Y-75363498D01*
X176591564Y-75666330D01*
X177126173Y-75772670D01*
X177660782Y-75666330D01*
X178114001Y-75363498D01*
X178396173Y-74941199D01*
X178678345Y-75363498D01*
X179131564Y-75666330D01*
X179666173Y-75772670D01*
X180200782Y-75666330D01*
X180654001Y-75363498D01*
X180956833Y-74910279D01*
X181063173Y-74375670D01*
X181063173Y-73285028D01*
X180956833Y-72750419D01*
X180654001Y-72297200D01*
X180200782Y-71994368D01*
X180012920Y-71957000D01*
X180553908Y-71957000D01*
X181535000Y-72938092D01*
X181535000Y-72938092D01*
G37*
X181535000Y-72938092D02*
X181535000Y-84074000D01*
X181589046Y-84345705D01*
X181742954Y-84576046D01*
X184075000Y-86908091D01*
X184075000Y-87796605D01*
X183466762Y-87187304D01*
X182650195Y-86848236D01*
X181766030Y-86847464D01*
X180948873Y-87185107D01*
X180323128Y-87809760D01*
X179984060Y-88626327D01*
X179983288Y-89510492D01*
X180320931Y-90327649D01*
X180945584Y-90953394D01*
X181762151Y-91292462D01*
X182646316Y-91293234D01*
X183463473Y-90955591D01*
X184075000Y-90345131D01*
X184075000Y-115736605D01*
X183466762Y-115127304D01*
X182650195Y-114788236D01*
X181766030Y-114787464D01*
X180948873Y-115125107D01*
X180323128Y-115749760D01*
X179984060Y-116566327D01*
X179983288Y-117450492D01*
X180320931Y-118267649D01*
X180945584Y-118893394D01*
X181762151Y-119232462D01*
X182646316Y-119233234D01*
X183463473Y-118895591D01*
X184075000Y-118285131D01*
X184075000Y-119212909D01*
X181742954Y-121544954D01*
X181589046Y-121775295D01*
X181535000Y-122047000D01*
X181535000Y-123877000D01*
X180274609Y-123877000D01*
X180654001Y-123623498D01*
X180956833Y-123170279D01*
X181063173Y-122635670D01*
X181063173Y-121545028D01*
X180956833Y-121010419D01*
X180654001Y-120557200D01*
X180200782Y-120254368D01*
X179666173Y-120148028D01*
X179131564Y-120254368D01*
X178678345Y-120557200D01*
X178396173Y-120979499D01*
X178114001Y-120557200D01*
X177660782Y-120254368D01*
X177126173Y-120148028D01*
X176591564Y-120254368D01*
X176138345Y-120557200D01*
X175856173Y-120979499D01*
X175574001Y-120557200D01*
X175120782Y-120254368D01*
X174586173Y-120148028D01*
X174051564Y-120254368D01*
X173598345Y-120557200D01*
X173316173Y-120979499D01*
X173034001Y-120557200D01*
X172580782Y-120254368D01*
X172046173Y-120148028D01*
X171511564Y-120254368D01*
X171058345Y-120557200D01*
X170776173Y-120979499D01*
X170494001Y-120557200D01*
X170040782Y-120254368D01*
X169506173Y-120148028D01*
X168971564Y-120254368D01*
X168518345Y-120557200D01*
X168236173Y-120979499D01*
X167954001Y-120557200D01*
X167500782Y-120254368D01*
X166966173Y-120148028D01*
X166431564Y-120254368D01*
X165978345Y-120557200D01*
X165675513Y-121010419D01*
X165569173Y-121545028D01*
X165569173Y-122635670D01*
X165675513Y-123170279D01*
X165978345Y-123623498D01*
X166357737Y-123877000D01*
X162494609Y-123877000D01*
X162874001Y-123623498D01*
X163176833Y-123170279D01*
X163283173Y-122635670D01*
X163283173Y-121545028D01*
X163176833Y-121010419D01*
X162874001Y-120557200D01*
X162420782Y-120254368D01*
X161886173Y-120148028D01*
X161351564Y-120254368D01*
X160898345Y-120557200D01*
X160616173Y-120979499D01*
X160334001Y-120557200D01*
X159880782Y-120254368D01*
X159346173Y-120148028D01*
X158811564Y-120254368D01*
X158358345Y-120557200D01*
X158076173Y-120979499D01*
X157794001Y-120557200D01*
X157340782Y-120254368D01*
X156806173Y-120148028D01*
X156271564Y-120254368D01*
X155818345Y-120557200D01*
X155526843Y-120993462D01*
X155508232Y-120930408D01*
X155164199Y-120504719D01*
X154683450Y-120243089D01*
X154609243Y-120228129D01*
X154393173Y-120350629D01*
X154393173Y-121963349D01*
X154413173Y-121963349D01*
X154413173Y-122217349D01*
X154393173Y-122217349D01*
X154393173Y-122237349D01*
X154139173Y-122237349D01*
X154139173Y-122217349D01*
X154119173Y-122217349D01*
X154119173Y-121963349D01*
X154139173Y-121963349D01*
X154139173Y-120350629D01*
X153923103Y-120228129D01*
X153848896Y-120243089D01*
X153670000Y-120340447D01*
X153670000Y-119102371D01*
X155759021Y-119102371D01*
X155916258Y-119482915D01*
X156207154Y-119774319D01*
X156587423Y-119932220D01*
X156999171Y-119932579D01*
X157379715Y-119775342D01*
X157671119Y-119484446D01*
X157787582Y-119203971D01*
X161524821Y-119203971D01*
X161682058Y-119584515D01*
X161972954Y-119875919D01*
X162353223Y-120033820D01*
X162764971Y-120034179D01*
X163145515Y-119876942D01*
X163436919Y-119586046D01*
X163594820Y-119205777D01*
X163595179Y-118794029D01*
X163437942Y-118413485D01*
X163147046Y-118122081D01*
X162766777Y-117964180D01*
X162355029Y-117963821D01*
X161974485Y-118121058D01*
X161683081Y-118411954D01*
X161525180Y-118792223D01*
X161524821Y-119203971D01*
X157787582Y-119203971D01*
X157829020Y-119104177D01*
X157829379Y-118692429D01*
X157672142Y-118311885D01*
X157381246Y-118020481D01*
X157336705Y-118001986D01*
X157557971Y-118002179D01*
X157938515Y-117844942D01*
X158229919Y-117554046D01*
X158387820Y-117173777D01*
X158388179Y-116762029D01*
X158230942Y-116381485D01*
X157940046Y-116090081D01*
X157559777Y-115932180D01*
X157148029Y-115931821D01*
X156767485Y-116089058D01*
X156476081Y-116379954D01*
X156318180Y-116760223D01*
X156317821Y-117171971D01*
X156475058Y-117552515D01*
X156765954Y-117843919D01*
X156810495Y-117862414D01*
X156589229Y-117862221D01*
X156208685Y-118019458D01*
X155917281Y-118310354D01*
X155759380Y-118690623D01*
X155759021Y-119102371D01*
X153670000Y-119102371D01*
X153670000Y-110694971D01*
X161524821Y-110694971D01*
X161682058Y-111075515D01*
X161972954Y-111366919D01*
X162353223Y-111524820D01*
X162764971Y-111525179D01*
X163145515Y-111367942D01*
X163436919Y-111077046D01*
X163594820Y-110696777D01*
X163595179Y-110285029D01*
X163437942Y-109904485D01*
X163147046Y-109613081D01*
X162812101Y-109474000D01*
X165961631Y-109474000D01*
X166067971Y-110008609D01*
X166370803Y-110461828D01*
X166793102Y-110744000D01*
X166370803Y-111026172D01*
X166067971Y-111479391D01*
X165961631Y-112014000D01*
X166067971Y-112548609D01*
X166370803Y-113001828D01*
X166793102Y-113284000D01*
X166370803Y-113566172D01*
X166067971Y-114019391D01*
X165961631Y-114554000D01*
X166067971Y-115088609D01*
X166370803Y-115541828D01*
X166824022Y-115844660D01*
X167358631Y-115951000D01*
X167413369Y-115951000D01*
X167947978Y-115844660D01*
X168401197Y-115541828D01*
X168704029Y-115088609D01*
X168810369Y-114554000D01*
X168704029Y-114019391D01*
X168401197Y-113566172D01*
X167978898Y-113284000D01*
X168401197Y-113001828D01*
X168704029Y-112548609D01*
X168810369Y-112014000D01*
X168704029Y-111479391D01*
X168401197Y-111026172D01*
X167978898Y-110744000D01*
X168401197Y-110461828D01*
X168704029Y-110008609D01*
X168810369Y-109474000D01*
X168704029Y-108939391D01*
X168401197Y-108486172D01*
X167947978Y-108183340D01*
X167413369Y-108077000D01*
X167358631Y-108077000D01*
X166824022Y-108183340D01*
X166370803Y-108486172D01*
X166067971Y-108939391D01*
X165961631Y-109474000D01*
X162812101Y-109474000D01*
X162766777Y-109455180D01*
X162355029Y-109454821D01*
X161974485Y-109612058D01*
X161683081Y-109902954D01*
X161525180Y-110283223D01*
X161524821Y-110694971D01*
X153670000Y-110694971D01*
X153670000Y-108288898D01*
X153690287Y-108258536D01*
X153820142Y-108531199D01*
X154225003Y-108896174D01*
X154596930Y-109050220D01*
X154813000Y-108927720D01*
X154813000Y-107823000D01*
X155067000Y-107823000D01*
X155067000Y-108927720D01*
X155283070Y-109050220D01*
X155654997Y-108896174D01*
X156059858Y-108531199D01*
X156294231Y-108039072D01*
X156172476Y-107823000D01*
X155067000Y-107823000D01*
X154813000Y-107823000D01*
X154793000Y-107823000D01*
X154793000Y-107569000D01*
X154813000Y-107569000D01*
X154813000Y-106464280D01*
X155067000Y-106464280D01*
X155067000Y-107569000D01*
X156172476Y-107569000D01*
X156271667Y-107392971D01*
X171938821Y-107392971D01*
X172096058Y-107773515D01*
X172386954Y-108064919D01*
X172767223Y-108222820D01*
X173178971Y-108223179D01*
X173559515Y-108065942D01*
X173850919Y-107775046D01*
X174008820Y-107394777D01*
X174009179Y-106983029D01*
X173851942Y-106602485D01*
X173561046Y-106311081D01*
X173180777Y-106153180D01*
X172769029Y-106152821D01*
X172388485Y-106310058D01*
X172097081Y-106600954D01*
X171939180Y-106981223D01*
X171938821Y-107392971D01*
X156271667Y-107392971D01*
X156294231Y-107352928D01*
X156059858Y-106860801D01*
X155654997Y-106495826D01*
X155283070Y-106341780D01*
X155067000Y-106464280D01*
X154813000Y-106464280D01*
X154596930Y-106341780D01*
X154225003Y-106495826D01*
X153820142Y-106860801D01*
X153690287Y-107133464D01*
X153670000Y-107103102D01*
X153670000Y-105208571D01*
X164242621Y-105208571D01*
X164399858Y-105589115D01*
X164690754Y-105880519D01*
X165071023Y-106038420D01*
X165482771Y-106038779D01*
X165863315Y-105881542D01*
X166154719Y-105590646D01*
X166312620Y-105210377D01*
X166312979Y-104798629D01*
X166155742Y-104418085D01*
X165955977Y-104217971D01*
X171303815Y-104217971D01*
X171461052Y-104598515D01*
X171751948Y-104889919D01*
X172132217Y-105047820D01*
X172543965Y-105048179D01*
X172924509Y-104890942D01*
X172955036Y-104860468D01*
X172954821Y-105106971D01*
X173112058Y-105487515D01*
X173402954Y-105778919D01*
X173783223Y-105936820D01*
X174194971Y-105937179D01*
X174575515Y-105779942D01*
X174866919Y-105489046D01*
X175024820Y-105108777D01*
X175025179Y-104697029D01*
X174867942Y-104316485D01*
X174577046Y-104025081D01*
X174196777Y-103867180D01*
X173785029Y-103866821D01*
X173404485Y-104024058D01*
X173373958Y-104054532D01*
X173374173Y-103808029D01*
X173216936Y-103427485D01*
X172926040Y-103136081D01*
X172545771Y-102978180D01*
X172134023Y-102977821D01*
X171753479Y-103135058D01*
X171462075Y-103425954D01*
X171304174Y-103806223D01*
X171303815Y-104217971D01*
X165955977Y-104217971D01*
X165864846Y-104126681D01*
X165484577Y-103968780D01*
X165072829Y-103968421D01*
X164692285Y-104125658D01*
X164400881Y-104416554D01*
X164242980Y-104796823D01*
X164242621Y-105208571D01*
X153670000Y-105208571D01*
X153670000Y-102820971D01*
X160000821Y-102820971D01*
X160158058Y-103201515D01*
X160448954Y-103492919D01*
X160764588Y-103623981D01*
X160636180Y-103933223D01*
X160635821Y-104344971D01*
X160793058Y-104725515D01*
X161083954Y-105016919D01*
X161464223Y-105174820D01*
X161875971Y-105175179D01*
X162256515Y-105017942D01*
X162547919Y-104727046D01*
X162705820Y-104346777D01*
X162706179Y-103935029D01*
X162548942Y-103554485D01*
X162258046Y-103263081D01*
X161942412Y-103132019D01*
X162070820Y-102822777D01*
X162071179Y-102411029D01*
X162022730Y-102293772D01*
X162293919Y-102023056D01*
X162451820Y-101642787D01*
X162451840Y-101619131D01*
X163370981Y-101619131D01*
X163528218Y-101999675D01*
X163819114Y-102291079D01*
X164199383Y-102448980D01*
X164611131Y-102449339D01*
X164991675Y-102292102D01*
X165283079Y-102001206D01*
X165336321Y-101872985D01*
X165558971Y-101873179D01*
X165939515Y-101715942D01*
X166104774Y-101550971D01*
X175113821Y-101550971D01*
X175271058Y-101931515D01*
X175561954Y-102222919D01*
X175942223Y-102380820D01*
X176353971Y-102381179D01*
X176734515Y-102223942D01*
X177025919Y-101933046D01*
X177183820Y-101552777D01*
X177184179Y-101141029D01*
X177026942Y-100760485D01*
X176736046Y-100469081D01*
X176355777Y-100311180D01*
X175944029Y-100310821D01*
X175563485Y-100468058D01*
X175272081Y-100758954D01*
X175114180Y-101139223D01*
X175113821Y-101550971D01*
X166104774Y-101550971D01*
X166230919Y-101425046D01*
X166388820Y-101044777D01*
X166389153Y-100661971D01*
X170541821Y-100661971D01*
X170699058Y-101042515D01*
X170989954Y-101333919D01*
X171370223Y-101491820D01*
X171781971Y-101492179D01*
X172162515Y-101334942D01*
X172453919Y-101044046D01*
X172611820Y-100663777D01*
X172612179Y-100252029D01*
X172454942Y-99871485D01*
X172164046Y-99580081D01*
X171783777Y-99422180D01*
X171372029Y-99421821D01*
X170991485Y-99579058D01*
X170700081Y-99869954D01*
X170542180Y-100250223D01*
X170541821Y-100661971D01*
X166389153Y-100661971D01*
X166389179Y-100633029D01*
X166231942Y-100252485D01*
X165941046Y-99961081D01*
X165560777Y-99803180D01*
X165149029Y-99802821D01*
X164768485Y-99960058D01*
X164477081Y-100250954D01*
X164423839Y-100379175D01*
X164201189Y-100378981D01*
X163820645Y-100536218D01*
X163529241Y-100827114D01*
X163371340Y-101207383D01*
X163370981Y-101619131D01*
X162451840Y-101619131D01*
X162452179Y-101231039D01*
X162294942Y-100850495D01*
X162010207Y-100565263D01*
X162293919Y-100282046D01*
X162451820Y-99901777D01*
X162452179Y-99490029D01*
X162294942Y-99109485D01*
X162004046Y-98818081D01*
X161623777Y-98660180D01*
X161212029Y-98659821D01*
X160831485Y-98817058D01*
X160540081Y-99107954D01*
X160382180Y-99488223D01*
X160381821Y-99899971D01*
X160539058Y-100280515D01*
X160823793Y-100565747D01*
X160540081Y-100848964D01*
X160382180Y-101229233D01*
X160381821Y-101640981D01*
X160430270Y-101758238D01*
X160159081Y-102028954D01*
X160001180Y-102409223D01*
X160000821Y-102820971D01*
X153670000Y-102820971D01*
X153670000Y-100026971D01*
X156571821Y-100026971D01*
X156729058Y-100407515D01*
X157019954Y-100698919D01*
X157400223Y-100856820D01*
X157811971Y-100857179D01*
X158192515Y-100699942D01*
X158483919Y-100409046D01*
X158641820Y-100028777D01*
X158642179Y-99617029D01*
X158484942Y-99236485D01*
X158194046Y-98945081D01*
X157813777Y-98787180D01*
X157402029Y-98786821D01*
X157021485Y-98944058D01*
X156730081Y-99234954D01*
X156572180Y-99615223D01*
X156571821Y-100026971D01*
X153670000Y-100026971D01*
X153670000Y-99822000D01*
X155575000Y-99822000D01*
X155623601Y-99812333D01*
X155664803Y-99784803D01*
X155692333Y-99743601D01*
X155702000Y-99695000D01*
X155702000Y-97459752D01*
X155713058Y-97486515D01*
X156003954Y-97777919D01*
X156384223Y-97935820D01*
X156795971Y-97936179D01*
X157176515Y-97778942D01*
X157467919Y-97488046D01*
X157475100Y-97470751D01*
X157654954Y-97650919D01*
X158035223Y-97808820D01*
X158446971Y-97809179D01*
X158827515Y-97651942D01*
X159107273Y-97372671D01*
X162814821Y-97372671D01*
X162972058Y-97753215D01*
X163262954Y-98044619D01*
X163643223Y-98202520D01*
X164054971Y-98202879D01*
X164250784Y-98121971D01*
X171176821Y-98121971D01*
X171334058Y-98502515D01*
X171624954Y-98793919D01*
X172005223Y-98951820D01*
X172416971Y-98952179D01*
X172797515Y-98794942D01*
X173088919Y-98504046D01*
X173246820Y-98123777D01*
X173247179Y-97712029D01*
X173089942Y-97331485D01*
X172799046Y-97040081D01*
X172418777Y-96882180D01*
X172007029Y-96881821D01*
X171626485Y-97039058D01*
X171335081Y-97329954D01*
X171177180Y-97710223D01*
X171176821Y-98121971D01*
X164250784Y-98121971D01*
X164435515Y-98045642D01*
X164726919Y-97754746D01*
X164884820Y-97374477D01*
X164885072Y-97084469D01*
X165947109Y-97084469D01*
X166104346Y-97465013D01*
X166395242Y-97756417D01*
X166775511Y-97914318D01*
X167187259Y-97914677D01*
X167567803Y-97757440D01*
X167859207Y-97466544D01*
X168017108Y-97086275D01*
X168017467Y-96674527D01*
X167860230Y-96293983D01*
X167569334Y-96002579D01*
X167189065Y-95844678D01*
X166777317Y-95844319D01*
X166396773Y-96001556D01*
X166105369Y-96292452D01*
X165947468Y-96672721D01*
X165947109Y-97084469D01*
X164885072Y-97084469D01*
X164885179Y-96962729D01*
X164727942Y-96582185D01*
X164437046Y-96290781D01*
X164056777Y-96132880D01*
X163645029Y-96132521D01*
X163264485Y-96289758D01*
X162973081Y-96580654D01*
X162815180Y-96960923D01*
X162814821Y-97372671D01*
X159107273Y-97372671D01*
X159118919Y-97361046D01*
X159276820Y-96980777D01*
X159277179Y-96569029D01*
X159119942Y-96188485D01*
X158829046Y-95897081D01*
X158448777Y-95739180D01*
X158037029Y-95738821D01*
X157656485Y-95896058D01*
X157365081Y-96186954D01*
X157357900Y-96204249D01*
X157178046Y-96024081D01*
X156797777Y-95866180D01*
X156386029Y-95865821D01*
X156005485Y-96023058D01*
X155714081Y-96313954D01*
X155702000Y-96343048D01*
X155702000Y-95327971D01*
X158857801Y-95327971D01*
X159015038Y-95708515D01*
X159305934Y-95999919D01*
X159686203Y-96157820D01*
X160097951Y-96158179D01*
X160478495Y-96000942D01*
X160769899Y-95710046D01*
X160774103Y-95699920D01*
X160986913Y-95700106D01*
X161367457Y-95542869D01*
X161658861Y-95251973D01*
X161816762Y-94871704D01*
X161817121Y-94459956D01*
X161659884Y-94079412D01*
X161627640Y-94047111D01*
X162339811Y-94047111D01*
X162497048Y-94427655D01*
X162787944Y-94719059D01*
X163168213Y-94876960D01*
X163579961Y-94877319D01*
X163718730Y-94819981D01*
X165715821Y-94819981D01*
X165873058Y-95200525D01*
X166163954Y-95491929D01*
X166544223Y-95649830D01*
X166955971Y-95650189D01*
X167336515Y-95492952D01*
X167627919Y-95202056D01*
X167733839Y-94946971D01*
X172827821Y-94946971D01*
X172985058Y-95327515D01*
X173275954Y-95618919D01*
X173656223Y-95776820D01*
X174067971Y-95777179D01*
X174448515Y-95619942D01*
X174739919Y-95329046D01*
X174897820Y-94948777D01*
X174898179Y-94537029D01*
X174852721Y-94427010D01*
X178268931Y-94427010D01*
X178481163Y-94940652D01*
X178873803Y-95333978D01*
X179081685Y-95420298D01*
X178875870Y-95505339D01*
X178482544Y-95897979D01*
X178269416Y-96411249D01*
X178268931Y-96967010D01*
X178481163Y-97480652D01*
X178873803Y-97873978D01*
X179081685Y-97960298D01*
X178875870Y-98045339D01*
X178482544Y-98437979D01*
X178269416Y-98951249D01*
X178268931Y-99507010D01*
X178481163Y-100020652D01*
X178873803Y-100413978D01*
X179387073Y-100627106D01*
X179942834Y-100627591D01*
X180456476Y-100415359D01*
X180849802Y-100022719D01*
X180936122Y-99814837D01*
X181021163Y-100020652D01*
X181413803Y-100413978D01*
X181927073Y-100627106D01*
X182482834Y-100627591D01*
X182996476Y-100415359D01*
X183389802Y-100022719D01*
X183602930Y-99509449D01*
X183603415Y-98953688D01*
X183391183Y-98440046D01*
X182998543Y-98046720D01*
X182790661Y-97960400D01*
X182996476Y-97875359D01*
X183389802Y-97482719D01*
X183602930Y-96969449D01*
X183603415Y-96413688D01*
X183391183Y-95900046D01*
X182998543Y-95506720D01*
X182790661Y-95420400D01*
X182996476Y-95335359D01*
X183389802Y-94942719D01*
X183602930Y-94429449D01*
X183603415Y-93873688D01*
X183391183Y-93360046D01*
X182998543Y-92966720D01*
X182485273Y-92753592D01*
X181929512Y-92753107D01*
X181415870Y-92965339D01*
X181022544Y-93357979D01*
X180936224Y-93565861D01*
X180851183Y-93360046D01*
X180458543Y-92966720D01*
X179945273Y-92753592D01*
X179389512Y-92753107D01*
X178875870Y-92965339D01*
X178482544Y-93357979D01*
X178269416Y-93871249D01*
X178268931Y-94427010D01*
X174852721Y-94427010D01*
X174740942Y-94156485D01*
X174450046Y-93865081D01*
X174069777Y-93707180D01*
X173658029Y-93706821D01*
X173277485Y-93864058D01*
X172986081Y-94154954D01*
X172828180Y-94535223D01*
X172827821Y-94946971D01*
X167733839Y-94946971D01*
X167785820Y-94821787D01*
X167786179Y-94410039D01*
X167628942Y-94029495D01*
X167338046Y-93738091D01*
X166957777Y-93580190D01*
X166546029Y-93579831D01*
X166165485Y-93737068D01*
X165874081Y-94027964D01*
X165716180Y-94408233D01*
X165715821Y-94819981D01*
X163718730Y-94819981D01*
X163960505Y-94720082D01*
X164251909Y-94429186D01*
X164409810Y-94048917D01*
X164410169Y-93637169D01*
X164269190Y-93295971D01*
X171176821Y-93295971D01*
X171334058Y-93676515D01*
X171624954Y-93967919D01*
X172005223Y-94125820D01*
X172416971Y-94126179D01*
X172797515Y-93968942D01*
X173088919Y-93678046D01*
X173246820Y-93297777D01*
X173247179Y-92886029D01*
X173089942Y-92505485D01*
X172799046Y-92214081D01*
X172418777Y-92056180D01*
X172007029Y-92055821D01*
X171626485Y-92213058D01*
X171335081Y-92503954D01*
X171177180Y-92884223D01*
X171176821Y-93295971D01*
X164269190Y-93295971D01*
X164252932Y-93256625D01*
X163962036Y-92965221D01*
X163581767Y-92807320D01*
X163170019Y-92806961D01*
X162789475Y-92964198D01*
X162498071Y-93255094D01*
X162340170Y-93635363D01*
X162339811Y-94047111D01*
X161627640Y-94047111D01*
X161368988Y-93788008D01*
X160988719Y-93630107D01*
X160576971Y-93629748D01*
X160196427Y-93786985D01*
X159905023Y-94077881D01*
X159900819Y-94088007D01*
X159688009Y-94087821D01*
X159307465Y-94245058D01*
X159016061Y-94535954D01*
X158858160Y-94916223D01*
X158857801Y-95327971D01*
X155702000Y-95327971D01*
X155702000Y-93521952D01*
X155847820Y-93170777D01*
X155848179Y-92759029D01*
X155690942Y-92378485D01*
X155457419Y-92144554D01*
X155652515Y-92063942D01*
X155943919Y-91773046D01*
X156101820Y-91392777D01*
X156102179Y-90981029D01*
X155959919Y-90636732D01*
X158723060Y-90636732D01*
X158880297Y-91017276D01*
X159171193Y-91308680D01*
X159551462Y-91466581D01*
X159963210Y-91466940D01*
X160343754Y-91309703D01*
X160381925Y-91271598D01*
X160381821Y-91390971D01*
X160539058Y-91771515D01*
X160829954Y-92062919D01*
X161210223Y-92220820D01*
X161621971Y-92221179D01*
X162002515Y-92063942D01*
X162293919Y-91773046D01*
X162451820Y-91392777D01*
X162452179Y-90981029D01*
X162294942Y-90600485D01*
X162004046Y-90309081D01*
X161623777Y-90151180D01*
X161451774Y-90151030D01*
X161481885Y-90120971D01*
X162947221Y-90120971D01*
X163104458Y-90501515D01*
X163395354Y-90792919D01*
X163775623Y-90950820D01*
X164187371Y-90951179D01*
X164567915Y-90793942D01*
X164859319Y-90503046D01*
X164912500Y-90374971D01*
X165969821Y-90374971D01*
X166127058Y-90755515D01*
X166417954Y-91046919D01*
X166798223Y-91204820D01*
X167209971Y-91205179D01*
X167590515Y-91047942D01*
X167881919Y-90757046D01*
X168039820Y-90376777D01*
X168040179Y-89965029D01*
X167882942Y-89584485D01*
X167592046Y-89293081D01*
X167211777Y-89135180D01*
X166800029Y-89134821D01*
X166419485Y-89292058D01*
X166128081Y-89582954D01*
X165970180Y-89963223D01*
X165969821Y-90374971D01*
X164912500Y-90374971D01*
X165017220Y-90122777D01*
X165017579Y-89711029D01*
X164860342Y-89330485D01*
X164569446Y-89039081D01*
X164189177Y-88881180D01*
X163777429Y-88880821D01*
X163396885Y-89038058D01*
X163105481Y-89328954D01*
X162947580Y-89709223D01*
X162947221Y-90120971D01*
X161481885Y-90120971D01*
X161658919Y-89944246D01*
X161816820Y-89563977D01*
X161817179Y-89152229D01*
X161659942Y-88771685D01*
X161369046Y-88480281D01*
X160988777Y-88322380D01*
X160577029Y-88322021D01*
X160196485Y-88479258D01*
X159905081Y-88770154D01*
X159747180Y-89150423D01*
X159746965Y-89396751D01*
X159553268Y-89396582D01*
X159172724Y-89553819D01*
X158881320Y-89844715D01*
X158723419Y-90224984D01*
X158723060Y-90636732D01*
X155959919Y-90636732D01*
X155944942Y-90600485D01*
X155654046Y-90309081D01*
X155273777Y-90151180D01*
X154862029Y-90150821D01*
X154481485Y-90308058D01*
X154190081Y-90598954D01*
X154032180Y-90979223D01*
X154031821Y-91390971D01*
X154189058Y-91771515D01*
X154422581Y-92005446D01*
X154227485Y-92086058D01*
X153936081Y-92376954D01*
X153797789Y-92710000D01*
X149860000Y-92710000D01*
X149860000Y-92075000D01*
X151765000Y-92075000D01*
X152008004Y-92026664D01*
X152214013Y-91889013D01*
X152351664Y-91683004D01*
X152400000Y-91440000D01*
X152400000Y-86941477D01*
X152574223Y-87013820D01*
X152985971Y-87014179D01*
X153366515Y-86856942D01*
X153657919Y-86566046D01*
X153711100Y-86437971D01*
X174859821Y-86437971D01*
X175017058Y-86818515D01*
X175307954Y-87109919D01*
X175688223Y-87267820D01*
X176099971Y-87268179D01*
X176480515Y-87110942D01*
X176771919Y-86820046D01*
X176929820Y-86439777D01*
X176930179Y-86028029D01*
X176772942Y-85647485D01*
X176482046Y-85356081D01*
X176101777Y-85198180D01*
X175690029Y-85197821D01*
X175309485Y-85355058D01*
X175018081Y-85645954D01*
X174860180Y-86026223D01*
X174859821Y-86437971D01*
X153711100Y-86437971D01*
X153815820Y-86185777D01*
X153816179Y-85774029D01*
X153658942Y-85393485D01*
X153560600Y-85294971D01*
X161143821Y-85294971D01*
X161301058Y-85675515D01*
X161591954Y-85966919D01*
X161972223Y-86124820D01*
X162383971Y-86125179D01*
X162764515Y-85967942D01*
X163055919Y-85677046D01*
X163213820Y-85296777D01*
X163214179Y-84885029D01*
X163056942Y-84504485D01*
X162766046Y-84213081D01*
X162385777Y-84055180D01*
X161974029Y-84054821D01*
X161593485Y-84212058D01*
X161302081Y-84502954D01*
X161144180Y-84883223D01*
X161143821Y-85294971D01*
X153560600Y-85294971D01*
X153368046Y-85102081D01*
X152987777Y-84944180D01*
X152576029Y-84943821D01*
X152400000Y-85016554D01*
X152400000Y-82627971D01*
X159619821Y-82627971D01*
X159777058Y-83008515D01*
X160067954Y-83299919D01*
X160448223Y-83457820D01*
X160859971Y-83458179D01*
X161240515Y-83300942D01*
X161531919Y-83010046D01*
X161689820Y-82629777D01*
X161689932Y-82500971D01*
X162286821Y-82500971D01*
X162444058Y-82881515D01*
X162734954Y-83172919D01*
X163115223Y-83330820D01*
X163526971Y-83331179D01*
X163907515Y-83173942D01*
X164198919Y-82883046D01*
X164356820Y-82502777D01*
X164357179Y-82091029D01*
X164199942Y-81710485D01*
X163909046Y-81419081D01*
X163761877Y-81357971D01*
X165461821Y-81357971D01*
X165619058Y-81738515D01*
X165909954Y-82029919D01*
X166290223Y-82187820D01*
X166701971Y-82188179D01*
X167082515Y-82030942D01*
X167373919Y-81740046D01*
X167531820Y-81359777D01*
X167532179Y-80948029D01*
X167374942Y-80567485D01*
X167084046Y-80276081D01*
X166703777Y-80118180D01*
X166292029Y-80117821D01*
X165911485Y-80275058D01*
X165620081Y-80565954D01*
X165462180Y-80946223D01*
X165461821Y-81357971D01*
X163761877Y-81357971D01*
X163528777Y-81261180D01*
X163117029Y-81260821D01*
X162736485Y-81418058D01*
X162445081Y-81708954D01*
X162287180Y-82089223D01*
X162286821Y-82500971D01*
X161689932Y-82500971D01*
X161690179Y-82218029D01*
X161532942Y-81837485D01*
X161242046Y-81546081D01*
X160861777Y-81388180D01*
X160450029Y-81387821D01*
X160069485Y-81545058D01*
X159778081Y-81835954D01*
X159620180Y-82216223D01*
X159619821Y-82627971D01*
X152400000Y-82627971D01*
X152400000Y-81226477D01*
X152574223Y-81298820D01*
X152985971Y-81299179D01*
X153366515Y-81141942D01*
X153657919Y-80851046D01*
X153815820Y-80470777D01*
X153816179Y-80059029D01*
X153795921Y-80010000D01*
X166370000Y-80010000D01*
X166613004Y-79961664D01*
X166819013Y-79824013D01*
X166956664Y-79618004D01*
X167005000Y-79375000D01*
X167005000Y-78817971D01*
X168509821Y-78817971D01*
X168667058Y-79198515D01*
X168957954Y-79489919D01*
X169338223Y-79647820D01*
X169749971Y-79648179D01*
X170130515Y-79490942D01*
X170421919Y-79200046D01*
X170579820Y-78819777D01*
X170580179Y-78408029D01*
X170422942Y-78027485D01*
X170132046Y-77736081D01*
X169751777Y-77578180D01*
X169340029Y-77577821D01*
X168959485Y-77735058D01*
X168668081Y-78025954D01*
X168510180Y-78406223D01*
X168509821Y-78817971D01*
X167005000Y-78817971D01*
X167005000Y-75764947D01*
X167500782Y-75666330D01*
X167954001Y-75363498D01*
X168236173Y-74941199D01*
X168518345Y-75363498D01*
X168971564Y-75666330D01*
X169506173Y-75772670D01*
X170040782Y-75666330D01*
X170494001Y-75363498D01*
X170776173Y-74941199D01*
X171058345Y-75363498D01*
X171145581Y-75421788D01*
X170954081Y-75612954D01*
X170796180Y-75993223D01*
X170795821Y-76404971D01*
X170953058Y-76785515D01*
X171243954Y-77076919D01*
X171516986Y-77190291D01*
X171097172Y-77470803D01*
X170794340Y-77924022D01*
X170688000Y-78458631D01*
X170688000Y-78513369D01*
X170794340Y-79047978D01*
X171097172Y-79501197D01*
X171550391Y-79804029D01*
X171947406Y-79883000D01*
X171550391Y-79961971D01*
X171097172Y-80264803D01*
X170794340Y-80718022D01*
X170688000Y-81252631D01*
X170688000Y-81307369D01*
X170794340Y-81841978D01*
X171097172Y-82295197D01*
X171550391Y-82598029D01*
X171947406Y-82677000D01*
X171550391Y-82755971D01*
X171097172Y-83058803D01*
X170794340Y-83512022D01*
X170688000Y-84046631D01*
X170688000Y-84101369D01*
X170794340Y-84635978D01*
X171097172Y-85089197D01*
X171550391Y-85392029D01*
X172085000Y-85498369D01*
X172619609Y-85392029D01*
X173072828Y-85089197D01*
X173355000Y-84666898D01*
X173637172Y-85089197D01*
X174090391Y-85392029D01*
X174625000Y-85498369D01*
X175159609Y-85392029D01*
X175612828Y-85089197D01*
X175895000Y-84666898D01*
X176177172Y-85089197D01*
X176630391Y-85392029D01*
X177165000Y-85498369D01*
X177699609Y-85392029D01*
X178152828Y-85089197D01*
X178455660Y-84635978D01*
X178562000Y-84101369D01*
X178562000Y-84046631D01*
X178455660Y-83512022D01*
X178152828Y-83058803D01*
X177699609Y-82755971D01*
X177302594Y-82677000D01*
X177699609Y-82598029D01*
X178152828Y-82295197D01*
X178455660Y-81841978D01*
X178562000Y-81307369D01*
X178562000Y-81252631D01*
X178455660Y-80718022D01*
X178152828Y-80264803D01*
X177699609Y-79961971D01*
X177302594Y-79883000D01*
X177699609Y-79804029D01*
X178152828Y-79501197D01*
X178455660Y-79047978D01*
X178562000Y-78513369D01*
X178562000Y-78458631D01*
X178455660Y-77924022D01*
X178152828Y-77470803D01*
X177699609Y-77167971D01*
X177165000Y-77061631D01*
X176630391Y-77167971D01*
X176177172Y-77470803D01*
X175895000Y-77893102D01*
X175612828Y-77470803D01*
X175440921Y-77355938D01*
X175501919Y-77295046D01*
X175659820Y-76914777D01*
X175660179Y-76503029D01*
X175502942Y-76122485D01*
X175212046Y-75831081D01*
X174914227Y-75707416D01*
X175120782Y-75666330D01*
X175574001Y-75363498D01*
X175856173Y-74941199D01*
X176138345Y-75363498D01*
X176591564Y-75666330D01*
X177126173Y-75772670D01*
X177660782Y-75666330D01*
X178114001Y-75363498D01*
X178396173Y-74941199D01*
X178678345Y-75363498D01*
X179131564Y-75666330D01*
X179666173Y-75772670D01*
X180200782Y-75666330D01*
X180654001Y-75363498D01*
X180956833Y-74910279D01*
X181063173Y-74375670D01*
X181063173Y-73285028D01*
X180956833Y-72750419D01*
X180654001Y-72297200D01*
X180200782Y-71994368D01*
X180012920Y-71957000D01*
X180553908Y-71957000D01*
X181535000Y-72938092D01*
M02*
