G04 #@! TF.GenerationSoftware,KiCad,Pcbnew,no-vcs-found-2a3a699~58~ubuntu16.04.1*
G04 #@! TF.CreationDate,2017-05-21T17:49:45+03:00*
G04 #@! TF.ProjectId,interferometer,696E7465726665726F6D657465722E6B,rev?*
G04 #@! TF.FileFunction,Soldermask,Bot*
G04 #@! TF.FilePolarity,Negative*
%FSLAX46Y46*%
G04 Gerber Fmt 4.6, Leading zero omitted, Abs format (unit mm)*
G04 Created by KiCad (PCBNEW no-vcs-found-2a3a699~58~ubuntu16.04.1) date Sun May 21 17:49:45 2017*
%MOMM*%
%LPD*%
G01*
G04 APERTURE LIST*
%ADD10C,0.100000*%
%ADD11R,1.640000X1.390000*%
%ADD12R,1.640000X1.440000*%
%ADD13O,1.664000X1.664000*%
%ADD14C,1.040000*%
%ADD15C,1.664000*%
%ADD16O,1.664000X2.680000*%
%ADD17C,3.315000*%
G04 APERTURE END LIST*
D10*
D11*
X162834000Y-107315000D03*
X165334000Y-107315000D03*
D12*
X171276000Y-107188000D03*
X168576000Y-107188000D03*
D13*
X167386000Y-114554000D03*
X167386000Y-112014000D03*
X167386000Y-109474000D03*
D14*
X153638000Y-96520000D03*
X151638000Y-96520000D03*
X152638000Y-95520000D03*
D11*
X156611000Y-98552000D03*
X159111000Y-98552000D03*
D13*
X172085000Y-81280000D03*
X174625000Y-81280000D03*
X177165000Y-81280000D03*
X172085000Y-78486000D03*
X174625000Y-78486000D03*
X177165000Y-78486000D03*
X149860000Y-107696000D03*
X152400000Y-107696000D03*
X154940000Y-107696000D03*
X172085000Y-84074000D03*
X174625000Y-84074000D03*
X177165000Y-84074000D03*
D15*
X182206173Y-99230349D03*
X179666173Y-99230349D03*
X182206173Y-96690349D03*
X179666173Y-96690349D03*
X182206173Y-94150349D03*
X179666173Y-94150349D03*
D16*
X144106173Y-122090349D03*
X146646173Y-122090349D03*
X134962173Y-73830349D03*
X137502173Y-73830349D03*
D17*
X130136173Y-122090349D03*
X131406173Y-73830349D03*
X182206173Y-89070349D03*
X182206173Y-117010349D03*
D16*
X154266173Y-122090349D03*
X140042173Y-73830349D03*
X142582173Y-73830349D03*
X145122173Y-73830349D03*
X147662173Y-73830349D03*
X150202173Y-73830349D03*
X152742173Y-73830349D03*
X155282173Y-73830349D03*
X157822173Y-73830349D03*
X161886173Y-73830349D03*
X164426173Y-73830349D03*
X166966173Y-73830349D03*
X169506173Y-73830349D03*
X172046173Y-73830349D03*
X174586173Y-73830349D03*
X177126173Y-73830349D03*
X179666173Y-73830349D03*
X149186173Y-122090349D03*
X151726173Y-122090349D03*
X156806173Y-122090349D03*
X159346173Y-122090349D03*
X161886173Y-122090349D03*
X172046173Y-122090349D03*
X169506173Y-122090349D03*
X166966173Y-122090349D03*
X174586173Y-122090349D03*
X177126173Y-122090349D03*
X179666173Y-122090349D03*
M02*
