G04 #@! TF.GenerationSoftware,KiCad,Pcbnew,no-vcs-found-2a3a699~58~ubuntu16.04.1*
G04 #@! TF.CreationDate,2017-05-21T17:49:45+03:00*
G04 #@! TF.ProjectId,interferometer,696E7465726665726F6D657465722E6B,rev?*
G04 #@! TF.FileFunction,Copper,L1,Top,Signal*
G04 #@! TF.FilePolarity,Positive*
%FSLAX46Y46*%
G04 Gerber Fmt 4.6, Leading zero omitted, Abs format (unit mm)*
G04 Created by KiCad (PCBNEW no-vcs-found-2a3a699~58~ubuntu16.04.1) date Sun May 21 17:49:45 2017*
%MOMM*%
%LPD*%
G01*
G04 APERTURE LIST*
%ADD10C,0.100000*%
%ADD11R,0.970000X1.270000*%
%ADD12R,1.473200X0.355600*%
%ADD13R,1.500000X1.250000*%
%ADD14R,1.060000X0.650000*%
%ADD15R,0.700000X1.300000*%
%ADD16C,1.500000*%
%ADD17R,1.200000X1.200000*%
%ADD18R,1.300000X1.500000*%
%ADD19O,1.524000X1.524000*%
%ADD20C,0.900000*%
%ADD21R,2.100000X2.100000*%
%ADD22R,0.812800X0.304800*%
%ADD23R,0.304800X0.812800*%
%ADD24R,1.250000X1.500000*%
%ADD25R,2.500000X2.000000*%
%ADD26R,1.500000X1.300000*%
%ADD27R,0.650000X1.060000*%
%ADD28C,1.524000*%
%ADD29O,1.524000X2.540000*%
%ADD30C,0.800000*%
%ADD31C,0.508000*%
%ADD32C,0.250000*%
%ADD33C,1.270000*%
%ADD34C,0.762000*%
%ADD35C,0.200660*%
G04 APERTURE END LIST*
D10*
D11*
X162915600Y-89916000D03*
X161635600Y-89916000D03*
D12*
X163098599Y-88198599D03*
X163098599Y-87548601D03*
X163098599Y-86898599D03*
X163098599Y-86248601D03*
X168737399Y-86248601D03*
X168737399Y-86898599D03*
X168737399Y-87548601D03*
X168737399Y-88198599D03*
D13*
X171049000Y-94742000D03*
X168549000Y-94742000D03*
X140482000Y-94488000D03*
X142982000Y-94488000D03*
D14*
X147150000Y-95631000D03*
X147150000Y-94681000D03*
X147150000Y-96581000D03*
X144950000Y-96581000D03*
X144950000Y-95631000D03*
X144950000Y-94681000D03*
D15*
X143378000Y-96647000D03*
X141478000Y-96647000D03*
D16*
X159004000Y-107569000D03*
X167386000Y-117729000D03*
X164973000Y-84201000D03*
X145923000Y-107569000D03*
D17*
X159131000Y-113368000D03*
X159131000Y-111168000D03*
X145846800Y-112453600D03*
X145846800Y-110253600D03*
D18*
X159207200Y-118901200D03*
X159207200Y-116201200D03*
X145846800Y-118469400D03*
X145846800Y-115769400D03*
D19*
X167386000Y-114554000D03*
X167386000Y-112014000D03*
X167386000Y-109474000D03*
D20*
X153638000Y-96520000D03*
X151638000Y-96520000D03*
X152638000Y-95520000D03*
D21*
X163850000Y-97167700D03*
D22*
X161957700Y-98417700D03*
X161957700Y-97917701D03*
X161957700Y-97417700D03*
X161957700Y-96917700D03*
X161957700Y-96417699D03*
X161957700Y-95917700D03*
D23*
X162600000Y-95275400D03*
X163099999Y-95275400D03*
X163600000Y-95275400D03*
X164100000Y-95275400D03*
X164600001Y-95275400D03*
X165100000Y-95275400D03*
D22*
X165742300Y-95917700D03*
X165742300Y-96417699D03*
X165742300Y-96917700D03*
X165742300Y-97417700D03*
X165742300Y-97917701D03*
X165742300Y-98417700D03*
D23*
X165100000Y-99060000D03*
X164600001Y-99060000D03*
X164100000Y-99060000D03*
X163600000Y-99060000D03*
X163099999Y-99060000D03*
X162600000Y-99060000D03*
D13*
X148062000Y-100965000D03*
X145562000Y-100965000D03*
D24*
X160655000Y-85110000D03*
X160655000Y-87610000D03*
X157480000Y-92603000D03*
X157480000Y-95103000D03*
D13*
X168128000Y-93091000D03*
X165628000Y-93091000D03*
X170668000Y-97917000D03*
X168168000Y-97917000D03*
X160167000Y-92456000D03*
X162667000Y-92456000D03*
X142982000Y-92329000D03*
X140482000Y-92329000D03*
D25*
X162560000Y-117062000D03*
X162560000Y-113062000D03*
X150495000Y-117062000D03*
X150495000Y-113062000D03*
X154813000Y-116935000D03*
X154813000Y-112935000D03*
D15*
X147762000Y-98679000D03*
X145862000Y-98679000D03*
X165288000Y-103251000D03*
X163388000Y-103251000D03*
X144846000Y-92329000D03*
X146746000Y-92329000D03*
D18*
X150368000Y-92917000D03*
X150368000Y-90217000D03*
D26*
X162005000Y-77470000D03*
X159305000Y-77470000D03*
X152701000Y-77597000D03*
X155401000Y-77597000D03*
X167593000Y-77470000D03*
X164893000Y-77470000D03*
D27*
X158158000Y-101201000D03*
X157208000Y-101201000D03*
X159108000Y-101201000D03*
X159108000Y-103401000D03*
X158158000Y-103401000D03*
X157208000Y-103401000D03*
D19*
X172085000Y-81280000D03*
X174625000Y-81280000D03*
X177165000Y-81280000D03*
X172085000Y-78486000D03*
X174625000Y-78486000D03*
X177165000Y-78486000D03*
X149860000Y-107696000D03*
X152400000Y-107696000D03*
X154940000Y-107696000D03*
X172085000Y-84074000D03*
X174625000Y-84074000D03*
X177165000Y-84074000D03*
D28*
X182206173Y-99230349D03*
X179666173Y-99230349D03*
X182206173Y-96690349D03*
X179666173Y-96690349D03*
X182206173Y-94150349D03*
X179666173Y-94150349D03*
D29*
X144106173Y-122090349D03*
X146646173Y-122090349D03*
X134962173Y-73830349D03*
X137502173Y-73830349D03*
X154266173Y-122090349D03*
X140042173Y-73830349D03*
X142582173Y-73830349D03*
X145122173Y-73830349D03*
X147662173Y-73830349D03*
X150202173Y-73830349D03*
X152742173Y-73830349D03*
X155282173Y-73830349D03*
X157822173Y-73830349D03*
X161886173Y-73830349D03*
X164426173Y-73830349D03*
X166966173Y-73830349D03*
X169506173Y-73830349D03*
X172046173Y-73830349D03*
X174586173Y-73830349D03*
X177126173Y-73830349D03*
X179666173Y-73830349D03*
X149186173Y-122090349D03*
X151726173Y-122090349D03*
X156806173Y-122090349D03*
X159346173Y-122090349D03*
X161886173Y-122090349D03*
X172046173Y-122090349D03*
X169506173Y-122090349D03*
X166966173Y-122090349D03*
X174586173Y-122090349D03*
X177126173Y-122090349D03*
X179666173Y-122090349D03*
D30*
X160782000Y-89357200D03*
X173863000Y-94742000D03*
X172974000Y-107188000D03*
X157607000Y-99822000D03*
X156591000Y-96901000D03*
X161417000Y-91186000D03*
X156794200Y-118897400D03*
X143510000Y-118440200D03*
X148082000Y-117094000D03*
X157353000Y-116967000D03*
X162560000Y-118999000D03*
X162179000Y-85090000D03*
X138557000Y-94488000D03*
X138684000Y-92329000D03*
X155067000Y-91186000D03*
X172212000Y-93091000D03*
X172212000Y-97917000D03*
X147243800Y-110236000D03*
X144780000Y-108712000D03*
X148717000Y-90170000D03*
X164973000Y-78740000D03*
X159258004Y-78740000D03*
X155447998Y-78867000D03*
X147955000Y-92329000D03*
X150495000Y-109855000D03*
X171831000Y-76200000D03*
X169545000Y-78613000D03*
X166497000Y-81153000D03*
X158242000Y-96774000D03*
X163322000Y-82296000D03*
X171577000Y-100457000D03*
X154813000Y-92964000D03*
X152781000Y-80264000D03*
X152781000Y-85979000D03*
X160781942Y-94664927D03*
X160655000Y-82423000D03*
X159758239Y-90431761D03*
X159892980Y-95123000D03*
X170727659Y-87590341D03*
X156083000Y-93599000D03*
X159111000Y-98552000D03*
X164338000Y-91313000D03*
X159512000Y-87630000D03*
X158115000Y-110109004D03*
X154813000Y-109855000D03*
X160274000Y-108839000D03*
X161417000Y-101436010D03*
X161417000Y-99695000D03*
X161671000Y-104140000D03*
X175895000Y-86233000D03*
X176149000Y-101346000D03*
X172338994Y-104013000D03*
X165354000Y-100838000D03*
X174625000Y-76708000D03*
X173990000Y-104902000D03*
X164406160Y-101414160D03*
X163982400Y-89916000D03*
X163850000Y-97167700D03*
X166751000Y-94615010D03*
X163374990Y-93842140D03*
X165277800Y-105003600D03*
X167005000Y-90170000D03*
X141478000Y-98679000D03*
X162560000Y-110490000D03*
X166982288Y-96879498D03*
X161036000Y-102616000D03*
X145415000Y-102870000D03*
D31*
X166966173Y-119380000D02*
X166966173Y-122090349D01*
X167386000Y-117729000D02*
X166636001Y-118478999D01*
X166636001Y-118478999D02*
X166636001Y-119049828D01*
X166636001Y-119049828D02*
X166966173Y-119380000D01*
X167386000Y-114554000D02*
X167386000Y-117729000D01*
X161635600Y-89916000D02*
X161340800Y-89916000D01*
X161340800Y-89916000D02*
X160782000Y-89357200D01*
X171049000Y-94742000D02*
X173863000Y-94742000D01*
D32*
X161170300Y-98417700D02*
X159766000Y-99822000D01*
X159766000Y-99822000D02*
X157607000Y-99822000D01*
X161957700Y-98417700D02*
X161170300Y-98417700D01*
D31*
X160167000Y-92456000D02*
X160167000Y-92436000D01*
X160167000Y-92436000D02*
X161417000Y-91186000D01*
X159207200Y-118901200D02*
X156798000Y-118901200D01*
X156798000Y-118901200D02*
X156794200Y-118897400D01*
X145846800Y-118469400D02*
X143539200Y-118469400D01*
X143539200Y-118469400D02*
X143510000Y-118440200D01*
D33*
X150495000Y-117062000D02*
X148114000Y-117062000D01*
X148114000Y-117062000D02*
X148082000Y-117094000D01*
X154813000Y-116935000D02*
X157321000Y-116935000D01*
X157321000Y-116935000D02*
X157353000Y-116967000D01*
X162560000Y-117062000D02*
X162560000Y-118999000D01*
D31*
X160655000Y-85110000D02*
X162159000Y-85110000D01*
X162159000Y-85110000D02*
X162179000Y-85090000D01*
X140482000Y-94488000D02*
X138557000Y-94488000D01*
X140482000Y-92329000D02*
X138684000Y-92329000D01*
X157480000Y-92603000D02*
X156484000Y-92603000D01*
X156484000Y-92603000D02*
X155067000Y-91186000D01*
X168128000Y-93091000D02*
X172212000Y-93091000D01*
X170668000Y-97917000D02*
X172212000Y-97917000D01*
X145846800Y-110253600D02*
X147226200Y-110253600D01*
X147226200Y-110253600D02*
X147243800Y-110236000D01*
X145923000Y-107569000D02*
X144780000Y-108712000D01*
X150368000Y-90217000D02*
X148764000Y-90217000D01*
X148764000Y-90217000D02*
X148717000Y-90170000D01*
X164893000Y-77470000D02*
X164893000Y-78660000D01*
X164893000Y-78660000D02*
X164973000Y-78740000D01*
X159305000Y-78693004D02*
X159258004Y-78740000D01*
X159305000Y-77470000D02*
X159305000Y-78693004D01*
X155401000Y-78820002D02*
X155447998Y-78867000D01*
X155401000Y-77597000D02*
X155401000Y-78820002D01*
X147150000Y-94191000D02*
X146746000Y-93787000D01*
X146746000Y-93787000D02*
X146746000Y-92329000D01*
X147150000Y-94681000D02*
X147150000Y-94191000D01*
X146746000Y-92329000D02*
X147955000Y-92329000D01*
X150495000Y-113062000D02*
X150495000Y-109855000D01*
D32*
X147193000Y-94638000D02*
X147150000Y-94681000D01*
X178308000Y-76073000D02*
X176320824Y-76073000D01*
X176320824Y-76073000D02*
X174586173Y-74338349D01*
X174586173Y-74338349D02*
X174586173Y-73830349D01*
X179959000Y-77724000D02*
X178308000Y-76073000D01*
X179959000Y-86106000D02*
X179959000Y-77724000D01*
X178689000Y-87376000D02*
X179959000Y-86106000D01*
X173482000Y-87376000D02*
X178689000Y-87376000D01*
X172085000Y-85979000D02*
X173482000Y-87376000D01*
X172085000Y-84074000D02*
X172085000Y-85979000D01*
X171831000Y-76200000D02*
X171831000Y-74045522D01*
X171831000Y-74045522D02*
X172046173Y-73830349D01*
X172085000Y-81280000D02*
X169545000Y-78740000D01*
X169545000Y-78740000D02*
X169545000Y-78613000D01*
X172085000Y-78486000D02*
X169506173Y-75907173D01*
X169506173Y-75907173D02*
X169506173Y-73830349D01*
X167593000Y-77470000D02*
X167593000Y-76570000D01*
X167593000Y-76570000D02*
X166966173Y-75943173D01*
X166966173Y-75943173D02*
X166966173Y-73830349D01*
X168402000Y-80010000D02*
X167593000Y-79201000D01*
X167593000Y-79201000D02*
X167593000Y-77470000D01*
X168402000Y-80772000D02*
X168402000Y-80010000D01*
X166831000Y-73965522D02*
X166966173Y-73830349D01*
X167621001Y-81552999D02*
X168402000Y-80772000D01*
X166497000Y-81153000D02*
X166896999Y-81552999D01*
X166896999Y-81552999D02*
X167621001Y-81552999D01*
X161957700Y-97417700D02*
X158885700Y-97417700D01*
X158885700Y-97417700D02*
X158242000Y-96774000D01*
X171577000Y-100457000D02*
X171022000Y-101012000D01*
X171022000Y-101012000D02*
X168703000Y-101012000D01*
X168703000Y-101012000D02*
X167132000Y-99441000D01*
X167132000Y-99441000D02*
X167132000Y-98933000D01*
X167132000Y-98933000D02*
X166616700Y-98417700D01*
X166616700Y-98417700D02*
X165742300Y-98417700D01*
X162005000Y-77470000D02*
X162005000Y-73949176D01*
X162005000Y-73949176D02*
X161886173Y-73830349D01*
X163322000Y-82296000D02*
X163322000Y-81730315D01*
X163322000Y-81730315D02*
X162005000Y-80413315D01*
X162005000Y-78370000D02*
X162005000Y-77470000D01*
X162005000Y-80413315D02*
X162005000Y-78370000D01*
X150368000Y-92917000D02*
X154766000Y-92917000D01*
X154766000Y-92917000D02*
X154813000Y-92964000D01*
X149098000Y-95631000D02*
X150368000Y-94361000D01*
X150368000Y-94361000D02*
X150368000Y-92917000D01*
X147150000Y-95631000D02*
X149098000Y-95631000D01*
X152701000Y-80184000D02*
X152781000Y-80264000D01*
X152701000Y-77597000D02*
X152701000Y-80184000D01*
X158877000Y-96266000D02*
X158877000Y-92075000D01*
X158877000Y-92075000D02*
X152781000Y-85979000D01*
X159528700Y-96917700D02*
X158877000Y-96266000D01*
X161957700Y-96917700D02*
X159528700Y-96917700D01*
X152701000Y-77597000D02*
X152701000Y-73871522D01*
X152701000Y-73871522D02*
X152742173Y-73830349D01*
X160655000Y-82423000D02*
X159258000Y-81026000D01*
X159258000Y-81026000D02*
X152196800Y-81026000D01*
X152196800Y-81026000D02*
X150202173Y-79031373D01*
X150202173Y-79031373D02*
X150202173Y-73830349D01*
X161957700Y-95917700D02*
X161703700Y-95917700D01*
X161703700Y-95917700D02*
X160781942Y-94995942D01*
X160781942Y-94995942D02*
X160781942Y-94664927D01*
X159358240Y-90031762D02*
X159758239Y-90431761D01*
X145122173Y-75795695D02*
X159358240Y-90031762D01*
X145122173Y-73830349D02*
X145122173Y-75795695D01*
X159892980Y-95688685D02*
X159892980Y-95123000D01*
X160165999Y-96157999D02*
X159892980Y-95884980D01*
X160425699Y-96417699D02*
X160165999Y-96157999D01*
X159892980Y-95884980D02*
X159892980Y-95688685D01*
X161957700Y-96417699D02*
X160425699Y-96417699D01*
X160274000Y-96266000D02*
X160165999Y-96157999D01*
D31*
X168737399Y-87548601D02*
X170685919Y-87548601D01*
X170685919Y-87548601D02*
X170727659Y-87590341D01*
D32*
X156101000Y-93599000D02*
X156083000Y-93599000D01*
X157480000Y-94978000D02*
X156101000Y-93599000D01*
X157480000Y-95103000D02*
X157480000Y-94978000D01*
D34*
X157480000Y-95103000D02*
X153055000Y-95103000D01*
X153055000Y-95103000D02*
X152638000Y-95520000D01*
D32*
X161957700Y-97917701D02*
X159745299Y-97917701D01*
X159745299Y-97917701D02*
X159111000Y-98552000D01*
X162667000Y-92456000D02*
X163195000Y-92456000D01*
X163195000Y-92456000D02*
X164338000Y-91313000D01*
X164100000Y-95275400D02*
X164100000Y-92889000D01*
X164100000Y-92889000D02*
X163667000Y-92456000D01*
X163667000Y-92456000D02*
X162667000Y-92456000D01*
D31*
X160655000Y-87610000D02*
X159532000Y-87610000D01*
X159532000Y-87610000D02*
X159512000Y-87630000D01*
X158514999Y-110509003D02*
X158115000Y-110109004D01*
X159131000Y-111125004D02*
X158514999Y-110509003D01*
X159131000Y-111168000D02*
X159131000Y-111125004D01*
X154813000Y-112935000D02*
X154813000Y-109855000D01*
X159004000Y-107569000D02*
X160274000Y-108839000D01*
D32*
X162070999Y-102090009D02*
X161816999Y-101836009D01*
X162070999Y-103740001D02*
X162070999Y-102090009D01*
X161671000Y-104140000D02*
X162070999Y-103740001D01*
X161816999Y-101836009D02*
X161417000Y-101436010D01*
X162433000Y-99695000D02*
X162600000Y-99528000D01*
X162600000Y-99528000D02*
X162600000Y-99060000D01*
X161417000Y-99695000D02*
X162433000Y-99695000D01*
X174625000Y-84074000D02*
X175895000Y-85344000D01*
X175895000Y-85344000D02*
X175895000Y-86233000D01*
X167894000Y-95758000D02*
X168168000Y-96032000D01*
X168168000Y-96032000D02*
X168168000Y-97917000D01*
X166878000Y-95758000D02*
X167894000Y-95758000D01*
X166751000Y-95885000D02*
X166878000Y-95758000D01*
X166751000Y-96065399D02*
X166751000Y-95885000D01*
X165742300Y-96417699D02*
X166398700Y-96417699D01*
X166398700Y-96417699D02*
X166751000Y-96065399D01*
X165742300Y-97917701D02*
X168167299Y-97917701D01*
D35*
X172974000Y-102489000D02*
X173355000Y-102108000D01*
X173355000Y-102108000D02*
X173355000Y-101600000D01*
X172085000Y-102489000D02*
X172974000Y-102489000D01*
X170942000Y-103632000D02*
X172085000Y-102489000D01*
X170942000Y-105537000D02*
X170942000Y-103632000D01*
X170434000Y-106045000D02*
X170942000Y-105537000D01*
X168910000Y-106045000D02*
X170434000Y-106045000D01*
D32*
X152400000Y-107696000D02*
X152400000Y-106618370D01*
X173355000Y-101600000D02*
X173355000Y-99822000D01*
X152400000Y-106618370D02*
X152973370Y-106045000D01*
X152973370Y-106045000D02*
X168910000Y-106045000D01*
X173355000Y-99822000D02*
X172720000Y-99187000D01*
X172720000Y-99187000D02*
X171069000Y-99187000D01*
X171069000Y-99187000D02*
X170688000Y-99568000D01*
X170688000Y-99568000D02*
X168656000Y-99568000D01*
X168656000Y-99568000D02*
X168168000Y-99080000D01*
X168168000Y-99080000D02*
X168168000Y-97917000D01*
X175749001Y-101745999D02*
X176149000Y-101346000D01*
X172338994Y-104013000D02*
X173482000Y-104013000D01*
X173482000Y-104013000D02*
X175749001Y-101745999D01*
X165354000Y-100838000D02*
X164592000Y-100076000D01*
X164592000Y-100076000D02*
X164600001Y-100067999D01*
X164600001Y-100067999D02*
X164600001Y-99060000D01*
X174625000Y-78486000D02*
X174625000Y-76708000D01*
X174389999Y-104502001D02*
X173990000Y-104902000D01*
X169672000Y-84836000D02*
X177927000Y-93091000D01*
X177927000Y-100965000D02*
X174389999Y-104502001D01*
X177927000Y-93091000D02*
X177927000Y-100965000D01*
X170307000Y-82677000D02*
X169672000Y-83312000D01*
X169672000Y-83312000D02*
X169672000Y-84836000D01*
X174625000Y-81280000D02*
X173228000Y-82677000D01*
X173228000Y-82677000D02*
X170307000Y-82677000D01*
X164100000Y-101108000D02*
X164406160Y-101414160D01*
X164100000Y-99060000D02*
X164100000Y-101108000D01*
D31*
X162915600Y-89916000D02*
X163982400Y-89916000D01*
X141485400Y-95859600D02*
X141485400Y-96639600D01*
X141485400Y-96639600D02*
X141478000Y-96647000D01*
X142982000Y-94488000D02*
X142857000Y-94488000D01*
X142857000Y-94488000D02*
X141485400Y-95859600D01*
D32*
X166642590Y-94615010D02*
X166751000Y-94615010D01*
X165742300Y-95917700D02*
X165742300Y-95515300D01*
X165742300Y-95515300D02*
X166642590Y-94615010D01*
D31*
X168549000Y-94742000D02*
X166877990Y-94742000D01*
X166877990Y-94742000D02*
X166751000Y-94615010D01*
D32*
X165742300Y-95917700D02*
X165996300Y-95917700D01*
X165996300Y-95917700D02*
X166029000Y-95885000D01*
X163600000Y-94067150D02*
X163374990Y-93842140D01*
X163600000Y-95275400D02*
X163600000Y-94067150D01*
X162600000Y-94617130D02*
X162974991Y-94242139D01*
X162600000Y-95275400D02*
X162600000Y-94617130D01*
X162974991Y-94242139D02*
X163374990Y-93842140D01*
D31*
X165288000Y-103251000D02*
X165288000Y-104993400D01*
X165288000Y-104993400D02*
X165277800Y-105003600D01*
X168737399Y-86248601D02*
X167492799Y-86248601D01*
X167492799Y-86248601D02*
X167005000Y-86736400D01*
X167005000Y-86736400D02*
X167005000Y-90170000D01*
X165288000Y-103251000D02*
X165288000Y-103571000D01*
X144950000Y-95631000D02*
X144125000Y-95631000D01*
X144125000Y-95631000D02*
X142982000Y-94488000D01*
X141478000Y-96647000D02*
X141478000Y-98679000D01*
D33*
X162560000Y-113062000D02*
X162560000Y-110490000D01*
D31*
X144950000Y-96581000D02*
X143444000Y-96581000D01*
X143444000Y-96581000D02*
X143378000Y-96647000D01*
X142982000Y-92329000D02*
X144846000Y-92329000D01*
X144950000Y-96581000D02*
X144950000Y-97414000D01*
X142135600Y-100228400D02*
X138049000Y-100228400D01*
X142387800Y-90601800D02*
X142982000Y-91196000D01*
X144950000Y-97414000D02*
X142135600Y-100228400D01*
X138049000Y-100228400D02*
X136652000Y-98831400D01*
X137871200Y-90601800D02*
X142387800Y-90601800D01*
X136652000Y-98831400D02*
X136652000Y-91821000D01*
X136652000Y-91821000D02*
X137871200Y-90601800D01*
X142982000Y-91196000D02*
X142982000Y-92329000D01*
D32*
X142857000Y-92329000D02*
X142982000Y-92329000D01*
X144884000Y-96647000D02*
X144950000Y-96581000D01*
D31*
X147762000Y-98679000D02*
X147762000Y-100665000D01*
X147762000Y-100665000D02*
X148062000Y-100965000D01*
X147472400Y-97561400D02*
X147762000Y-97851000D01*
X147762000Y-97851000D02*
X147762000Y-98679000D01*
X147297400Y-97561400D02*
X147472400Y-97561400D01*
X147150000Y-96581000D02*
X147150000Y-97414000D01*
X147150000Y-97414000D02*
X147297400Y-97561400D01*
X151638000Y-96520000D02*
X147211000Y-96520000D01*
X147211000Y-96520000D02*
X147150000Y-96581000D01*
D32*
X153670000Y-96647000D02*
X153670000Y-100711000D01*
X153670000Y-100711000D02*
X154160000Y-101201000D01*
X154160000Y-101201000D02*
X157208000Y-101201000D01*
X162179000Y-100711000D02*
X163099999Y-100711000D01*
X163099999Y-100711000D02*
X163099999Y-99060000D01*
X163388000Y-103251000D02*
X163388000Y-101412000D01*
X163388000Y-101412000D02*
X162687000Y-100711000D01*
X162687000Y-100711000D02*
X162179000Y-100711000D01*
X159108000Y-101201000D02*
X159108000Y-100996000D01*
X159108000Y-100996000D02*
X159393000Y-100711000D01*
X159393000Y-100711000D02*
X162179000Y-100711000D01*
X166944086Y-96917700D02*
X165742300Y-96917700D01*
X166982288Y-96879498D02*
X166944086Y-96917700D01*
X160636001Y-103015999D02*
X161036000Y-102616000D01*
X160251000Y-103401000D02*
X160636001Y-103015999D01*
X159108000Y-103401000D02*
X160251000Y-103401000D01*
X165628000Y-93591001D02*
X164600001Y-94619000D01*
X165628000Y-93091000D02*
X165628000Y-93591001D01*
X165592998Y-93055998D02*
X165592998Y-87487998D01*
X164973000Y-84201000D02*
X164973000Y-86868000D01*
X164973000Y-86868000D02*
X165003599Y-86898599D01*
X165628000Y-93091000D02*
X165592998Y-93055998D01*
X165592998Y-87487998D02*
X165003599Y-86898599D01*
X165003599Y-86898599D02*
X163098599Y-86898599D01*
X164600001Y-94619000D02*
X164600001Y-95275400D01*
D31*
X145862000Y-98679000D02*
X145862000Y-97521000D01*
X145862000Y-97521000D02*
X146075400Y-97307600D01*
X145988000Y-94681000D02*
X144950000Y-94681000D01*
X146075400Y-97307600D02*
X146075400Y-94768400D01*
X146075400Y-94768400D02*
X145988000Y-94681000D01*
X145862000Y-98679000D02*
X145862000Y-100665000D01*
X145862000Y-100665000D02*
X145562000Y-100965000D01*
X145415000Y-102870000D02*
X145415000Y-101112000D01*
D32*
X145415000Y-101112000D02*
X145562000Y-100965000D01*
X145846800Y-112453600D02*
X145846800Y-113368000D01*
X145846800Y-113368000D02*
X145846800Y-115769400D01*
X159207200Y-116201200D02*
X159207200Y-113444200D01*
X159207200Y-113444200D02*
X159131000Y-113368000D01*
X159181800Y-116175800D02*
X159207200Y-116201200D01*
M02*
