M48
INCH,TZ
T1C0.016
T2C0.020
T3C0.040
%
G90
G05
T1
X54550Y-37200
X54600Y-36350
X55700Y-38850
X56500Y-46630
X57000Y-42800
X57250Y-40500
X57970Y-43400
X58250Y-36350
X58300Y-46100
X58550Y-35500
X59250Y-43250
X60150Y-31600
X60150Y-33850
X60950Y-36600
X60950Y-43250
X61050Y-35900
X61200Y-31050
X61450Y-36850
X61650Y-38150
X61730Y-46810
X61950Y-46050
X62050Y-39300
X62250Y-43350
X62300Y-38100
X62642Y-38800
X62700Y-31000
X62800Y-34500
X62897Y-35603
X62950Y-37450
X63100Y-42850
X63250Y-32450
X63300Y-37270
X63300Y-35180
X63400Y-40400
X63550Y-35900
X63550Y-39250
X63550Y-39935
X63650Y-41000
X63850Y-33500
X64000Y-43500
X64000Y-46850
X64300Y-32400
X64321Y-36946
X64508Y-38255
X64560Y-35400
X64700Y-35950
X64727Y-39927
X64950Y-31000
X65070Y-41340
X65100Y-39700
X65550Y-31950
X65650Y-37250
X65741Y-38142
X65750Y-35500
X66750Y-30950
X67216Y-34484
X67550Y-39550
X67650Y-30000
X67800Y-36650
X67800Y-38550
X67850Y-40950
X68100Y-42200
X68450Y-37300
X68500Y-41300
X68750Y-30200
X69250Y-33950
X69350Y-39900
T2
X59700Y-38000
X60094Y-37606
X60487Y-38000
T3
X67750Y-32000
X68750Y-32000
X69750Y-32000
X53135Y-29067
X54135Y-29067
X55135Y-29067
X56135Y-29067
X56735Y-48067
X57135Y-29067
X57735Y-48067
X58135Y-29067
X58735Y-48067
X59135Y-29067
X59735Y-48067
X60135Y-29067
X60735Y-48067
X61135Y-29067
X61735Y-48067
X62135Y-29067
X62735Y-48067
X63735Y-29067
X63735Y-48067
X64735Y-29067
X65735Y-29067
X65735Y-48067
X66735Y-29067
X66735Y-48067
X67735Y-29067
X67735Y-48067
X68735Y-29067
X68735Y-48067
X69735Y-29067
X69735Y-48067
X70735Y-29067
X70735Y-37067
X70735Y-38067
X70735Y-39067
X70735Y-48067
X71735Y-37067
X71735Y-38067
X71735Y-39067
X59000Y-42400
X60000Y-42400
X61000Y-42400
X67750Y-30900
X68750Y-30900
X69750Y-30900
X65900Y-43100
X65900Y-44100
X65900Y-45100
X67750Y-33100
X68750Y-33100
X69750Y-33100
T0
M30
