G04 #@! TF.GenerationSoftware,KiCad,Pcbnew,no-vcs-found-2a3a699~58~ubuntu16.04.1*
G04 #@! TF.CreationDate,2017-05-22T10:07:49+03:00*
G04 #@! TF.ProjectId,interferometer,696E7465726665726F6D657465722E6B,1*
G04 #@! TF.FileFunction,Soldermask,Top*
G04 #@! TF.FilePolarity,Negative*
%FSLAX46Y46*%
G04 Gerber Fmt 4.6, Leading zero omitted, Abs format (unit mm)*
G04 Created by KiCad (PCBNEW no-vcs-found-2a3a699~58~ubuntu16.04.1) date Mon May 22 10:07:49 2017*
%MOMM*%
%LPD*%
G01*
G04 APERTURE LIST*
%ADD10C,0.100000*%
%ADD11R,1.110000X1.410000*%
%ADD12R,1.613200X0.495600*%
%ADD13R,1.640000X1.390000*%
%ADD14R,1.200000X0.790000*%
%ADD15R,0.840000X1.440000*%
%ADD16C,1.640000*%
%ADD17R,1.340000X1.340000*%
%ADD18R,1.440000X1.640000*%
%ADD19C,1.040000*%
%ADD20R,0.085400X0.085400*%
%ADD21R,2.160000X2.160000*%
%ADD22R,0.872800X0.364800*%
%ADD23R,0.364800X0.872800*%
%ADD24R,1.390000X1.640000*%
%ADD25R,2.640000X2.140000*%
%ADD26R,1.640000X1.440000*%
%ADD27R,0.790000X1.200000*%
%ADD28O,1.664000X1.664000*%
%ADD29C,1.664000*%
%ADD30O,1.664000X2.680000*%
%ADD31C,3.315000*%
G04 APERTURE END LIST*
D10*
D11*
X162915600Y-89916000D03*
X161635600Y-89916000D03*
D12*
X163098599Y-88198599D03*
X163098599Y-87548601D03*
X163098599Y-86898599D03*
X163098599Y-86248601D03*
X168737399Y-86248601D03*
X168737399Y-86898599D03*
X168737399Y-87548601D03*
X168737399Y-88198599D03*
D13*
X171049000Y-94742000D03*
X168549000Y-94742000D03*
X140482000Y-94488000D03*
X142982000Y-94488000D03*
D14*
X147150000Y-95631000D03*
X147150000Y-94681000D03*
X147150000Y-96581000D03*
X144950000Y-96581000D03*
X144950000Y-95631000D03*
X144950000Y-94681000D03*
D15*
X143378000Y-96647000D03*
X141478000Y-96647000D03*
D16*
X159004000Y-107569000D03*
X167005000Y-117348000D03*
X165608000Y-90043000D03*
X145923000Y-107569000D03*
D17*
X159131000Y-113368000D03*
X159131000Y-111168000D03*
X145846800Y-112453600D03*
X145846800Y-110253600D03*
D18*
X159207200Y-118901200D03*
X159207200Y-116201200D03*
X145846800Y-118469400D03*
X145846800Y-115769400D03*
D19*
X153638000Y-96520000D03*
X151638000Y-96520000D03*
X152638000Y-95520000D03*
D20*
X163850000Y-97167700D03*
D21*
X163850000Y-97167700D03*
D22*
X161957700Y-98417700D03*
X161957700Y-97917701D03*
X161957700Y-97417700D03*
X161957700Y-96917700D03*
X161957700Y-96417699D03*
X161957700Y-95917700D03*
D23*
X162600000Y-95275400D03*
X163099999Y-95275400D03*
X163600000Y-95275400D03*
X164100000Y-95275400D03*
X164600001Y-95275400D03*
X165100000Y-95275400D03*
D22*
X165742300Y-95917700D03*
X165742300Y-96417699D03*
X165742300Y-96917700D03*
X165742300Y-97417700D03*
X165742300Y-97917701D03*
X165742300Y-98417700D03*
D23*
X165100000Y-99060000D03*
X164600001Y-99060000D03*
X164100000Y-99060000D03*
X163600000Y-99060000D03*
X163099999Y-99060000D03*
X162600000Y-99060000D03*
D13*
X148062000Y-100965000D03*
X145562000Y-100965000D03*
D24*
X160655000Y-85110000D03*
X160655000Y-87610000D03*
X157480000Y-92603000D03*
X157480000Y-95103000D03*
D13*
X168128000Y-92456000D03*
X165628000Y-92456000D03*
X168549000Y-97917000D03*
X171049000Y-97917000D03*
X160167000Y-92456000D03*
X162667000Y-92456000D03*
X142982000Y-92329000D03*
X140482000Y-92329000D03*
D25*
X162560000Y-117062000D03*
X162560000Y-113062000D03*
X150495000Y-117062000D03*
X150495000Y-113062000D03*
X154813000Y-116935000D03*
X154813000Y-112935000D03*
D15*
X147762000Y-98679000D03*
X145862000Y-98679000D03*
X165288000Y-103251000D03*
X163388000Y-103251000D03*
X144846000Y-92329000D03*
X146746000Y-92329000D03*
D18*
X150368000Y-92917000D03*
X150368000Y-90217000D03*
D26*
X162005000Y-77470000D03*
X159305000Y-77470000D03*
X152701000Y-77597000D03*
X155401000Y-77597000D03*
X167593000Y-77470000D03*
X164893000Y-77470000D03*
D27*
X158158000Y-101201000D03*
X157208000Y-101201000D03*
X159108000Y-101201000D03*
X159108000Y-103401000D03*
X158158000Y-103401000D03*
X157208000Y-103401000D03*
D28*
X172085000Y-81280000D03*
X174625000Y-81280000D03*
X177165000Y-81280000D03*
X172085000Y-78486000D03*
X174625000Y-78486000D03*
X177165000Y-78486000D03*
X149860000Y-107696000D03*
X152400000Y-107696000D03*
X154940000Y-107696000D03*
X172085000Y-84074000D03*
X174625000Y-84074000D03*
X177165000Y-84074000D03*
D29*
X182206173Y-99230349D03*
X179666173Y-99230349D03*
X182206173Y-96690349D03*
X179666173Y-96690349D03*
X182206173Y-94150349D03*
X179666173Y-94150349D03*
D30*
X144106173Y-122090349D03*
X146646173Y-122090349D03*
X134962173Y-73830349D03*
X137502173Y-73830349D03*
D31*
X130136173Y-122090349D03*
X131406173Y-73830349D03*
X182206173Y-89070349D03*
X182206173Y-117010349D03*
D30*
X154266173Y-122090349D03*
X140042173Y-73830349D03*
X142582173Y-73830349D03*
X145122173Y-73830349D03*
X147662173Y-73830349D03*
X150202173Y-73830349D03*
X152742173Y-73830349D03*
X155282173Y-73830349D03*
X157822173Y-73830349D03*
X161886173Y-73830349D03*
X164426173Y-73830349D03*
X166966173Y-73830349D03*
X169506173Y-73830349D03*
X172046173Y-73830349D03*
X174586173Y-73830349D03*
X177126173Y-73830349D03*
X179666173Y-73830349D03*
X149186173Y-122090349D03*
X151726173Y-122090349D03*
X156806173Y-122090349D03*
X159346173Y-122090349D03*
X161886173Y-122090349D03*
X172046173Y-122090349D03*
X169506173Y-122090349D03*
X166966173Y-122090349D03*
X174586173Y-122090349D03*
X177126173Y-122090349D03*
X179666173Y-122090349D03*
M02*
