G04 #@! TF.GenerationSoftware,KiCad,Pcbnew,(5.1.5)-2*
G04 #@! TF.CreationDate,2020-04-29T22:29:48+05:00*
G04 #@! TF.ProjectId,interferometer,696e7465-7266-4657-926f-6d657465722e,1*
G04 #@! TF.SameCoordinates,Original*
G04 #@! TF.FileFunction,Soldermask,Bot*
G04 #@! TF.FilePolarity,Negative*
%FSLAX46Y46*%
G04 Gerber Fmt 4.6, Leading zero omitted, Abs format (unit mm)*
G04 Created by KiCad (PCBNEW (5.1.5)-2) date 2020-04-29 22:29:48*
%MOMM*%
%LPD*%
G04 APERTURE LIST*
%ADD10C,1.664000*%
%ADD11O,1.664000X2.680000*%
%ADD12C,3.315000*%
%ADD13C,0.100000*%
%ADD14C,1.040000*%
%ADD15O,1.664000X1.664000*%
G04 APERTURE END LIST*
D10*
X182206173Y-99230349D03*
X179666173Y-99230349D03*
X182206173Y-96690349D03*
X179666173Y-96690349D03*
X182206173Y-94150349D03*
X179666173Y-94150349D03*
D11*
X144106173Y-122090349D03*
X146646173Y-122090349D03*
X134962173Y-73830349D03*
X137502173Y-73830349D03*
D12*
X130136173Y-122090349D03*
X131406173Y-73830349D03*
X182206173Y-89070349D03*
X182206173Y-117010349D03*
D11*
X154266173Y-122090349D03*
X140042173Y-73830349D03*
X142582173Y-73830349D03*
X145122173Y-73830349D03*
X147662173Y-73830349D03*
X150202173Y-73830349D03*
X152742173Y-73830349D03*
X155282173Y-73830349D03*
X157822173Y-73830349D03*
X161886173Y-73830349D03*
X164426173Y-73830349D03*
X166966173Y-73830349D03*
X169506173Y-73830349D03*
X172046173Y-73830349D03*
X174586173Y-73830349D03*
X177126173Y-73830349D03*
X179666173Y-73830349D03*
X149186173Y-122090349D03*
X151726173Y-122090349D03*
X156806173Y-122090349D03*
X159346173Y-122090349D03*
X161886173Y-122090349D03*
X172046173Y-122090349D03*
X169506173Y-122090349D03*
X166966173Y-122090349D03*
X174586173Y-122090349D03*
X177126173Y-122090349D03*
X179666173Y-122090349D03*
D13*
G36*
X157352122Y-98008222D02*
G01*
X157376754Y-98011876D01*
X157400910Y-98017926D01*
X157424356Y-98026316D01*
X157446867Y-98036962D01*
X157468226Y-98049765D01*
X157488227Y-98064599D01*
X157506678Y-98081322D01*
X157523401Y-98099773D01*
X157538235Y-98119774D01*
X157551038Y-98141133D01*
X157561684Y-98163644D01*
X157570074Y-98187090D01*
X157576124Y-98211246D01*
X157579778Y-98235878D01*
X157581000Y-98260750D01*
X157581000Y-98843250D01*
X157579778Y-98868122D01*
X157576124Y-98892754D01*
X157570074Y-98916910D01*
X157561684Y-98940356D01*
X157551038Y-98962867D01*
X157538235Y-98984226D01*
X157523401Y-99004227D01*
X157506678Y-99022678D01*
X157488227Y-99039401D01*
X157468226Y-99054235D01*
X157446867Y-99067038D01*
X157424356Y-99077684D01*
X157400910Y-99086074D01*
X157376754Y-99092124D01*
X157352122Y-99095778D01*
X157327250Y-99097000D01*
X156819750Y-99097000D01*
X156794878Y-99095778D01*
X156770246Y-99092124D01*
X156746090Y-99086074D01*
X156722644Y-99077684D01*
X156700133Y-99067038D01*
X156678774Y-99054235D01*
X156658773Y-99039401D01*
X156640322Y-99022678D01*
X156623599Y-99004227D01*
X156608765Y-98984226D01*
X156595962Y-98962867D01*
X156585316Y-98940356D01*
X156576926Y-98916910D01*
X156570876Y-98892754D01*
X156567222Y-98868122D01*
X156566000Y-98843250D01*
X156566000Y-98260750D01*
X156567222Y-98235878D01*
X156570876Y-98211246D01*
X156576926Y-98187090D01*
X156585316Y-98163644D01*
X156595962Y-98141133D01*
X156608765Y-98119774D01*
X156623599Y-98099773D01*
X156640322Y-98081322D01*
X156658773Y-98064599D01*
X156678774Y-98049765D01*
X156700133Y-98036962D01*
X156722644Y-98026316D01*
X156746090Y-98017926D01*
X156770246Y-98011876D01*
X156794878Y-98008222D01*
X156819750Y-98007000D01*
X157327250Y-98007000D01*
X157352122Y-98008222D01*
G37*
G36*
X158927122Y-98008222D02*
G01*
X158951754Y-98011876D01*
X158975910Y-98017926D01*
X158999356Y-98026316D01*
X159021867Y-98036962D01*
X159043226Y-98049765D01*
X159063227Y-98064599D01*
X159081678Y-98081322D01*
X159098401Y-98099773D01*
X159113235Y-98119774D01*
X159126038Y-98141133D01*
X159136684Y-98163644D01*
X159145074Y-98187090D01*
X159151124Y-98211246D01*
X159154778Y-98235878D01*
X159156000Y-98260750D01*
X159156000Y-98843250D01*
X159154778Y-98868122D01*
X159151124Y-98892754D01*
X159145074Y-98916910D01*
X159136684Y-98940356D01*
X159126038Y-98962867D01*
X159113235Y-98984226D01*
X159098401Y-99004227D01*
X159081678Y-99022678D01*
X159063227Y-99039401D01*
X159043226Y-99054235D01*
X159021867Y-99067038D01*
X158999356Y-99077684D01*
X158975910Y-99086074D01*
X158951754Y-99092124D01*
X158927122Y-99095778D01*
X158902250Y-99097000D01*
X158394750Y-99097000D01*
X158369878Y-99095778D01*
X158345246Y-99092124D01*
X158321090Y-99086074D01*
X158297644Y-99077684D01*
X158275133Y-99067038D01*
X158253774Y-99054235D01*
X158233773Y-99039401D01*
X158215322Y-99022678D01*
X158198599Y-99004227D01*
X158183765Y-98984226D01*
X158170962Y-98962867D01*
X158160316Y-98940356D01*
X158151926Y-98916910D01*
X158145876Y-98892754D01*
X158142222Y-98868122D01*
X158141000Y-98843250D01*
X158141000Y-98260750D01*
X158142222Y-98235878D01*
X158145876Y-98211246D01*
X158151926Y-98187090D01*
X158160316Y-98163644D01*
X158170962Y-98141133D01*
X158183765Y-98119774D01*
X158198599Y-98099773D01*
X158215322Y-98081322D01*
X158233773Y-98064599D01*
X158253774Y-98049765D01*
X158275133Y-98036962D01*
X158297644Y-98026316D01*
X158321090Y-98017926D01*
X158345246Y-98011876D01*
X158369878Y-98008222D01*
X158394750Y-98007000D01*
X158902250Y-98007000D01*
X158927122Y-98008222D01*
G37*
G36*
X163575122Y-106771222D02*
G01*
X163599754Y-106774876D01*
X163623910Y-106780926D01*
X163647356Y-106789316D01*
X163669867Y-106799962D01*
X163691226Y-106812765D01*
X163711227Y-106827599D01*
X163729678Y-106844322D01*
X163746401Y-106862773D01*
X163761235Y-106882774D01*
X163774038Y-106904133D01*
X163784684Y-106926644D01*
X163793074Y-106950090D01*
X163799124Y-106974246D01*
X163802778Y-106998878D01*
X163804000Y-107023750D01*
X163804000Y-107606250D01*
X163802778Y-107631122D01*
X163799124Y-107655754D01*
X163793074Y-107679910D01*
X163784684Y-107703356D01*
X163774038Y-107725867D01*
X163761235Y-107747226D01*
X163746401Y-107767227D01*
X163729678Y-107785678D01*
X163711227Y-107802401D01*
X163691226Y-107817235D01*
X163669867Y-107830038D01*
X163647356Y-107840684D01*
X163623910Y-107849074D01*
X163599754Y-107855124D01*
X163575122Y-107858778D01*
X163550250Y-107860000D01*
X163042750Y-107860000D01*
X163017878Y-107858778D01*
X162993246Y-107855124D01*
X162969090Y-107849074D01*
X162945644Y-107840684D01*
X162923133Y-107830038D01*
X162901774Y-107817235D01*
X162881773Y-107802401D01*
X162863322Y-107785678D01*
X162846599Y-107767227D01*
X162831765Y-107747226D01*
X162818962Y-107725867D01*
X162808316Y-107703356D01*
X162799926Y-107679910D01*
X162793876Y-107655754D01*
X162790222Y-107631122D01*
X162789000Y-107606250D01*
X162789000Y-107023750D01*
X162790222Y-106998878D01*
X162793876Y-106974246D01*
X162799926Y-106950090D01*
X162808316Y-106926644D01*
X162818962Y-106904133D01*
X162831765Y-106882774D01*
X162846599Y-106862773D01*
X162863322Y-106844322D01*
X162881773Y-106827599D01*
X162901774Y-106812765D01*
X162923133Y-106799962D01*
X162945644Y-106789316D01*
X162969090Y-106780926D01*
X162993246Y-106774876D01*
X163017878Y-106771222D01*
X163042750Y-106770000D01*
X163550250Y-106770000D01*
X163575122Y-106771222D01*
G37*
G36*
X165150122Y-106771222D02*
G01*
X165174754Y-106774876D01*
X165198910Y-106780926D01*
X165222356Y-106789316D01*
X165244867Y-106799962D01*
X165266226Y-106812765D01*
X165286227Y-106827599D01*
X165304678Y-106844322D01*
X165321401Y-106862773D01*
X165336235Y-106882774D01*
X165349038Y-106904133D01*
X165359684Y-106926644D01*
X165368074Y-106950090D01*
X165374124Y-106974246D01*
X165377778Y-106998878D01*
X165379000Y-107023750D01*
X165379000Y-107606250D01*
X165377778Y-107631122D01*
X165374124Y-107655754D01*
X165368074Y-107679910D01*
X165359684Y-107703356D01*
X165349038Y-107725867D01*
X165336235Y-107747226D01*
X165321401Y-107767227D01*
X165304678Y-107785678D01*
X165286227Y-107802401D01*
X165266226Y-107817235D01*
X165244867Y-107830038D01*
X165222356Y-107840684D01*
X165198910Y-107849074D01*
X165174754Y-107855124D01*
X165150122Y-107858778D01*
X165125250Y-107860000D01*
X164617750Y-107860000D01*
X164592878Y-107858778D01*
X164568246Y-107855124D01*
X164544090Y-107849074D01*
X164520644Y-107840684D01*
X164498133Y-107830038D01*
X164476774Y-107817235D01*
X164456773Y-107802401D01*
X164438322Y-107785678D01*
X164421599Y-107767227D01*
X164406765Y-107747226D01*
X164393962Y-107725867D01*
X164383316Y-107703356D01*
X164374926Y-107679910D01*
X164368876Y-107655754D01*
X164365222Y-107631122D01*
X164364000Y-107606250D01*
X164364000Y-107023750D01*
X164365222Y-106998878D01*
X164368876Y-106974246D01*
X164374926Y-106950090D01*
X164383316Y-106926644D01*
X164393962Y-106904133D01*
X164406765Y-106882774D01*
X164421599Y-106862773D01*
X164438322Y-106844322D01*
X164456773Y-106827599D01*
X164476774Y-106812765D01*
X164498133Y-106799962D01*
X164520644Y-106789316D01*
X164544090Y-106780926D01*
X164568246Y-106774876D01*
X164592878Y-106771222D01*
X164617750Y-106770000D01*
X165125250Y-106770000D01*
X165150122Y-106771222D01*
G37*
G36*
X171042572Y-106546342D02*
G01*
X171069631Y-106550356D01*
X171096167Y-106557003D01*
X171121923Y-106566219D01*
X171146652Y-106577914D01*
X171170115Y-106591978D01*
X171192087Y-106608273D01*
X171212356Y-106626644D01*
X171230727Y-106646913D01*
X171247022Y-106668885D01*
X171261086Y-106692348D01*
X171272781Y-106717077D01*
X171281997Y-106742833D01*
X171288644Y-106769369D01*
X171292658Y-106796428D01*
X171294000Y-106823750D01*
X171294000Y-107806250D01*
X171292658Y-107833572D01*
X171288644Y-107860631D01*
X171281997Y-107887167D01*
X171272781Y-107912923D01*
X171261086Y-107937652D01*
X171247022Y-107961115D01*
X171230727Y-107983087D01*
X171212356Y-108003356D01*
X171192087Y-108021727D01*
X171170115Y-108038022D01*
X171146652Y-108052086D01*
X171121923Y-108063781D01*
X171096167Y-108072997D01*
X171069631Y-108079644D01*
X171042572Y-108083658D01*
X171015250Y-108085000D01*
X170457750Y-108085000D01*
X170430428Y-108083658D01*
X170403369Y-108079644D01*
X170376833Y-108072997D01*
X170351077Y-108063781D01*
X170326348Y-108052086D01*
X170302885Y-108038022D01*
X170280913Y-108021727D01*
X170260644Y-108003356D01*
X170242273Y-107983087D01*
X170225978Y-107961115D01*
X170211914Y-107937652D01*
X170200219Y-107912923D01*
X170191003Y-107887167D01*
X170184356Y-107860631D01*
X170180342Y-107833572D01*
X170179000Y-107806250D01*
X170179000Y-106823750D01*
X170180342Y-106796428D01*
X170184356Y-106769369D01*
X170191003Y-106742833D01*
X170200219Y-106717077D01*
X170211914Y-106692348D01*
X170225978Y-106668885D01*
X170242273Y-106646913D01*
X170260644Y-106626644D01*
X170280913Y-106608273D01*
X170302885Y-106591978D01*
X170326348Y-106577914D01*
X170351077Y-106566219D01*
X170376833Y-106557003D01*
X170403369Y-106550356D01*
X170430428Y-106546342D01*
X170457750Y-106545000D01*
X171015250Y-106545000D01*
X171042572Y-106546342D01*
G37*
G36*
X169167572Y-106546342D02*
G01*
X169194631Y-106550356D01*
X169221167Y-106557003D01*
X169246923Y-106566219D01*
X169271652Y-106577914D01*
X169295115Y-106591978D01*
X169317087Y-106608273D01*
X169337356Y-106626644D01*
X169355727Y-106646913D01*
X169372022Y-106668885D01*
X169386086Y-106692348D01*
X169397781Y-106717077D01*
X169406997Y-106742833D01*
X169413644Y-106769369D01*
X169417658Y-106796428D01*
X169419000Y-106823750D01*
X169419000Y-107806250D01*
X169417658Y-107833572D01*
X169413644Y-107860631D01*
X169406997Y-107887167D01*
X169397781Y-107912923D01*
X169386086Y-107937652D01*
X169372022Y-107961115D01*
X169355727Y-107983087D01*
X169337356Y-108003356D01*
X169317087Y-108021727D01*
X169295115Y-108038022D01*
X169271652Y-108052086D01*
X169246923Y-108063781D01*
X169221167Y-108072997D01*
X169194631Y-108079644D01*
X169167572Y-108083658D01*
X169140250Y-108085000D01*
X168582750Y-108085000D01*
X168555428Y-108083658D01*
X168528369Y-108079644D01*
X168501833Y-108072997D01*
X168476077Y-108063781D01*
X168451348Y-108052086D01*
X168427885Y-108038022D01*
X168405913Y-108021727D01*
X168385644Y-108003356D01*
X168367273Y-107983087D01*
X168350978Y-107961115D01*
X168336914Y-107937652D01*
X168325219Y-107912923D01*
X168316003Y-107887167D01*
X168309356Y-107860631D01*
X168305342Y-107833572D01*
X168304000Y-107806250D01*
X168304000Y-106823750D01*
X168305342Y-106796428D01*
X168309356Y-106769369D01*
X168316003Y-106742833D01*
X168325219Y-106717077D01*
X168336914Y-106692348D01*
X168350978Y-106668885D01*
X168367273Y-106646913D01*
X168385644Y-106626644D01*
X168405913Y-106608273D01*
X168427885Y-106591978D01*
X168451348Y-106577914D01*
X168476077Y-106566219D01*
X168501833Y-106557003D01*
X168528369Y-106550356D01*
X168555428Y-106546342D01*
X168582750Y-106545000D01*
X169140250Y-106545000D01*
X169167572Y-106546342D01*
G37*
D14*
X153638000Y-96520000D03*
X151638000Y-96520000D03*
X152638000Y-95520000D03*
D15*
X172085000Y-81280000D03*
X174625000Y-81280000D03*
X177165000Y-81280000D03*
X172085000Y-78486000D03*
X174625000Y-78486000D03*
X177165000Y-78486000D03*
X149860000Y-107696000D03*
X152400000Y-107696000D03*
X154940000Y-107696000D03*
X172085000Y-84074000D03*
X174625000Y-84074000D03*
X177165000Y-84074000D03*
M02*
