G04 #@! TF.GenerationSoftware,KiCad,Pcbnew,no-vcs-found-2a3a699~58~ubuntu16.04.1*
G04 #@! TF.CreationDate,2017-05-22T10:07:48+03:00*
G04 #@! TF.ProjectId,interferometer,696E7465726665726F6D657465722E6B,1*
G04 #@! TF.FileFunction,Copper,L2,Inr,Signal*
G04 #@! TF.FilePolarity,Positive*
%FSLAX46Y46*%
G04 Gerber Fmt 4.6, Leading zero omitted, Abs format (unit mm)*
G04 Created by KiCad (PCBNEW no-vcs-found-2a3a699~58~ubuntu16.04.1) date Mon May 22 10:07:48 2017*
%MOMM*%
%LPD*%
G01*
G04 APERTURE LIST*
%ADD10C,0.100000*%
%ADD11C,0.900000*%
%ADD12O,1.524000X1.524000*%
%ADD13C,1.524000*%
%ADD14O,1.524000X2.540000*%
%ADD15C,0.800000*%
%ADD16C,0.650000*%
%ADD17C,0.254000*%
G04 APERTURE END LIST*
D10*
D11*
X153638000Y-96520000D03*
X151638000Y-96520000D03*
X152638000Y-95520000D03*
D12*
X172085000Y-81280000D03*
X174625000Y-81280000D03*
X177165000Y-81280000D03*
X172085000Y-78486000D03*
X174625000Y-78486000D03*
X177165000Y-78486000D03*
X149860000Y-107696000D03*
X152400000Y-107696000D03*
X154940000Y-107696000D03*
X172085000Y-84074000D03*
X174625000Y-84074000D03*
X177165000Y-84074000D03*
D13*
X182206173Y-99230349D03*
X179666173Y-99230349D03*
X182206173Y-96690349D03*
X179666173Y-96690349D03*
X182206173Y-94150349D03*
X179666173Y-94150349D03*
D14*
X144106173Y-122090349D03*
X146646173Y-122090349D03*
X134962173Y-73830349D03*
X137502173Y-73830349D03*
X154266173Y-122090349D03*
X140042173Y-73830349D03*
X142582173Y-73830349D03*
X145122173Y-73830349D03*
X147662173Y-73830349D03*
X150202173Y-73830349D03*
X152742173Y-73830349D03*
X155282173Y-73830349D03*
X157822173Y-73830349D03*
X161886173Y-73830349D03*
X164426173Y-73830349D03*
X166966173Y-73830349D03*
X169506173Y-73830349D03*
X172046173Y-73830349D03*
X174586173Y-73830349D03*
X177126173Y-73830349D03*
X179666173Y-73830349D03*
X149186173Y-122090349D03*
X151726173Y-122090349D03*
X156806173Y-122090349D03*
X159346173Y-122090349D03*
X161886173Y-122090349D03*
X172046173Y-122090349D03*
X169506173Y-122090349D03*
X166966173Y-122090349D03*
X174586173Y-122090349D03*
X177126173Y-122090349D03*
X179666173Y-122090349D03*
D15*
X168402000Y-112649000D03*
X172212000Y-97917000D03*
X173990000Y-94742000D03*
X173101000Y-107315000D03*
X169926000Y-92456000D03*
X160782000Y-89357200D03*
X157607000Y-99822000D03*
X156591000Y-96901000D03*
X161417000Y-91186000D03*
X156794200Y-118897400D03*
X143510000Y-118440200D03*
X148082000Y-117094000D03*
X157353000Y-116967000D03*
X162560000Y-118999000D03*
X162179000Y-85090000D03*
X138557000Y-94488000D03*
X138684000Y-92329000D03*
X155067000Y-91186000D03*
X144780000Y-108712000D03*
X147243800Y-110236000D03*
X148717000Y-90170000D03*
X164973000Y-78740000D03*
X159258004Y-78740000D03*
X155447998Y-78867000D03*
X147955000Y-92329000D03*
X150495000Y-109855000D03*
X171831000Y-76200000D03*
X169545000Y-78613000D03*
X166497000Y-81153000D03*
X158242000Y-96774000D03*
X163322000Y-82296000D03*
X171577000Y-100457000D03*
X154813000Y-92964000D03*
X152781000Y-80264000D03*
X152781000Y-85979000D03*
X160781942Y-94664927D03*
X160655000Y-82423000D03*
X159758239Y-90431761D03*
X159892980Y-95123000D03*
X170727659Y-87590341D03*
X156083000Y-93599000D03*
X159111000Y-98552000D03*
X164338000Y-91313000D03*
X159512000Y-87630000D03*
X158115000Y-110109004D03*
X154813000Y-109855000D03*
X160274000Y-108839000D03*
X161381454Y-101565010D03*
X161417000Y-99695000D03*
X161671000Y-104140000D03*
X175895000Y-86233000D03*
X166750996Y-101854004D03*
X176149000Y-101346000D03*
X172338994Y-104013000D03*
X174625000Y-76708000D03*
X165533141Y-101674859D03*
X173990000Y-104902000D03*
D16*
X164591999Y-97917000D03*
X164592000Y-96418400D03*
X163093400Y-96418400D03*
X163118800Y-97917000D03*
X163850000Y-97167700D03*
D15*
X167385990Y-90170000D03*
X163982400Y-89916000D03*
X166751000Y-94615010D03*
X163374990Y-93842140D03*
X165277800Y-105003600D03*
X141478000Y-98679000D03*
X162560000Y-110490000D03*
X166995959Y-96907753D03*
X161036000Y-102616000D03*
X145415000Y-102870000D03*
D17*
G36*
X169418000Y-91186000D02*
X166243000Y-91186000D01*
X166194399Y-91195667D01*
X166153197Y-91223197D01*
X166125667Y-91264399D01*
X166116000Y-91313000D01*
X166116000Y-93726000D01*
X166125667Y-93774601D01*
X166153197Y-93815803D01*
X166194399Y-93843333D01*
X166243000Y-93853000D01*
X169418000Y-93853000D01*
X169418000Y-104775000D01*
X169418004Y-104775989D01*
X169537822Y-120154323D01*
X169506173Y-120148028D01*
X168971564Y-120254368D01*
X168518345Y-120557200D01*
X168236173Y-120979499D01*
X167954001Y-120557200D01*
X167500782Y-120254368D01*
X166966173Y-120148028D01*
X166431564Y-120254368D01*
X165978345Y-120557200D01*
X165675513Y-121010419D01*
X165569173Y-121545028D01*
X165569173Y-122635670D01*
X165675513Y-123170279D01*
X165978345Y-123623498D01*
X166357737Y-123877000D01*
X165481000Y-123877000D01*
X165481000Y-114554000D01*
X165471333Y-114505399D01*
X165443803Y-114464197D01*
X165402601Y-114436667D01*
X165354000Y-114427000D01*
X164085246Y-114427000D01*
X157607000Y-114302418D01*
X157607000Y-112853971D01*
X167366821Y-112853971D01*
X167524058Y-113234515D01*
X167814954Y-113525919D01*
X168195223Y-113683820D01*
X168606971Y-113684179D01*
X168987515Y-113526942D01*
X169278919Y-113236046D01*
X169436820Y-112855777D01*
X169437179Y-112444029D01*
X169279942Y-112063485D01*
X168989046Y-111772081D01*
X168608777Y-111614180D01*
X168197029Y-111613821D01*
X167816485Y-111771058D01*
X167525081Y-112061954D01*
X167367180Y-112442223D01*
X167366821Y-112853971D01*
X157607000Y-112853971D01*
X157607000Y-111125000D01*
X157597333Y-111076399D01*
X157569803Y-111035197D01*
X157528601Y-111007667D01*
X157480000Y-110998000D01*
X147945459Y-110998000D01*
X148120719Y-110823046D01*
X148278620Y-110442777D01*
X148278979Y-110031029D01*
X148121742Y-109650485D01*
X147830846Y-109359081D01*
X147450577Y-109201180D01*
X147038829Y-109200821D01*
X146658285Y-109358058D01*
X146366881Y-109648954D01*
X146208980Y-110029223D01*
X146208621Y-110440971D01*
X146365858Y-110821515D01*
X146542035Y-110998000D01*
X139827000Y-110998000D01*
X139827000Y-108916971D01*
X143744821Y-108916971D01*
X143902058Y-109297515D01*
X144192954Y-109588919D01*
X144573223Y-109746820D01*
X144984971Y-109747179D01*
X145365515Y-109589942D01*
X145656919Y-109299046D01*
X145814820Y-108918777D01*
X145815179Y-108507029D01*
X145657942Y-108126485D01*
X145367046Y-107835081D01*
X144986777Y-107677180D01*
X144575029Y-107676821D01*
X144194485Y-107834058D01*
X143903081Y-108124954D01*
X143745180Y-108505223D01*
X143744821Y-108916971D01*
X139827000Y-108916971D01*
X139827000Y-107668631D01*
X148463000Y-107668631D01*
X148463000Y-107723369D01*
X148569340Y-108257978D01*
X148872172Y-108711197D01*
X149325391Y-109014029D01*
X149781555Y-109104765D01*
X149618081Y-109267954D01*
X149460180Y-109648223D01*
X149459821Y-110059971D01*
X149617058Y-110440515D01*
X149907954Y-110731919D01*
X150288223Y-110889820D01*
X150699971Y-110890179D01*
X151080515Y-110732942D01*
X151371919Y-110442046D01*
X151529820Y-110061777D01*
X151530179Y-109650029D01*
X151372942Y-109269485D01*
X151082046Y-108978081D01*
X150701777Y-108820180D01*
X150684746Y-108820165D01*
X150847828Y-108711197D01*
X151130000Y-108288898D01*
X151412172Y-108711197D01*
X151865391Y-109014029D01*
X152400000Y-109120369D01*
X152934609Y-109014029D01*
X153387828Y-108711197D01*
X153670000Y-108288898D01*
X153952172Y-108711197D01*
X154303224Y-108945763D01*
X154227485Y-108977058D01*
X153936081Y-109267954D01*
X153778180Y-109648223D01*
X153777821Y-110059971D01*
X153935058Y-110440515D01*
X154225954Y-110731919D01*
X154606223Y-110889820D01*
X155017971Y-110890179D01*
X155398515Y-110732942D01*
X155689919Y-110442046D01*
X155743098Y-110313975D01*
X157079821Y-110313975D01*
X157237058Y-110694519D01*
X157527954Y-110985923D01*
X157908223Y-111143824D01*
X158319971Y-111144183D01*
X158700515Y-110986946D01*
X158991919Y-110696050D01*
X159149820Y-110315781D01*
X159150179Y-109904033D01*
X158992942Y-109523489D01*
X158702046Y-109232085D01*
X158321777Y-109074184D01*
X157910029Y-109073825D01*
X157529485Y-109231062D01*
X157238081Y-109521958D01*
X157080180Y-109902227D01*
X157079821Y-110313975D01*
X155743098Y-110313975D01*
X155847820Y-110061777D01*
X155848179Y-109650029D01*
X155690942Y-109269485D01*
X155465822Y-109043971D01*
X159238821Y-109043971D01*
X159396058Y-109424515D01*
X159686954Y-109715919D01*
X160067223Y-109873820D01*
X160478971Y-109874179D01*
X160859515Y-109716942D01*
X161150919Y-109426046D01*
X161308820Y-109045777D01*
X161309179Y-108634029D01*
X161151942Y-108253485D01*
X160861046Y-107962081D01*
X160480777Y-107804180D01*
X160069029Y-107803821D01*
X159688485Y-107961058D01*
X159397081Y-108251954D01*
X159239180Y-108632223D01*
X159238821Y-109043971D01*
X155465822Y-109043971D01*
X155442339Y-109020448D01*
X155474609Y-109014029D01*
X155927828Y-108711197D01*
X156230660Y-108257978D01*
X156337000Y-107723369D01*
X156337000Y-107668631D01*
X156230660Y-107134022D01*
X155927828Y-106680803D01*
X155474609Y-106377971D01*
X154940000Y-106271631D01*
X154405391Y-106377971D01*
X153952172Y-106680803D01*
X153670000Y-107103102D01*
X153387828Y-106680803D01*
X152934609Y-106377971D01*
X152400000Y-106271631D01*
X151865391Y-106377971D01*
X151412172Y-106680803D01*
X151130000Y-107103102D01*
X150847828Y-106680803D01*
X150394609Y-106377971D01*
X149860000Y-106271631D01*
X149325391Y-106377971D01*
X148872172Y-106680803D01*
X148569340Y-107134022D01*
X148463000Y-107668631D01*
X139827000Y-107668631D01*
X139827000Y-97917000D01*
X143510000Y-97917000D01*
X143510000Y-103759000D01*
X143519667Y-103807601D01*
X143547197Y-103848803D01*
X143588399Y-103876333D01*
X143637000Y-103886000D01*
X145162899Y-103886000D01*
X145208223Y-103904820D01*
X145619971Y-103905179D01*
X145666388Y-103886000D01*
X152654000Y-103886000D01*
X152702601Y-103876333D01*
X152743803Y-103848803D01*
X152771333Y-103807601D01*
X152781000Y-103759000D01*
X152781000Y-101092000D01*
X160457183Y-101092000D01*
X160346634Y-101358233D01*
X160346275Y-101769981D01*
X160367368Y-101821030D01*
X160159081Y-102028954D01*
X160001180Y-102409223D01*
X160000821Y-102820971D01*
X160158058Y-103201515D01*
X160448954Y-103492919D01*
X160764588Y-103623981D01*
X160636180Y-103933223D01*
X160635821Y-104344971D01*
X160793058Y-104725515D01*
X161083954Y-105016919D01*
X161464223Y-105174820D01*
X161875971Y-105175179D01*
X162256515Y-105017942D01*
X162547919Y-104727046D01*
X162705820Y-104346777D01*
X162706179Y-103935029D01*
X162548942Y-103554485D01*
X162258046Y-103263081D01*
X161942412Y-103132019D01*
X162070820Y-102822777D01*
X162071179Y-102411029D01*
X162050086Y-102359980D01*
X162258373Y-102152056D01*
X162416274Y-101771787D01*
X162416633Y-101360039D01*
X162305882Y-101092000D01*
X164654483Y-101092000D01*
X164498321Y-101468082D01*
X164497962Y-101879830D01*
X164655199Y-102260374D01*
X164946095Y-102551778D01*
X165326364Y-102709679D01*
X165738112Y-102710038D01*
X166024836Y-102591566D01*
X166163950Y-102730923D01*
X166544219Y-102888824D01*
X166955967Y-102889183D01*
X167336511Y-102731946D01*
X167627915Y-102441050D01*
X167785816Y-102060781D01*
X167786175Y-101649033D01*
X167628938Y-101268489D01*
X167338042Y-100977085D01*
X166957773Y-100819184D01*
X166751000Y-100819004D01*
X166751000Y-98171000D01*
X166741333Y-98122399D01*
X166713803Y-98081197D01*
X166672601Y-98053667D01*
X166624000Y-98044000D01*
X165227000Y-98044000D01*
X165178399Y-98053667D01*
X165137197Y-98081197D01*
X165109667Y-98122399D01*
X165100000Y-98171000D01*
X165100000Y-98298000D01*
X162687000Y-98298000D01*
X162687000Y-97112724D01*
X165960780Y-97112724D01*
X166118017Y-97493268D01*
X166408913Y-97784672D01*
X166789182Y-97942573D01*
X167200930Y-97942932D01*
X167581474Y-97785695D01*
X167872878Y-97494799D01*
X168030779Y-97114530D01*
X168031138Y-96702782D01*
X167873901Y-96322238D01*
X167583005Y-96030834D01*
X167202736Y-95872933D01*
X166790988Y-95872574D01*
X166410444Y-96029811D01*
X166119040Y-96320707D01*
X165961139Y-96700976D01*
X165960780Y-97112724D01*
X162687000Y-97112724D01*
X162687000Y-91517971D01*
X163302821Y-91517971D01*
X163460058Y-91898515D01*
X163750954Y-92189919D01*
X164131223Y-92347820D01*
X164542971Y-92348179D01*
X164923515Y-92190942D01*
X165214919Y-91900046D01*
X165372820Y-91519777D01*
X165373179Y-91108029D01*
X165215942Y-90727485D01*
X164925046Y-90436081D01*
X164544777Y-90278180D01*
X164133029Y-90277821D01*
X163752485Y-90435058D01*
X163461081Y-90725954D01*
X163303180Y-91106223D01*
X163302821Y-91517971D01*
X162687000Y-91517971D01*
X162687000Y-89662000D01*
X169418000Y-89662000D01*
X169418000Y-91186000D01*
X169418000Y-91186000D01*
G37*
X169418000Y-91186000D02*
X166243000Y-91186000D01*
X166194399Y-91195667D01*
X166153197Y-91223197D01*
X166125667Y-91264399D01*
X166116000Y-91313000D01*
X166116000Y-93726000D01*
X166125667Y-93774601D01*
X166153197Y-93815803D01*
X166194399Y-93843333D01*
X166243000Y-93853000D01*
X169418000Y-93853000D01*
X169418000Y-104775000D01*
X169418004Y-104775989D01*
X169537822Y-120154323D01*
X169506173Y-120148028D01*
X168971564Y-120254368D01*
X168518345Y-120557200D01*
X168236173Y-120979499D01*
X167954001Y-120557200D01*
X167500782Y-120254368D01*
X166966173Y-120148028D01*
X166431564Y-120254368D01*
X165978345Y-120557200D01*
X165675513Y-121010419D01*
X165569173Y-121545028D01*
X165569173Y-122635670D01*
X165675513Y-123170279D01*
X165978345Y-123623498D01*
X166357737Y-123877000D01*
X165481000Y-123877000D01*
X165481000Y-114554000D01*
X165471333Y-114505399D01*
X165443803Y-114464197D01*
X165402601Y-114436667D01*
X165354000Y-114427000D01*
X164085246Y-114427000D01*
X157607000Y-114302418D01*
X157607000Y-112853971D01*
X167366821Y-112853971D01*
X167524058Y-113234515D01*
X167814954Y-113525919D01*
X168195223Y-113683820D01*
X168606971Y-113684179D01*
X168987515Y-113526942D01*
X169278919Y-113236046D01*
X169436820Y-112855777D01*
X169437179Y-112444029D01*
X169279942Y-112063485D01*
X168989046Y-111772081D01*
X168608777Y-111614180D01*
X168197029Y-111613821D01*
X167816485Y-111771058D01*
X167525081Y-112061954D01*
X167367180Y-112442223D01*
X167366821Y-112853971D01*
X157607000Y-112853971D01*
X157607000Y-111125000D01*
X157597333Y-111076399D01*
X157569803Y-111035197D01*
X157528601Y-111007667D01*
X157480000Y-110998000D01*
X147945459Y-110998000D01*
X148120719Y-110823046D01*
X148278620Y-110442777D01*
X148278979Y-110031029D01*
X148121742Y-109650485D01*
X147830846Y-109359081D01*
X147450577Y-109201180D01*
X147038829Y-109200821D01*
X146658285Y-109358058D01*
X146366881Y-109648954D01*
X146208980Y-110029223D01*
X146208621Y-110440971D01*
X146365858Y-110821515D01*
X146542035Y-110998000D01*
X139827000Y-110998000D01*
X139827000Y-108916971D01*
X143744821Y-108916971D01*
X143902058Y-109297515D01*
X144192954Y-109588919D01*
X144573223Y-109746820D01*
X144984971Y-109747179D01*
X145365515Y-109589942D01*
X145656919Y-109299046D01*
X145814820Y-108918777D01*
X145815179Y-108507029D01*
X145657942Y-108126485D01*
X145367046Y-107835081D01*
X144986777Y-107677180D01*
X144575029Y-107676821D01*
X144194485Y-107834058D01*
X143903081Y-108124954D01*
X143745180Y-108505223D01*
X143744821Y-108916971D01*
X139827000Y-108916971D01*
X139827000Y-107668631D01*
X148463000Y-107668631D01*
X148463000Y-107723369D01*
X148569340Y-108257978D01*
X148872172Y-108711197D01*
X149325391Y-109014029D01*
X149781555Y-109104765D01*
X149618081Y-109267954D01*
X149460180Y-109648223D01*
X149459821Y-110059971D01*
X149617058Y-110440515D01*
X149907954Y-110731919D01*
X150288223Y-110889820D01*
X150699971Y-110890179D01*
X151080515Y-110732942D01*
X151371919Y-110442046D01*
X151529820Y-110061777D01*
X151530179Y-109650029D01*
X151372942Y-109269485D01*
X151082046Y-108978081D01*
X150701777Y-108820180D01*
X150684746Y-108820165D01*
X150847828Y-108711197D01*
X151130000Y-108288898D01*
X151412172Y-108711197D01*
X151865391Y-109014029D01*
X152400000Y-109120369D01*
X152934609Y-109014029D01*
X153387828Y-108711197D01*
X153670000Y-108288898D01*
X153952172Y-108711197D01*
X154303224Y-108945763D01*
X154227485Y-108977058D01*
X153936081Y-109267954D01*
X153778180Y-109648223D01*
X153777821Y-110059971D01*
X153935058Y-110440515D01*
X154225954Y-110731919D01*
X154606223Y-110889820D01*
X155017971Y-110890179D01*
X155398515Y-110732942D01*
X155689919Y-110442046D01*
X155743098Y-110313975D01*
X157079821Y-110313975D01*
X157237058Y-110694519D01*
X157527954Y-110985923D01*
X157908223Y-111143824D01*
X158319971Y-111144183D01*
X158700515Y-110986946D01*
X158991919Y-110696050D01*
X159149820Y-110315781D01*
X159150179Y-109904033D01*
X158992942Y-109523489D01*
X158702046Y-109232085D01*
X158321777Y-109074184D01*
X157910029Y-109073825D01*
X157529485Y-109231062D01*
X157238081Y-109521958D01*
X157080180Y-109902227D01*
X157079821Y-110313975D01*
X155743098Y-110313975D01*
X155847820Y-110061777D01*
X155848179Y-109650029D01*
X155690942Y-109269485D01*
X155465822Y-109043971D01*
X159238821Y-109043971D01*
X159396058Y-109424515D01*
X159686954Y-109715919D01*
X160067223Y-109873820D01*
X160478971Y-109874179D01*
X160859515Y-109716942D01*
X161150919Y-109426046D01*
X161308820Y-109045777D01*
X161309179Y-108634029D01*
X161151942Y-108253485D01*
X160861046Y-107962081D01*
X160480777Y-107804180D01*
X160069029Y-107803821D01*
X159688485Y-107961058D01*
X159397081Y-108251954D01*
X159239180Y-108632223D01*
X159238821Y-109043971D01*
X155465822Y-109043971D01*
X155442339Y-109020448D01*
X155474609Y-109014029D01*
X155927828Y-108711197D01*
X156230660Y-108257978D01*
X156337000Y-107723369D01*
X156337000Y-107668631D01*
X156230660Y-107134022D01*
X155927828Y-106680803D01*
X155474609Y-106377971D01*
X154940000Y-106271631D01*
X154405391Y-106377971D01*
X153952172Y-106680803D01*
X153670000Y-107103102D01*
X153387828Y-106680803D01*
X152934609Y-106377971D01*
X152400000Y-106271631D01*
X151865391Y-106377971D01*
X151412172Y-106680803D01*
X151130000Y-107103102D01*
X150847828Y-106680803D01*
X150394609Y-106377971D01*
X149860000Y-106271631D01*
X149325391Y-106377971D01*
X148872172Y-106680803D01*
X148569340Y-107134022D01*
X148463000Y-107668631D01*
X139827000Y-107668631D01*
X139827000Y-97917000D01*
X143510000Y-97917000D01*
X143510000Y-103759000D01*
X143519667Y-103807601D01*
X143547197Y-103848803D01*
X143588399Y-103876333D01*
X143637000Y-103886000D01*
X145162899Y-103886000D01*
X145208223Y-103904820D01*
X145619971Y-103905179D01*
X145666388Y-103886000D01*
X152654000Y-103886000D01*
X152702601Y-103876333D01*
X152743803Y-103848803D01*
X152771333Y-103807601D01*
X152781000Y-103759000D01*
X152781000Y-101092000D01*
X160457183Y-101092000D01*
X160346634Y-101358233D01*
X160346275Y-101769981D01*
X160367368Y-101821030D01*
X160159081Y-102028954D01*
X160001180Y-102409223D01*
X160000821Y-102820971D01*
X160158058Y-103201515D01*
X160448954Y-103492919D01*
X160764588Y-103623981D01*
X160636180Y-103933223D01*
X160635821Y-104344971D01*
X160793058Y-104725515D01*
X161083954Y-105016919D01*
X161464223Y-105174820D01*
X161875971Y-105175179D01*
X162256515Y-105017942D01*
X162547919Y-104727046D01*
X162705820Y-104346777D01*
X162706179Y-103935029D01*
X162548942Y-103554485D01*
X162258046Y-103263081D01*
X161942412Y-103132019D01*
X162070820Y-102822777D01*
X162071179Y-102411029D01*
X162050086Y-102359980D01*
X162258373Y-102152056D01*
X162416274Y-101771787D01*
X162416633Y-101360039D01*
X162305882Y-101092000D01*
X164654483Y-101092000D01*
X164498321Y-101468082D01*
X164497962Y-101879830D01*
X164655199Y-102260374D01*
X164946095Y-102551778D01*
X165326364Y-102709679D01*
X165738112Y-102710038D01*
X166024836Y-102591566D01*
X166163950Y-102730923D01*
X166544219Y-102888824D01*
X166955967Y-102889183D01*
X167336511Y-102731946D01*
X167627915Y-102441050D01*
X167785816Y-102060781D01*
X167786175Y-101649033D01*
X167628938Y-101268489D01*
X167338042Y-100977085D01*
X166957773Y-100819184D01*
X166751000Y-100819004D01*
X166751000Y-98171000D01*
X166741333Y-98122399D01*
X166713803Y-98081197D01*
X166672601Y-98053667D01*
X166624000Y-98044000D01*
X165227000Y-98044000D01*
X165178399Y-98053667D01*
X165137197Y-98081197D01*
X165109667Y-98122399D01*
X165100000Y-98171000D01*
X165100000Y-98298000D01*
X162687000Y-98298000D01*
X162687000Y-97112724D01*
X165960780Y-97112724D01*
X166118017Y-97493268D01*
X166408913Y-97784672D01*
X166789182Y-97942573D01*
X167200930Y-97942932D01*
X167581474Y-97785695D01*
X167872878Y-97494799D01*
X168030779Y-97114530D01*
X168031138Y-96702782D01*
X167873901Y-96322238D01*
X167583005Y-96030834D01*
X167202736Y-95872933D01*
X166790988Y-95872574D01*
X166410444Y-96029811D01*
X166119040Y-96320707D01*
X165961139Y-96700976D01*
X165960780Y-97112724D01*
X162687000Y-97112724D01*
X162687000Y-91517971D01*
X163302821Y-91517971D01*
X163460058Y-91898515D01*
X163750954Y-92189919D01*
X164131223Y-92347820D01*
X164542971Y-92348179D01*
X164923515Y-92190942D01*
X165214919Y-91900046D01*
X165372820Y-91519777D01*
X165373179Y-91108029D01*
X165215942Y-90727485D01*
X164925046Y-90436081D01*
X164544777Y-90278180D01*
X164133029Y-90277821D01*
X163752485Y-90435058D01*
X163461081Y-90725954D01*
X163303180Y-91106223D01*
X163302821Y-91517971D01*
X162687000Y-91517971D01*
X162687000Y-89662000D01*
X169418000Y-89662000D01*
X169418000Y-91186000D01*
G36*
X129523128Y-72569760D02*
X129184060Y-73386327D01*
X129183288Y-74270492D01*
X129520931Y-75087649D01*
X130145584Y-75713394D01*
X130962151Y-76052462D01*
X131846316Y-76053234D01*
X132663473Y-75715591D01*
X133289218Y-75090938D01*
X133571991Y-74409945D01*
X133671513Y-74910279D01*
X133974345Y-75363498D01*
X134427564Y-75666330D01*
X134962173Y-75772670D01*
X135496782Y-75666330D01*
X135950001Y-75363498D01*
X136232173Y-74941199D01*
X136514345Y-75363498D01*
X136967564Y-75666330D01*
X137502173Y-75772670D01*
X138036782Y-75666330D01*
X138490001Y-75363498D01*
X138772173Y-74941199D01*
X139054345Y-75363498D01*
X139507564Y-75666330D01*
X140042173Y-75772670D01*
X140576782Y-75666330D01*
X141030001Y-75363498D01*
X141321503Y-74927236D01*
X141340114Y-74990290D01*
X141684147Y-75415979D01*
X142164896Y-75677609D01*
X142239103Y-75692569D01*
X142455173Y-75570069D01*
X142455173Y-73957349D01*
X142435173Y-73957349D01*
X142435173Y-73703349D01*
X142455173Y-73703349D01*
X142455173Y-73683349D01*
X142709173Y-73683349D01*
X142709173Y-73703349D01*
X142729173Y-73703349D01*
X142729173Y-73957349D01*
X142709173Y-73957349D01*
X142709173Y-75570069D01*
X142925243Y-75692569D01*
X142999450Y-75677609D01*
X143480199Y-75415979D01*
X143824232Y-74990290D01*
X143842843Y-74927236D01*
X144134345Y-75363498D01*
X144587564Y-75666330D01*
X145122173Y-75772670D01*
X145656782Y-75666330D01*
X146110001Y-75363498D01*
X146392173Y-74941199D01*
X146674345Y-75363498D01*
X147127564Y-75666330D01*
X147662173Y-75772670D01*
X148196782Y-75666330D01*
X148650001Y-75363498D01*
X148932173Y-74941199D01*
X149214345Y-75363498D01*
X149667564Y-75666330D01*
X150202173Y-75772670D01*
X150736782Y-75666330D01*
X151190001Y-75363498D01*
X151472173Y-74941199D01*
X151754345Y-75363498D01*
X152207564Y-75666330D01*
X152742173Y-75772670D01*
X153276782Y-75666330D01*
X153730001Y-75363498D01*
X154012173Y-74941199D01*
X154294345Y-75363498D01*
X154747564Y-75666330D01*
X155282173Y-75772670D01*
X155816782Y-75666330D01*
X156270001Y-75363498D01*
X156552173Y-74941199D01*
X156834345Y-75363498D01*
X157287564Y-75666330D01*
X157822173Y-75772670D01*
X158356782Y-75666330D01*
X158810001Y-75363498D01*
X159112833Y-74910279D01*
X159219173Y-74375670D01*
X159219173Y-73285028D01*
X159112833Y-72750419D01*
X158810001Y-72297200D01*
X158356782Y-71994368D01*
X158168920Y-71957000D01*
X161539426Y-71957000D01*
X161351564Y-71994368D01*
X160898345Y-72297200D01*
X160595513Y-72750419D01*
X160489173Y-73285028D01*
X160489173Y-74375670D01*
X160595513Y-74910279D01*
X160898345Y-75363498D01*
X161351564Y-75666330D01*
X161886173Y-75772670D01*
X162420782Y-75666330D01*
X162874001Y-75363498D01*
X163156173Y-74941199D01*
X163438345Y-75363498D01*
X163891564Y-75666330D01*
X164426173Y-75772670D01*
X164960782Y-75666330D01*
X165414001Y-75363498D01*
X165696173Y-74941199D01*
X165978345Y-75363498D01*
X166431564Y-75666330D01*
X166966173Y-75772670D01*
X167500782Y-75666330D01*
X167954001Y-75363498D01*
X168236173Y-74941199D01*
X168518345Y-75363498D01*
X168971564Y-75666330D01*
X169506173Y-75772670D01*
X170040782Y-75666330D01*
X170494001Y-75363498D01*
X170776173Y-74941199D01*
X171058345Y-75363498D01*
X171145581Y-75421788D01*
X170954081Y-75612954D01*
X170796180Y-75993223D01*
X170795821Y-76404971D01*
X170953058Y-76785515D01*
X171243954Y-77076919D01*
X171516986Y-77190291D01*
X171097172Y-77470803D01*
X170794340Y-77924022D01*
X170688000Y-78458631D01*
X170688000Y-78513369D01*
X170794340Y-79047978D01*
X171097172Y-79501197D01*
X171550391Y-79804029D01*
X171947406Y-79883000D01*
X171550391Y-79961971D01*
X171097172Y-80264803D01*
X170794340Y-80718022D01*
X170688000Y-81252631D01*
X170688000Y-81307369D01*
X170794340Y-81841978D01*
X171097172Y-82295197D01*
X171550391Y-82598029D01*
X171947406Y-82677000D01*
X171550391Y-82755971D01*
X171097172Y-83058803D01*
X170794340Y-83512022D01*
X170688000Y-84046631D01*
X170688000Y-84101369D01*
X170794340Y-84635978D01*
X171097172Y-85089197D01*
X171550391Y-85392029D01*
X172085000Y-85498369D01*
X172619609Y-85392029D01*
X173072828Y-85089197D01*
X173355000Y-84666898D01*
X173637172Y-85089197D01*
X174090391Y-85392029D01*
X174625000Y-85498369D01*
X175159609Y-85392029D01*
X175612828Y-85089197D01*
X175915287Y-84636536D01*
X176045142Y-84909199D01*
X176450003Y-85274174D01*
X176821930Y-85428220D01*
X177038000Y-85305720D01*
X177038000Y-84201000D01*
X177292000Y-84201000D01*
X177292000Y-85305720D01*
X177508070Y-85428220D01*
X177879997Y-85274174D01*
X178284858Y-84909199D01*
X178519231Y-84417072D01*
X178397476Y-84201000D01*
X177292000Y-84201000D01*
X177038000Y-84201000D01*
X177018000Y-84201000D01*
X177018000Y-83947000D01*
X177038000Y-83947000D01*
X177038000Y-82842280D01*
X177292000Y-82842280D01*
X177292000Y-83947000D01*
X178397476Y-83947000D01*
X178519231Y-83730928D01*
X178284858Y-83238801D01*
X177879997Y-82873826D01*
X177508070Y-82719780D01*
X177292000Y-82842280D01*
X177038000Y-82842280D01*
X176821930Y-82719780D01*
X176450003Y-82873826D01*
X176045142Y-83238801D01*
X175915287Y-83511464D01*
X175612828Y-83058803D01*
X175159609Y-82755971D01*
X174762594Y-82677000D01*
X175159609Y-82598029D01*
X175612828Y-82295197D01*
X175915287Y-81842536D01*
X176045142Y-82115199D01*
X176450003Y-82480174D01*
X176821930Y-82634220D01*
X177038000Y-82511720D01*
X177038000Y-81407000D01*
X177292000Y-81407000D01*
X177292000Y-82511720D01*
X177508070Y-82634220D01*
X177879997Y-82480174D01*
X178284858Y-82115199D01*
X178519231Y-81623072D01*
X178397476Y-81407000D01*
X177292000Y-81407000D01*
X177038000Y-81407000D01*
X177018000Y-81407000D01*
X177018000Y-81153000D01*
X177038000Y-81153000D01*
X177038000Y-80048280D01*
X177292000Y-80048280D01*
X177292000Y-81153000D01*
X178397476Y-81153000D01*
X178519231Y-80936928D01*
X178284858Y-80444801D01*
X177879997Y-80079826D01*
X177508070Y-79925780D01*
X177292000Y-80048280D01*
X177038000Y-80048280D01*
X176821930Y-79925780D01*
X176450003Y-80079826D01*
X176045142Y-80444801D01*
X175915287Y-80717464D01*
X175612828Y-80264803D01*
X175159609Y-79961971D01*
X174762594Y-79883000D01*
X175159609Y-79804029D01*
X175612828Y-79501197D01*
X175915287Y-79048536D01*
X176045142Y-79321199D01*
X176450003Y-79686174D01*
X176821930Y-79840220D01*
X177038000Y-79717720D01*
X177038000Y-78613000D01*
X177292000Y-78613000D01*
X177292000Y-79717720D01*
X177508070Y-79840220D01*
X177879997Y-79686174D01*
X178284858Y-79321199D01*
X178519231Y-78829072D01*
X178397476Y-78613000D01*
X177292000Y-78613000D01*
X177038000Y-78613000D01*
X177018000Y-78613000D01*
X177018000Y-78359000D01*
X177038000Y-78359000D01*
X177038000Y-77254280D01*
X177292000Y-77254280D01*
X177292000Y-78359000D01*
X178397476Y-78359000D01*
X178519231Y-78142928D01*
X178284858Y-77650801D01*
X177879997Y-77285826D01*
X177508070Y-77131780D01*
X177292000Y-77254280D01*
X177038000Y-77254280D01*
X176821930Y-77131780D01*
X176450003Y-77285826D01*
X176045142Y-77650801D01*
X175915287Y-77923464D01*
X175612828Y-77470803D01*
X175440921Y-77355938D01*
X175501919Y-77295046D01*
X175659820Y-76914777D01*
X175660179Y-76503029D01*
X175502942Y-76122485D01*
X175212046Y-75831081D01*
X174914227Y-75707416D01*
X175120782Y-75666330D01*
X175574001Y-75363498D01*
X175856173Y-74941199D01*
X176138345Y-75363498D01*
X176591564Y-75666330D01*
X177126173Y-75772670D01*
X177660782Y-75666330D01*
X178114001Y-75363498D01*
X178396173Y-74941199D01*
X178678345Y-75363498D01*
X179131564Y-75666330D01*
X179666173Y-75772670D01*
X180200782Y-75666330D01*
X180654001Y-75363498D01*
X180956833Y-74910279D01*
X181063173Y-74375670D01*
X181063173Y-73285028D01*
X180956833Y-72750419D01*
X180654001Y-72297200D01*
X180200782Y-71994368D01*
X180012920Y-71957000D01*
X180553908Y-71957000D01*
X181535000Y-72938092D01*
X181535000Y-84074000D01*
X181589046Y-84345705D01*
X181742954Y-84576046D01*
X184075000Y-86908091D01*
X184075000Y-87796605D01*
X183466762Y-87187304D01*
X182650195Y-86848236D01*
X181766030Y-86847464D01*
X180948873Y-87185107D01*
X180323128Y-87809760D01*
X179984060Y-88626327D01*
X179983288Y-89510492D01*
X180320931Y-90327649D01*
X180945584Y-90953394D01*
X181762151Y-91292462D01*
X182646316Y-91293234D01*
X183463473Y-90955591D01*
X184075000Y-90345131D01*
X184075000Y-115736605D01*
X183466762Y-115127304D01*
X182650195Y-114788236D01*
X181766030Y-114787464D01*
X180948873Y-115125107D01*
X180323128Y-115749760D01*
X179984060Y-116566327D01*
X179983288Y-117450492D01*
X180320931Y-118267649D01*
X180945584Y-118893394D01*
X181762151Y-119232462D01*
X182646316Y-119233234D01*
X183463473Y-118895591D01*
X184075000Y-118285131D01*
X184075000Y-119212909D01*
X181742954Y-121544954D01*
X181589046Y-121775295D01*
X181535000Y-122047000D01*
X181535000Y-123877000D01*
X180274609Y-123877000D01*
X180654001Y-123623498D01*
X180956833Y-123170279D01*
X181063173Y-122635670D01*
X181063173Y-121545028D01*
X180956833Y-121010419D01*
X180654001Y-120557200D01*
X180200782Y-120254368D01*
X179666173Y-120148028D01*
X179131564Y-120254368D01*
X178678345Y-120557200D01*
X178396173Y-120979499D01*
X178114001Y-120557200D01*
X177660782Y-120254368D01*
X177126173Y-120148028D01*
X176591564Y-120254368D01*
X176138345Y-120557200D01*
X175856173Y-120979499D01*
X175574001Y-120557200D01*
X175120782Y-120254368D01*
X174586173Y-120148028D01*
X174051564Y-120254368D01*
X173598345Y-120557200D01*
X173316173Y-120979499D01*
X173034001Y-120557200D01*
X172580782Y-120254368D01*
X172046173Y-120148028D01*
X171511564Y-120254368D01*
X171058345Y-120557200D01*
X170776173Y-120979499D01*
X170494001Y-120557200D01*
X170301984Y-120428898D01*
X170180000Y-104772492D01*
X170180000Y-104217971D01*
X171303815Y-104217971D01*
X171461052Y-104598515D01*
X171751948Y-104889919D01*
X172132217Y-105047820D01*
X172543965Y-105048179D01*
X172924509Y-104890942D01*
X172955036Y-104860468D01*
X172954821Y-105106971D01*
X173112058Y-105487515D01*
X173402954Y-105778919D01*
X173783223Y-105936820D01*
X174194971Y-105937179D01*
X174575515Y-105779942D01*
X174866919Y-105489046D01*
X175024820Y-105108777D01*
X175025179Y-104697029D01*
X174867942Y-104316485D01*
X174577046Y-104025081D01*
X174196777Y-103867180D01*
X173785029Y-103866821D01*
X173404485Y-104024058D01*
X173373958Y-104054532D01*
X173374173Y-103808029D01*
X173216936Y-103427485D01*
X172926040Y-103136081D01*
X172545771Y-102978180D01*
X172134023Y-102977821D01*
X171753479Y-103135058D01*
X171462075Y-103425954D01*
X171304174Y-103806223D01*
X171303815Y-104217971D01*
X170180000Y-104217971D01*
X170180000Y-101550971D01*
X175113821Y-101550971D01*
X175271058Y-101931515D01*
X175561954Y-102222919D01*
X175942223Y-102380820D01*
X176353971Y-102381179D01*
X176734515Y-102223942D01*
X177025919Y-101933046D01*
X177183820Y-101552777D01*
X177184179Y-101141029D01*
X177026942Y-100760485D01*
X176736046Y-100469081D01*
X176355777Y-100311180D01*
X175944029Y-100310821D01*
X175563485Y-100468058D01*
X175272081Y-100758954D01*
X175114180Y-101139223D01*
X175113821Y-101550971D01*
X170180000Y-101550971D01*
X170180000Y-100661971D01*
X170541821Y-100661971D01*
X170699058Y-101042515D01*
X170989954Y-101333919D01*
X171370223Y-101491820D01*
X171781971Y-101492179D01*
X172162515Y-101334942D01*
X172453919Y-101044046D01*
X172611820Y-100663777D01*
X172612179Y-100252029D01*
X172454942Y-99871485D01*
X172164046Y-99580081D01*
X171783777Y-99422180D01*
X171372029Y-99421821D01*
X170991485Y-99579058D01*
X170700081Y-99869954D01*
X170542180Y-100250223D01*
X170541821Y-100661971D01*
X170180000Y-100661971D01*
X170180000Y-94427010D01*
X178268931Y-94427010D01*
X178481163Y-94940652D01*
X178873803Y-95333978D01*
X179081685Y-95420298D01*
X178875870Y-95505339D01*
X178482544Y-95897979D01*
X178269416Y-96411249D01*
X178268931Y-96967010D01*
X178481163Y-97480652D01*
X178873803Y-97873978D01*
X179081685Y-97960298D01*
X178875870Y-98045339D01*
X178482544Y-98437979D01*
X178269416Y-98951249D01*
X178268931Y-99507010D01*
X178481163Y-100020652D01*
X178873803Y-100413978D01*
X179387073Y-100627106D01*
X179942834Y-100627591D01*
X180456476Y-100415359D01*
X180849802Y-100022719D01*
X180936122Y-99814837D01*
X181021163Y-100020652D01*
X181413803Y-100413978D01*
X181927073Y-100627106D01*
X182482834Y-100627591D01*
X182996476Y-100415359D01*
X183389802Y-100022719D01*
X183602930Y-99509449D01*
X183603415Y-98953688D01*
X183391183Y-98440046D01*
X182998543Y-98046720D01*
X182790661Y-97960400D01*
X182996476Y-97875359D01*
X183389802Y-97482719D01*
X183602930Y-96969449D01*
X183603415Y-96413688D01*
X183391183Y-95900046D01*
X182998543Y-95506720D01*
X182790661Y-95420400D01*
X182996476Y-95335359D01*
X183389802Y-94942719D01*
X183602930Y-94429449D01*
X183603415Y-93873688D01*
X183391183Y-93360046D01*
X182998543Y-92966720D01*
X182485273Y-92753592D01*
X181929512Y-92753107D01*
X181415870Y-92965339D01*
X181022544Y-93357979D01*
X180936224Y-93565861D01*
X180851183Y-93360046D01*
X180458543Y-92966720D01*
X179945273Y-92753592D01*
X179389512Y-92753107D01*
X178875870Y-92965339D01*
X178482544Y-93357979D01*
X178269416Y-93871249D01*
X178268931Y-94427010D01*
X170180000Y-94427010D01*
X170180000Y-93726000D01*
X170131664Y-93482996D01*
X169994013Y-93276987D01*
X169788004Y-93139336D01*
X169545000Y-93091000D01*
X166878000Y-93091000D01*
X166878000Y-91948000D01*
X169545000Y-91948000D01*
X169788004Y-91899664D01*
X169994013Y-91762013D01*
X170131664Y-91556004D01*
X170180000Y-91313000D01*
X170180000Y-89535000D01*
X170131664Y-89291996D01*
X169994013Y-89085987D01*
X169788004Y-88948336D01*
X169545000Y-88900000D01*
X164234501Y-88900000D01*
X164189177Y-88881180D01*
X163777429Y-88880821D01*
X163731012Y-88900000D01*
X162560000Y-88900000D01*
X162316996Y-88948336D01*
X162110987Y-89085987D01*
X161973336Y-89291996D01*
X161925000Y-89535000D01*
X161925000Y-98425000D01*
X161973336Y-98668004D01*
X162110987Y-98874013D01*
X162316996Y-99011664D01*
X162560000Y-99060000D01*
X165227000Y-99060000D01*
X165470004Y-99011664D01*
X165676013Y-98874013D01*
X165721458Y-98806000D01*
X165989000Y-98806000D01*
X165989000Y-100330000D01*
X162245881Y-100330000D01*
X162293919Y-100282046D01*
X162451820Y-99901777D01*
X162452179Y-99490029D01*
X162294942Y-99109485D01*
X162004046Y-98818081D01*
X161623777Y-98660180D01*
X161212029Y-98659821D01*
X160831485Y-98817058D01*
X160540081Y-99107954D01*
X160382180Y-99488223D01*
X160381821Y-99899971D01*
X160539058Y-100280515D01*
X160588457Y-100330000D01*
X155702000Y-100330000D01*
X155702000Y-96978971D01*
X157206821Y-96978971D01*
X157364058Y-97359515D01*
X157654954Y-97650919D01*
X158035223Y-97808820D01*
X158390178Y-97809129D01*
X158234081Y-97964954D01*
X158076180Y-98345223D01*
X158075821Y-98756971D01*
X158233058Y-99137515D01*
X158523954Y-99428919D01*
X158904223Y-99586820D01*
X159315971Y-99587179D01*
X159696515Y-99429942D01*
X159987919Y-99139046D01*
X160145820Y-98758777D01*
X160146179Y-98347029D01*
X159988942Y-97966485D01*
X159698046Y-97675081D01*
X159317777Y-97517180D01*
X158962822Y-97516871D01*
X159118919Y-97361046D01*
X159276820Y-96980777D01*
X159277179Y-96569029D01*
X159119942Y-96188485D01*
X158829046Y-95897081D01*
X158448777Y-95739180D01*
X158037029Y-95738821D01*
X157656485Y-95896058D01*
X157365081Y-96186954D01*
X157207180Y-96567223D01*
X157206821Y-96978971D01*
X155702000Y-96978971D01*
X155702000Y-95327971D01*
X158857801Y-95327971D01*
X159015038Y-95708515D01*
X159305934Y-95999919D01*
X159686203Y-96157820D01*
X160097951Y-96158179D01*
X160478495Y-96000942D01*
X160769899Y-95710046D01*
X160774103Y-95699920D01*
X160986913Y-95700106D01*
X161367457Y-95542869D01*
X161658861Y-95251973D01*
X161816762Y-94871704D01*
X161817121Y-94459956D01*
X161659884Y-94079412D01*
X161368988Y-93788008D01*
X160988719Y-93630107D01*
X160576971Y-93629748D01*
X160196427Y-93786985D01*
X159905023Y-94077881D01*
X159900819Y-94088007D01*
X159688009Y-94087821D01*
X159307465Y-94245058D01*
X159016061Y-94535954D01*
X158858160Y-94916223D01*
X158857801Y-95327971D01*
X155702000Y-95327971D01*
X155702000Y-94561477D01*
X155876223Y-94633820D01*
X156287971Y-94634179D01*
X156668515Y-94476942D01*
X156959919Y-94186046D01*
X157117820Y-93805777D01*
X157118179Y-93394029D01*
X156960942Y-93013485D01*
X156670046Y-92722081D01*
X156289777Y-92564180D01*
X155878029Y-92563821D01*
X155783636Y-92602823D01*
X155690942Y-92378485D01*
X155400046Y-92087081D01*
X155019777Y-91929180D01*
X154608029Y-91928821D01*
X154227485Y-92086058D01*
X153936081Y-92376954D01*
X153778180Y-92757223D01*
X153777821Y-93168971D01*
X153798079Y-93218000D01*
X152908000Y-93218000D01*
X152908000Y-91313000D01*
X152898333Y-91264399D01*
X152870803Y-91223197D01*
X152829601Y-91195667D01*
X152781000Y-91186000D01*
X148968388Y-91186000D01*
X149302515Y-91047942D01*
X149593919Y-90757046D01*
X149643877Y-90636732D01*
X158723060Y-90636732D01*
X158880297Y-91017276D01*
X159171193Y-91308680D01*
X159551462Y-91466581D01*
X159963210Y-91466940D01*
X160343754Y-91309703D01*
X160635158Y-91018807D01*
X160793059Y-90638538D01*
X160793418Y-90226790D01*
X160636181Y-89846246D01*
X160345285Y-89554842D01*
X159965016Y-89396941D01*
X159553268Y-89396582D01*
X159172724Y-89553819D01*
X158881320Y-89844715D01*
X158723419Y-90224984D01*
X158723060Y-90636732D01*
X149643877Y-90636732D01*
X149751820Y-90376777D01*
X149752179Y-89965029D01*
X149594942Y-89584485D01*
X149304046Y-89293081D01*
X148923777Y-89135180D01*
X148512029Y-89134821D01*
X148131485Y-89292058D01*
X147840081Y-89582954D01*
X147682180Y-89963223D01*
X147681821Y-90374971D01*
X147839058Y-90755515D01*
X148129954Y-91046919D01*
X148464899Y-91186000D01*
X139446000Y-91186000D01*
X139397399Y-91195667D01*
X139356197Y-91223197D01*
X139328667Y-91264399D01*
X139319000Y-91313000D01*
X139319000Y-97295542D01*
X139250987Y-97340987D01*
X139113336Y-97546996D01*
X139065000Y-97790000D01*
X139065000Y-111125000D01*
X139113336Y-111368004D01*
X139250987Y-111574013D01*
X139456996Y-111711664D01*
X139700000Y-111760000D01*
X156845000Y-111760000D01*
X156845000Y-114427000D01*
X156888773Y-114658679D01*
X157022437Y-114867297D01*
X157225761Y-115008883D01*
X157467791Y-115061883D01*
X164071791Y-115188883D01*
X164084000Y-115189000D01*
X164719000Y-115189000D01*
X164719000Y-123877000D01*
X162494609Y-123877000D01*
X162874001Y-123623498D01*
X163176833Y-123170279D01*
X163283173Y-122635670D01*
X163283173Y-121545028D01*
X163176833Y-121010419D01*
X162874001Y-120557200D01*
X162420782Y-120254368D01*
X161886173Y-120148028D01*
X161351564Y-120254368D01*
X160898345Y-120557200D01*
X160606843Y-120993462D01*
X160588232Y-120930408D01*
X160244199Y-120504719D01*
X159763450Y-120243089D01*
X159689243Y-120228129D01*
X159473173Y-120350629D01*
X159473173Y-121963349D01*
X159493173Y-121963349D01*
X159493173Y-122217349D01*
X159473173Y-122217349D01*
X159473173Y-122237349D01*
X159219173Y-122237349D01*
X159219173Y-122217349D01*
X156933173Y-122217349D01*
X156933173Y-122237349D01*
X156679173Y-122237349D01*
X156679173Y-122217349D01*
X156659173Y-122217349D01*
X156659173Y-121963349D01*
X156679173Y-121963349D01*
X156679173Y-120350629D01*
X156933173Y-120350629D01*
X156933173Y-121963349D01*
X159219173Y-121963349D01*
X159219173Y-120350629D01*
X159003103Y-120228129D01*
X158928896Y-120243089D01*
X158448147Y-120504719D01*
X158104114Y-120930408D01*
X158076173Y-121025072D01*
X158048232Y-120930408D01*
X157704199Y-120504719D01*
X157223450Y-120243089D01*
X157149243Y-120228129D01*
X156933173Y-120350629D01*
X156679173Y-120350629D01*
X156463103Y-120228129D01*
X156388896Y-120243089D01*
X155908147Y-120504719D01*
X155564114Y-120930408D01*
X155545503Y-120993462D01*
X155254001Y-120557200D01*
X154800782Y-120254368D01*
X154266173Y-120148028D01*
X153731564Y-120254368D01*
X153278345Y-120557200D01*
X152996173Y-120979499D01*
X152714001Y-120557200D01*
X152260782Y-120254368D01*
X151726173Y-120148028D01*
X151191564Y-120254368D01*
X150738345Y-120557200D01*
X150456173Y-120979499D01*
X150174001Y-120557200D01*
X149720782Y-120254368D01*
X149186173Y-120148028D01*
X148651564Y-120254368D01*
X148198345Y-120557200D01*
X147916173Y-120979499D01*
X147634001Y-120557200D01*
X147180782Y-120254368D01*
X146646173Y-120148028D01*
X146111564Y-120254368D01*
X145658345Y-120557200D01*
X145376173Y-120979499D01*
X145094001Y-120557200D01*
X144640782Y-120254368D01*
X144106173Y-120148028D01*
X143571564Y-120254368D01*
X143118345Y-120557200D01*
X142815513Y-121010419D01*
X142709173Y-121545028D01*
X142709173Y-122635670D01*
X142815513Y-123170279D01*
X143118345Y-123623498D01*
X143497737Y-123877000D01*
X131492236Y-123877000D01*
X132019218Y-123350938D01*
X132358286Y-122534371D01*
X132359058Y-121650206D01*
X132021415Y-120833049D01*
X131396762Y-120207304D01*
X130580195Y-119868236D01*
X129696030Y-119867464D01*
X128878873Y-120205107D01*
X128599000Y-120484492D01*
X128599000Y-87834971D01*
X158476821Y-87834971D01*
X158634058Y-88215515D01*
X158924954Y-88506919D01*
X159305223Y-88664820D01*
X159716971Y-88665179D01*
X160097515Y-88507942D01*
X160388919Y-88217046D01*
X160546820Y-87836777D01*
X160546856Y-87795312D01*
X169692480Y-87795312D01*
X169849717Y-88175856D01*
X170140613Y-88467260D01*
X170520882Y-88625161D01*
X170932630Y-88625520D01*
X171313174Y-88468283D01*
X171604578Y-88177387D01*
X171762479Y-87797118D01*
X171762838Y-87385370D01*
X171605601Y-87004826D01*
X171314705Y-86713422D01*
X170934436Y-86555521D01*
X170522688Y-86555162D01*
X170142144Y-86712399D01*
X169850740Y-87003295D01*
X169692839Y-87383564D01*
X169692480Y-87795312D01*
X160546856Y-87795312D01*
X160547179Y-87425029D01*
X160389942Y-87044485D01*
X160099046Y-86753081D01*
X159718777Y-86595180D01*
X159307029Y-86594821D01*
X158926485Y-86752058D01*
X158635081Y-87042954D01*
X158477180Y-87423223D01*
X158476821Y-87834971D01*
X128599000Y-87834971D01*
X128599000Y-86183971D01*
X151745821Y-86183971D01*
X151903058Y-86564515D01*
X152193954Y-86855919D01*
X152574223Y-87013820D01*
X152985971Y-87014179D01*
X153366515Y-86856942D01*
X153657919Y-86566046D01*
X153711100Y-86437971D01*
X174859821Y-86437971D01*
X175017058Y-86818515D01*
X175307954Y-87109919D01*
X175688223Y-87267820D01*
X176099971Y-87268179D01*
X176480515Y-87110942D01*
X176771919Y-86820046D01*
X176929820Y-86439777D01*
X176930179Y-86028029D01*
X176772942Y-85647485D01*
X176482046Y-85356081D01*
X176101777Y-85198180D01*
X175690029Y-85197821D01*
X175309485Y-85355058D01*
X175018081Y-85645954D01*
X174860180Y-86026223D01*
X174859821Y-86437971D01*
X153711100Y-86437971D01*
X153815820Y-86185777D01*
X153816179Y-85774029D01*
X153658942Y-85393485D01*
X153368046Y-85102081D01*
X152987777Y-84944180D01*
X152576029Y-84943821D01*
X152195485Y-85101058D01*
X151904081Y-85391954D01*
X151746180Y-85772223D01*
X151745821Y-86183971D01*
X128599000Y-86183971D01*
X128599000Y-82627971D01*
X159619821Y-82627971D01*
X159777058Y-83008515D01*
X160067954Y-83299919D01*
X160448223Y-83457820D01*
X160859971Y-83458179D01*
X161240515Y-83300942D01*
X161531919Y-83010046D01*
X161689820Y-82629777D01*
X161689932Y-82500971D01*
X162286821Y-82500971D01*
X162444058Y-82881515D01*
X162734954Y-83172919D01*
X163115223Y-83330820D01*
X163526971Y-83331179D01*
X163907515Y-83173942D01*
X164198919Y-82883046D01*
X164356820Y-82502777D01*
X164357179Y-82091029D01*
X164199942Y-81710485D01*
X163909046Y-81419081D01*
X163761877Y-81357971D01*
X165461821Y-81357971D01*
X165619058Y-81738515D01*
X165909954Y-82029919D01*
X166290223Y-82187820D01*
X166701971Y-82188179D01*
X167082515Y-82030942D01*
X167373919Y-81740046D01*
X167531820Y-81359777D01*
X167532179Y-80948029D01*
X167374942Y-80567485D01*
X167084046Y-80276081D01*
X166703777Y-80118180D01*
X166292029Y-80117821D01*
X165911485Y-80275058D01*
X165620081Y-80565954D01*
X165462180Y-80946223D01*
X165461821Y-81357971D01*
X163761877Y-81357971D01*
X163528777Y-81261180D01*
X163117029Y-81260821D01*
X162736485Y-81418058D01*
X162445081Y-81708954D01*
X162287180Y-82089223D01*
X162286821Y-82500971D01*
X161689932Y-82500971D01*
X161690179Y-82218029D01*
X161532942Y-81837485D01*
X161242046Y-81546081D01*
X160861777Y-81388180D01*
X160450029Y-81387821D01*
X160069485Y-81545058D01*
X159778081Y-81835954D01*
X159620180Y-82216223D01*
X159619821Y-82627971D01*
X128599000Y-82627971D01*
X128599000Y-80468971D01*
X151745821Y-80468971D01*
X151903058Y-80849515D01*
X152193954Y-81140919D01*
X152574223Y-81298820D01*
X152985971Y-81299179D01*
X153366515Y-81141942D01*
X153657919Y-80851046D01*
X153815820Y-80470777D01*
X153816179Y-80059029D01*
X153658942Y-79678485D01*
X153368046Y-79387081D01*
X152987777Y-79229180D01*
X152576029Y-79228821D01*
X152195485Y-79386058D01*
X151904081Y-79676954D01*
X151746180Y-80057223D01*
X151745821Y-80468971D01*
X128599000Y-80468971D01*
X128599000Y-79071971D01*
X154412819Y-79071971D01*
X154570056Y-79452515D01*
X154860952Y-79743919D01*
X155241221Y-79901820D01*
X155652969Y-79902179D01*
X156033513Y-79744942D01*
X156324917Y-79454046D01*
X156482818Y-79073777D01*
X156482930Y-78944971D01*
X158222825Y-78944971D01*
X158380062Y-79325515D01*
X158670958Y-79616919D01*
X159051227Y-79774820D01*
X159462975Y-79775179D01*
X159843519Y-79617942D01*
X160134923Y-79327046D01*
X160292824Y-78946777D01*
X160292825Y-78944971D01*
X163937821Y-78944971D01*
X164095058Y-79325515D01*
X164385954Y-79616919D01*
X164766223Y-79774820D01*
X165177971Y-79775179D01*
X165558515Y-79617942D01*
X165849919Y-79327046D01*
X166007820Y-78946777D01*
X166007932Y-78817971D01*
X168509821Y-78817971D01*
X168667058Y-79198515D01*
X168957954Y-79489919D01*
X169338223Y-79647820D01*
X169749971Y-79648179D01*
X170130515Y-79490942D01*
X170421919Y-79200046D01*
X170579820Y-78819777D01*
X170580179Y-78408029D01*
X170422942Y-78027485D01*
X170132046Y-77736081D01*
X169751777Y-77578180D01*
X169340029Y-77577821D01*
X168959485Y-77735058D01*
X168668081Y-78025954D01*
X168510180Y-78406223D01*
X168509821Y-78817971D01*
X166007932Y-78817971D01*
X166008179Y-78535029D01*
X165850942Y-78154485D01*
X165560046Y-77863081D01*
X165179777Y-77705180D01*
X164768029Y-77704821D01*
X164387485Y-77862058D01*
X164096081Y-78152954D01*
X163938180Y-78533223D01*
X163937821Y-78944971D01*
X160292825Y-78944971D01*
X160293183Y-78535029D01*
X160135946Y-78154485D01*
X159845050Y-77863081D01*
X159464781Y-77705180D01*
X159053033Y-77704821D01*
X158672489Y-77862058D01*
X158381085Y-78152954D01*
X158223184Y-78533223D01*
X158222825Y-78944971D01*
X156482930Y-78944971D01*
X156483177Y-78662029D01*
X156325940Y-78281485D01*
X156035044Y-77990081D01*
X155654775Y-77832180D01*
X155243027Y-77831821D01*
X154862483Y-77989058D01*
X154571079Y-78279954D01*
X154413178Y-78660223D01*
X154412819Y-79071971D01*
X128599000Y-79071971D01*
X128599000Y-71957000D01*
X130136959Y-71957000D01*
X129523128Y-72569760D01*
X129523128Y-72569760D01*
G37*
X129523128Y-72569760D02*
X129184060Y-73386327D01*
X129183288Y-74270492D01*
X129520931Y-75087649D01*
X130145584Y-75713394D01*
X130962151Y-76052462D01*
X131846316Y-76053234D01*
X132663473Y-75715591D01*
X133289218Y-75090938D01*
X133571991Y-74409945D01*
X133671513Y-74910279D01*
X133974345Y-75363498D01*
X134427564Y-75666330D01*
X134962173Y-75772670D01*
X135496782Y-75666330D01*
X135950001Y-75363498D01*
X136232173Y-74941199D01*
X136514345Y-75363498D01*
X136967564Y-75666330D01*
X137502173Y-75772670D01*
X138036782Y-75666330D01*
X138490001Y-75363498D01*
X138772173Y-74941199D01*
X139054345Y-75363498D01*
X139507564Y-75666330D01*
X140042173Y-75772670D01*
X140576782Y-75666330D01*
X141030001Y-75363498D01*
X141321503Y-74927236D01*
X141340114Y-74990290D01*
X141684147Y-75415979D01*
X142164896Y-75677609D01*
X142239103Y-75692569D01*
X142455173Y-75570069D01*
X142455173Y-73957349D01*
X142435173Y-73957349D01*
X142435173Y-73703349D01*
X142455173Y-73703349D01*
X142455173Y-73683349D01*
X142709173Y-73683349D01*
X142709173Y-73703349D01*
X142729173Y-73703349D01*
X142729173Y-73957349D01*
X142709173Y-73957349D01*
X142709173Y-75570069D01*
X142925243Y-75692569D01*
X142999450Y-75677609D01*
X143480199Y-75415979D01*
X143824232Y-74990290D01*
X143842843Y-74927236D01*
X144134345Y-75363498D01*
X144587564Y-75666330D01*
X145122173Y-75772670D01*
X145656782Y-75666330D01*
X146110001Y-75363498D01*
X146392173Y-74941199D01*
X146674345Y-75363498D01*
X147127564Y-75666330D01*
X147662173Y-75772670D01*
X148196782Y-75666330D01*
X148650001Y-75363498D01*
X148932173Y-74941199D01*
X149214345Y-75363498D01*
X149667564Y-75666330D01*
X150202173Y-75772670D01*
X150736782Y-75666330D01*
X151190001Y-75363498D01*
X151472173Y-74941199D01*
X151754345Y-75363498D01*
X152207564Y-75666330D01*
X152742173Y-75772670D01*
X153276782Y-75666330D01*
X153730001Y-75363498D01*
X154012173Y-74941199D01*
X154294345Y-75363498D01*
X154747564Y-75666330D01*
X155282173Y-75772670D01*
X155816782Y-75666330D01*
X156270001Y-75363498D01*
X156552173Y-74941199D01*
X156834345Y-75363498D01*
X157287564Y-75666330D01*
X157822173Y-75772670D01*
X158356782Y-75666330D01*
X158810001Y-75363498D01*
X159112833Y-74910279D01*
X159219173Y-74375670D01*
X159219173Y-73285028D01*
X159112833Y-72750419D01*
X158810001Y-72297200D01*
X158356782Y-71994368D01*
X158168920Y-71957000D01*
X161539426Y-71957000D01*
X161351564Y-71994368D01*
X160898345Y-72297200D01*
X160595513Y-72750419D01*
X160489173Y-73285028D01*
X160489173Y-74375670D01*
X160595513Y-74910279D01*
X160898345Y-75363498D01*
X161351564Y-75666330D01*
X161886173Y-75772670D01*
X162420782Y-75666330D01*
X162874001Y-75363498D01*
X163156173Y-74941199D01*
X163438345Y-75363498D01*
X163891564Y-75666330D01*
X164426173Y-75772670D01*
X164960782Y-75666330D01*
X165414001Y-75363498D01*
X165696173Y-74941199D01*
X165978345Y-75363498D01*
X166431564Y-75666330D01*
X166966173Y-75772670D01*
X167500782Y-75666330D01*
X167954001Y-75363498D01*
X168236173Y-74941199D01*
X168518345Y-75363498D01*
X168971564Y-75666330D01*
X169506173Y-75772670D01*
X170040782Y-75666330D01*
X170494001Y-75363498D01*
X170776173Y-74941199D01*
X171058345Y-75363498D01*
X171145581Y-75421788D01*
X170954081Y-75612954D01*
X170796180Y-75993223D01*
X170795821Y-76404971D01*
X170953058Y-76785515D01*
X171243954Y-77076919D01*
X171516986Y-77190291D01*
X171097172Y-77470803D01*
X170794340Y-77924022D01*
X170688000Y-78458631D01*
X170688000Y-78513369D01*
X170794340Y-79047978D01*
X171097172Y-79501197D01*
X171550391Y-79804029D01*
X171947406Y-79883000D01*
X171550391Y-79961971D01*
X171097172Y-80264803D01*
X170794340Y-80718022D01*
X170688000Y-81252631D01*
X170688000Y-81307369D01*
X170794340Y-81841978D01*
X171097172Y-82295197D01*
X171550391Y-82598029D01*
X171947406Y-82677000D01*
X171550391Y-82755971D01*
X171097172Y-83058803D01*
X170794340Y-83512022D01*
X170688000Y-84046631D01*
X170688000Y-84101369D01*
X170794340Y-84635978D01*
X171097172Y-85089197D01*
X171550391Y-85392029D01*
X172085000Y-85498369D01*
X172619609Y-85392029D01*
X173072828Y-85089197D01*
X173355000Y-84666898D01*
X173637172Y-85089197D01*
X174090391Y-85392029D01*
X174625000Y-85498369D01*
X175159609Y-85392029D01*
X175612828Y-85089197D01*
X175915287Y-84636536D01*
X176045142Y-84909199D01*
X176450003Y-85274174D01*
X176821930Y-85428220D01*
X177038000Y-85305720D01*
X177038000Y-84201000D01*
X177292000Y-84201000D01*
X177292000Y-85305720D01*
X177508070Y-85428220D01*
X177879997Y-85274174D01*
X178284858Y-84909199D01*
X178519231Y-84417072D01*
X178397476Y-84201000D01*
X177292000Y-84201000D01*
X177038000Y-84201000D01*
X177018000Y-84201000D01*
X177018000Y-83947000D01*
X177038000Y-83947000D01*
X177038000Y-82842280D01*
X177292000Y-82842280D01*
X177292000Y-83947000D01*
X178397476Y-83947000D01*
X178519231Y-83730928D01*
X178284858Y-83238801D01*
X177879997Y-82873826D01*
X177508070Y-82719780D01*
X177292000Y-82842280D01*
X177038000Y-82842280D01*
X176821930Y-82719780D01*
X176450003Y-82873826D01*
X176045142Y-83238801D01*
X175915287Y-83511464D01*
X175612828Y-83058803D01*
X175159609Y-82755971D01*
X174762594Y-82677000D01*
X175159609Y-82598029D01*
X175612828Y-82295197D01*
X175915287Y-81842536D01*
X176045142Y-82115199D01*
X176450003Y-82480174D01*
X176821930Y-82634220D01*
X177038000Y-82511720D01*
X177038000Y-81407000D01*
X177292000Y-81407000D01*
X177292000Y-82511720D01*
X177508070Y-82634220D01*
X177879997Y-82480174D01*
X178284858Y-82115199D01*
X178519231Y-81623072D01*
X178397476Y-81407000D01*
X177292000Y-81407000D01*
X177038000Y-81407000D01*
X177018000Y-81407000D01*
X177018000Y-81153000D01*
X177038000Y-81153000D01*
X177038000Y-80048280D01*
X177292000Y-80048280D01*
X177292000Y-81153000D01*
X178397476Y-81153000D01*
X178519231Y-80936928D01*
X178284858Y-80444801D01*
X177879997Y-80079826D01*
X177508070Y-79925780D01*
X177292000Y-80048280D01*
X177038000Y-80048280D01*
X176821930Y-79925780D01*
X176450003Y-80079826D01*
X176045142Y-80444801D01*
X175915287Y-80717464D01*
X175612828Y-80264803D01*
X175159609Y-79961971D01*
X174762594Y-79883000D01*
X175159609Y-79804029D01*
X175612828Y-79501197D01*
X175915287Y-79048536D01*
X176045142Y-79321199D01*
X176450003Y-79686174D01*
X176821930Y-79840220D01*
X177038000Y-79717720D01*
X177038000Y-78613000D01*
X177292000Y-78613000D01*
X177292000Y-79717720D01*
X177508070Y-79840220D01*
X177879997Y-79686174D01*
X178284858Y-79321199D01*
X178519231Y-78829072D01*
X178397476Y-78613000D01*
X177292000Y-78613000D01*
X177038000Y-78613000D01*
X177018000Y-78613000D01*
X177018000Y-78359000D01*
X177038000Y-78359000D01*
X177038000Y-77254280D01*
X177292000Y-77254280D01*
X177292000Y-78359000D01*
X178397476Y-78359000D01*
X178519231Y-78142928D01*
X178284858Y-77650801D01*
X177879997Y-77285826D01*
X177508070Y-77131780D01*
X177292000Y-77254280D01*
X177038000Y-77254280D01*
X176821930Y-77131780D01*
X176450003Y-77285826D01*
X176045142Y-77650801D01*
X175915287Y-77923464D01*
X175612828Y-77470803D01*
X175440921Y-77355938D01*
X175501919Y-77295046D01*
X175659820Y-76914777D01*
X175660179Y-76503029D01*
X175502942Y-76122485D01*
X175212046Y-75831081D01*
X174914227Y-75707416D01*
X175120782Y-75666330D01*
X175574001Y-75363498D01*
X175856173Y-74941199D01*
X176138345Y-75363498D01*
X176591564Y-75666330D01*
X177126173Y-75772670D01*
X177660782Y-75666330D01*
X178114001Y-75363498D01*
X178396173Y-74941199D01*
X178678345Y-75363498D01*
X179131564Y-75666330D01*
X179666173Y-75772670D01*
X180200782Y-75666330D01*
X180654001Y-75363498D01*
X180956833Y-74910279D01*
X181063173Y-74375670D01*
X181063173Y-73285028D01*
X180956833Y-72750419D01*
X180654001Y-72297200D01*
X180200782Y-71994368D01*
X180012920Y-71957000D01*
X180553908Y-71957000D01*
X181535000Y-72938092D01*
X181535000Y-84074000D01*
X181589046Y-84345705D01*
X181742954Y-84576046D01*
X184075000Y-86908091D01*
X184075000Y-87796605D01*
X183466762Y-87187304D01*
X182650195Y-86848236D01*
X181766030Y-86847464D01*
X180948873Y-87185107D01*
X180323128Y-87809760D01*
X179984060Y-88626327D01*
X179983288Y-89510492D01*
X180320931Y-90327649D01*
X180945584Y-90953394D01*
X181762151Y-91292462D01*
X182646316Y-91293234D01*
X183463473Y-90955591D01*
X184075000Y-90345131D01*
X184075000Y-115736605D01*
X183466762Y-115127304D01*
X182650195Y-114788236D01*
X181766030Y-114787464D01*
X180948873Y-115125107D01*
X180323128Y-115749760D01*
X179984060Y-116566327D01*
X179983288Y-117450492D01*
X180320931Y-118267649D01*
X180945584Y-118893394D01*
X181762151Y-119232462D01*
X182646316Y-119233234D01*
X183463473Y-118895591D01*
X184075000Y-118285131D01*
X184075000Y-119212909D01*
X181742954Y-121544954D01*
X181589046Y-121775295D01*
X181535000Y-122047000D01*
X181535000Y-123877000D01*
X180274609Y-123877000D01*
X180654001Y-123623498D01*
X180956833Y-123170279D01*
X181063173Y-122635670D01*
X181063173Y-121545028D01*
X180956833Y-121010419D01*
X180654001Y-120557200D01*
X180200782Y-120254368D01*
X179666173Y-120148028D01*
X179131564Y-120254368D01*
X178678345Y-120557200D01*
X178396173Y-120979499D01*
X178114001Y-120557200D01*
X177660782Y-120254368D01*
X177126173Y-120148028D01*
X176591564Y-120254368D01*
X176138345Y-120557200D01*
X175856173Y-120979499D01*
X175574001Y-120557200D01*
X175120782Y-120254368D01*
X174586173Y-120148028D01*
X174051564Y-120254368D01*
X173598345Y-120557200D01*
X173316173Y-120979499D01*
X173034001Y-120557200D01*
X172580782Y-120254368D01*
X172046173Y-120148028D01*
X171511564Y-120254368D01*
X171058345Y-120557200D01*
X170776173Y-120979499D01*
X170494001Y-120557200D01*
X170301984Y-120428898D01*
X170180000Y-104772492D01*
X170180000Y-104217971D01*
X171303815Y-104217971D01*
X171461052Y-104598515D01*
X171751948Y-104889919D01*
X172132217Y-105047820D01*
X172543965Y-105048179D01*
X172924509Y-104890942D01*
X172955036Y-104860468D01*
X172954821Y-105106971D01*
X173112058Y-105487515D01*
X173402954Y-105778919D01*
X173783223Y-105936820D01*
X174194971Y-105937179D01*
X174575515Y-105779942D01*
X174866919Y-105489046D01*
X175024820Y-105108777D01*
X175025179Y-104697029D01*
X174867942Y-104316485D01*
X174577046Y-104025081D01*
X174196777Y-103867180D01*
X173785029Y-103866821D01*
X173404485Y-104024058D01*
X173373958Y-104054532D01*
X173374173Y-103808029D01*
X173216936Y-103427485D01*
X172926040Y-103136081D01*
X172545771Y-102978180D01*
X172134023Y-102977821D01*
X171753479Y-103135058D01*
X171462075Y-103425954D01*
X171304174Y-103806223D01*
X171303815Y-104217971D01*
X170180000Y-104217971D01*
X170180000Y-101550971D01*
X175113821Y-101550971D01*
X175271058Y-101931515D01*
X175561954Y-102222919D01*
X175942223Y-102380820D01*
X176353971Y-102381179D01*
X176734515Y-102223942D01*
X177025919Y-101933046D01*
X177183820Y-101552777D01*
X177184179Y-101141029D01*
X177026942Y-100760485D01*
X176736046Y-100469081D01*
X176355777Y-100311180D01*
X175944029Y-100310821D01*
X175563485Y-100468058D01*
X175272081Y-100758954D01*
X175114180Y-101139223D01*
X175113821Y-101550971D01*
X170180000Y-101550971D01*
X170180000Y-100661971D01*
X170541821Y-100661971D01*
X170699058Y-101042515D01*
X170989954Y-101333919D01*
X171370223Y-101491820D01*
X171781971Y-101492179D01*
X172162515Y-101334942D01*
X172453919Y-101044046D01*
X172611820Y-100663777D01*
X172612179Y-100252029D01*
X172454942Y-99871485D01*
X172164046Y-99580081D01*
X171783777Y-99422180D01*
X171372029Y-99421821D01*
X170991485Y-99579058D01*
X170700081Y-99869954D01*
X170542180Y-100250223D01*
X170541821Y-100661971D01*
X170180000Y-100661971D01*
X170180000Y-94427010D01*
X178268931Y-94427010D01*
X178481163Y-94940652D01*
X178873803Y-95333978D01*
X179081685Y-95420298D01*
X178875870Y-95505339D01*
X178482544Y-95897979D01*
X178269416Y-96411249D01*
X178268931Y-96967010D01*
X178481163Y-97480652D01*
X178873803Y-97873978D01*
X179081685Y-97960298D01*
X178875870Y-98045339D01*
X178482544Y-98437979D01*
X178269416Y-98951249D01*
X178268931Y-99507010D01*
X178481163Y-100020652D01*
X178873803Y-100413978D01*
X179387073Y-100627106D01*
X179942834Y-100627591D01*
X180456476Y-100415359D01*
X180849802Y-100022719D01*
X180936122Y-99814837D01*
X181021163Y-100020652D01*
X181413803Y-100413978D01*
X181927073Y-100627106D01*
X182482834Y-100627591D01*
X182996476Y-100415359D01*
X183389802Y-100022719D01*
X183602930Y-99509449D01*
X183603415Y-98953688D01*
X183391183Y-98440046D01*
X182998543Y-98046720D01*
X182790661Y-97960400D01*
X182996476Y-97875359D01*
X183389802Y-97482719D01*
X183602930Y-96969449D01*
X183603415Y-96413688D01*
X183391183Y-95900046D01*
X182998543Y-95506720D01*
X182790661Y-95420400D01*
X182996476Y-95335359D01*
X183389802Y-94942719D01*
X183602930Y-94429449D01*
X183603415Y-93873688D01*
X183391183Y-93360046D01*
X182998543Y-92966720D01*
X182485273Y-92753592D01*
X181929512Y-92753107D01*
X181415870Y-92965339D01*
X181022544Y-93357979D01*
X180936224Y-93565861D01*
X180851183Y-93360046D01*
X180458543Y-92966720D01*
X179945273Y-92753592D01*
X179389512Y-92753107D01*
X178875870Y-92965339D01*
X178482544Y-93357979D01*
X178269416Y-93871249D01*
X178268931Y-94427010D01*
X170180000Y-94427010D01*
X170180000Y-93726000D01*
X170131664Y-93482996D01*
X169994013Y-93276987D01*
X169788004Y-93139336D01*
X169545000Y-93091000D01*
X166878000Y-93091000D01*
X166878000Y-91948000D01*
X169545000Y-91948000D01*
X169788004Y-91899664D01*
X169994013Y-91762013D01*
X170131664Y-91556004D01*
X170180000Y-91313000D01*
X170180000Y-89535000D01*
X170131664Y-89291996D01*
X169994013Y-89085987D01*
X169788004Y-88948336D01*
X169545000Y-88900000D01*
X164234501Y-88900000D01*
X164189177Y-88881180D01*
X163777429Y-88880821D01*
X163731012Y-88900000D01*
X162560000Y-88900000D01*
X162316996Y-88948336D01*
X162110987Y-89085987D01*
X161973336Y-89291996D01*
X161925000Y-89535000D01*
X161925000Y-98425000D01*
X161973336Y-98668004D01*
X162110987Y-98874013D01*
X162316996Y-99011664D01*
X162560000Y-99060000D01*
X165227000Y-99060000D01*
X165470004Y-99011664D01*
X165676013Y-98874013D01*
X165721458Y-98806000D01*
X165989000Y-98806000D01*
X165989000Y-100330000D01*
X162245881Y-100330000D01*
X162293919Y-100282046D01*
X162451820Y-99901777D01*
X162452179Y-99490029D01*
X162294942Y-99109485D01*
X162004046Y-98818081D01*
X161623777Y-98660180D01*
X161212029Y-98659821D01*
X160831485Y-98817058D01*
X160540081Y-99107954D01*
X160382180Y-99488223D01*
X160381821Y-99899971D01*
X160539058Y-100280515D01*
X160588457Y-100330000D01*
X155702000Y-100330000D01*
X155702000Y-96978971D01*
X157206821Y-96978971D01*
X157364058Y-97359515D01*
X157654954Y-97650919D01*
X158035223Y-97808820D01*
X158390178Y-97809129D01*
X158234081Y-97964954D01*
X158076180Y-98345223D01*
X158075821Y-98756971D01*
X158233058Y-99137515D01*
X158523954Y-99428919D01*
X158904223Y-99586820D01*
X159315971Y-99587179D01*
X159696515Y-99429942D01*
X159987919Y-99139046D01*
X160145820Y-98758777D01*
X160146179Y-98347029D01*
X159988942Y-97966485D01*
X159698046Y-97675081D01*
X159317777Y-97517180D01*
X158962822Y-97516871D01*
X159118919Y-97361046D01*
X159276820Y-96980777D01*
X159277179Y-96569029D01*
X159119942Y-96188485D01*
X158829046Y-95897081D01*
X158448777Y-95739180D01*
X158037029Y-95738821D01*
X157656485Y-95896058D01*
X157365081Y-96186954D01*
X157207180Y-96567223D01*
X157206821Y-96978971D01*
X155702000Y-96978971D01*
X155702000Y-95327971D01*
X158857801Y-95327971D01*
X159015038Y-95708515D01*
X159305934Y-95999919D01*
X159686203Y-96157820D01*
X160097951Y-96158179D01*
X160478495Y-96000942D01*
X160769899Y-95710046D01*
X160774103Y-95699920D01*
X160986913Y-95700106D01*
X161367457Y-95542869D01*
X161658861Y-95251973D01*
X161816762Y-94871704D01*
X161817121Y-94459956D01*
X161659884Y-94079412D01*
X161368988Y-93788008D01*
X160988719Y-93630107D01*
X160576971Y-93629748D01*
X160196427Y-93786985D01*
X159905023Y-94077881D01*
X159900819Y-94088007D01*
X159688009Y-94087821D01*
X159307465Y-94245058D01*
X159016061Y-94535954D01*
X158858160Y-94916223D01*
X158857801Y-95327971D01*
X155702000Y-95327971D01*
X155702000Y-94561477D01*
X155876223Y-94633820D01*
X156287971Y-94634179D01*
X156668515Y-94476942D01*
X156959919Y-94186046D01*
X157117820Y-93805777D01*
X157118179Y-93394029D01*
X156960942Y-93013485D01*
X156670046Y-92722081D01*
X156289777Y-92564180D01*
X155878029Y-92563821D01*
X155783636Y-92602823D01*
X155690942Y-92378485D01*
X155400046Y-92087081D01*
X155019777Y-91929180D01*
X154608029Y-91928821D01*
X154227485Y-92086058D01*
X153936081Y-92376954D01*
X153778180Y-92757223D01*
X153777821Y-93168971D01*
X153798079Y-93218000D01*
X152908000Y-93218000D01*
X152908000Y-91313000D01*
X152898333Y-91264399D01*
X152870803Y-91223197D01*
X152829601Y-91195667D01*
X152781000Y-91186000D01*
X148968388Y-91186000D01*
X149302515Y-91047942D01*
X149593919Y-90757046D01*
X149643877Y-90636732D01*
X158723060Y-90636732D01*
X158880297Y-91017276D01*
X159171193Y-91308680D01*
X159551462Y-91466581D01*
X159963210Y-91466940D01*
X160343754Y-91309703D01*
X160635158Y-91018807D01*
X160793059Y-90638538D01*
X160793418Y-90226790D01*
X160636181Y-89846246D01*
X160345285Y-89554842D01*
X159965016Y-89396941D01*
X159553268Y-89396582D01*
X159172724Y-89553819D01*
X158881320Y-89844715D01*
X158723419Y-90224984D01*
X158723060Y-90636732D01*
X149643877Y-90636732D01*
X149751820Y-90376777D01*
X149752179Y-89965029D01*
X149594942Y-89584485D01*
X149304046Y-89293081D01*
X148923777Y-89135180D01*
X148512029Y-89134821D01*
X148131485Y-89292058D01*
X147840081Y-89582954D01*
X147682180Y-89963223D01*
X147681821Y-90374971D01*
X147839058Y-90755515D01*
X148129954Y-91046919D01*
X148464899Y-91186000D01*
X139446000Y-91186000D01*
X139397399Y-91195667D01*
X139356197Y-91223197D01*
X139328667Y-91264399D01*
X139319000Y-91313000D01*
X139319000Y-97295542D01*
X139250987Y-97340987D01*
X139113336Y-97546996D01*
X139065000Y-97790000D01*
X139065000Y-111125000D01*
X139113336Y-111368004D01*
X139250987Y-111574013D01*
X139456996Y-111711664D01*
X139700000Y-111760000D01*
X156845000Y-111760000D01*
X156845000Y-114427000D01*
X156888773Y-114658679D01*
X157022437Y-114867297D01*
X157225761Y-115008883D01*
X157467791Y-115061883D01*
X164071791Y-115188883D01*
X164084000Y-115189000D01*
X164719000Y-115189000D01*
X164719000Y-123877000D01*
X162494609Y-123877000D01*
X162874001Y-123623498D01*
X163176833Y-123170279D01*
X163283173Y-122635670D01*
X163283173Y-121545028D01*
X163176833Y-121010419D01*
X162874001Y-120557200D01*
X162420782Y-120254368D01*
X161886173Y-120148028D01*
X161351564Y-120254368D01*
X160898345Y-120557200D01*
X160606843Y-120993462D01*
X160588232Y-120930408D01*
X160244199Y-120504719D01*
X159763450Y-120243089D01*
X159689243Y-120228129D01*
X159473173Y-120350629D01*
X159473173Y-121963349D01*
X159493173Y-121963349D01*
X159493173Y-122217349D01*
X159473173Y-122217349D01*
X159473173Y-122237349D01*
X159219173Y-122237349D01*
X159219173Y-122217349D01*
X156933173Y-122217349D01*
X156933173Y-122237349D01*
X156679173Y-122237349D01*
X156679173Y-122217349D01*
X156659173Y-122217349D01*
X156659173Y-121963349D01*
X156679173Y-121963349D01*
X156679173Y-120350629D01*
X156933173Y-120350629D01*
X156933173Y-121963349D01*
X159219173Y-121963349D01*
X159219173Y-120350629D01*
X159003103Y-120228129D01*
X158928896Y-120243089D01*
X158448147Y-120504719D01*
X158104114Y-120930408D01*
X158076173Y-121025072D01*
X158048232Y-120930408D01*
X157704199Y-120504719D01*
X157223450Y-120243089D01*
X157149243Y-120228129D01*
X156933173Y-120350629D01*
X156679173Y-120350629D01*
X156463103Y-120228129D01*
X156388896Y-120243089D01*
X155908147Y-120504719D01*
X155564114Y-120930408D01*
X155545503Y-120993462D01*
X155254001Y-120557200D01*
X154800782Y-120254368D01*
X154266173Y-120148028D01*
X153731564Y-120254368D01*
X153278345Y-120557200D01*
X152996173Y-120979499D01*
X152714001Y-120557200D01*
X152260782Y-120254368D01*
X151726173Y-120148028D01*
X151191564Y-120254368D01*
X150738345Y-120557200D01*
X150456173Y-120979499D01*
X150174001Y-120557200D01*
X149720782Y-120254368D01*
X149186173Y-120148028D01*
X148651564Y-120254368D01*
X148198345Y-120557200D01*
X147916173Y-120979499D01*
X147634001Y-120557200D01*
X147180782Y-120254368D01*
X146646173Y-120148028D01*
X146111564Y-120254368D01*
X145658345Y-120557200D01*
X145376173Y-120979499D01*
X145094001Y-120557200D01*
X144640782Y-120254368D01*
X144106173Y-120148028D01*
X143571564Y-120254368D01*
X143118345Y-120557200D01*
X142815513Y-121010419D01*
X142709173Y-121545028D01*
X142709173Y-122635670D01*
X142815513Y-123170279D01*
X143118345Y-123623498D01*
X143497737Y-123877000D01*
X131492236Y-123877000D01*
X132019218Y-123350938D01*
X132358286Y-122534371D01*
X132359058Y-121650206D01*
X132021415Y-120833049D01*
X131396762Y-120207304D01*
X130580195Y-119868236D01*
X129696030Y-119867464D01*
X128878873Y-120205107D01*
X128599000Y-120484492D01*
X128599000Y-87834971D01*
X158476821Y-87834971D01*
X158634058Y-88215515D01*
X158924954Y-88506919D01*
X159305223Y-88664820D01*
X159716971Y-88665179D01*
X160097515Y-88507942D01*
X160388919Y-88217046D01*
X160546820Y-87836777D01*
X160546856Y-87795312D01*
X169692480Y-87795312D01*
X169849717Y-88175856D01*
X170140613Y-88467260D01*
X170520882Y-88625161D01*
X170932630Y-88625520D01*
X171313174Y-88468283D01*
X171604578Y-88177387D01*
X171762479Y-87797118D01*
X171762838Y-87385370D01*
X171605601Y-87004826D01*
X171314705Y-86713422D01*
X170934436Y-86555521D01*
X170522688Y-86555162D01*
X170142144Y-86712399D01*
X169850740Y-87003295D01*
X169692839Y-87383564D01*
X169692480Y-87795312D01*
X160546856Y-87795312D01*
X160547179Y-87425029D01*
X160389942Y-87044485D01*
X160099046Y-86753081D01*
X159718777Y-86595180D01*
X159307029Y-86594821D01*
X158926485Y-86752058D01*
X158635081Y-87042954D01*
X158477180Y-87423223D01*
X158476821Y-87834971D01*
X128599000Y-87834971D01*
X128599000Y-86183971D01*
X151745821Y-86183971D01*
X151903058Y-86564515D01*
X152193954Y-86855919D01*
X152574223Y-87013820D01*
X152985971Y-87014179D01*
X153366515Y-86856942D01*
X153657919Y-86566046D01*
X153711100Y-86437971D01*
X174859821Y-86437971D01*
X175017058Y-86818515D01*
X175307954Y-87109919D01*
X175688223Y-87267820D01*
X176099971Y-87268179D01*
X176480515Y-87110942D01*
X176771919Y-86820046D01*
X176929820Y-86439777D01*
X176930179Y-86028029D01*
X176772942Y-85647485D01*
X176482046Y-85356081D01*
X176101777Y-85198180D01*
X175690029Y-85197821D01*
X175309485Y-85355058D01*
X175018081Y-85645954D01*
X174860180Y-86026223D01*
X174859821Y-86437971D01*
X153711100Y-86437971D01*
X153815820Y-86185777D01*
X153816179Y-85774029D01*
X153658942Y-85393485D01*
X153368046Y-85102081D01*
X152987777Y-84944180D01*
X152576029Y-84943821D01*
X152195485Y-85101058D01*
X151904081Y-85391954D01*
X151746180Y-85772223D01*
X151745821Y-86183971D01*
X128599000Y-86183971D01*
X128599000Y-82627971D01*
X159619821Y-82627971D01*
X159777058Y-83008515D01*
X160067954Y-83299919D01*
X160448223Y-83457820D01*
X160859971Y-83458179D01*
X161240515Y-83300942D01*
X161531919Y-83010046D01*
X161689820Y-82629777D01*
X161689932Y-82500971D01*
X162286821Y-82500971D01*
X162444058Y-82881515D01*
X162734954Y-83172919D01*
X163115223Y-83330820D01*
X163526971Y-83331179D01*
X163907515Y-83173942D01*
X164198919Y-82883046D01*
X164356820Y-82502777D01*
X164357179Y-82091029D01*
X164199942Y-81710485D01*
X163909046Y-81419081D01*
X163761877Y-81357971D01*
X165461821Y-81357971D01*
X165619058Y-81738515D01*
X165909954Y-82029919D01*
X166290223Y-82187820D01*
X166701971Y-82188179D01*
X167082515Y-82030942D01*
X167373919Y-81740046D01*
X167531820Y-81359777D01*
X167532179Y-80948029D01*
X167374942Y-80567485D01*
X167084046Y-80276081D01*
X166703777Y-80118180D01*
X166292029Y-80117821D01*
X165911485Y-80275058D01*
X165620081Y-80565954D01*
X165462180Y-80946223D01*
X165461821Y-81357971D01*
X163761877Y-81357971D01*
X163528777Y-81261180D01*
X163117029Y-81260821D01*
X162736485Y-81418058D01*
X162445081Y-81708954D01*
X162287180Y-82089223D01*
X162286821Y-82500971D01*
X161689932Y-82500971D01*
X161690179Y-82218029D01*
X161532942Y-81837485D01*
X161242046Y-81546081D01*
X160861777Y-81388180D01*
X160450029Y-81387821D01*
X160069485Y-81545058D01*
X159778081Y-81835954D01*
X159620180Y-82216223D01*
X159619821Y-82627971D01*
X128599000Y-82627971D01*
X128599000Y-80468971D01*
X151745821Y-80468971D01*
X151903058Y-80849515D01*
X152193954Y-81140919D01*
X152574223Y-81298820D01*
X152985971Y-81299179D01*
X153366515Y-81141942D01*
X153657919Y-80851046D01*
X153815820Y-80470777D01*
X153816179Y-80059029D01*
X153658942Y-79678485D01*
X153368046Y-79387081D01*
X152987777Y-79229180D01*
X152576029Y-79228821D01*
X152195485Y-79386058D01*
X151904081Y-79676954D01*
X151746180Y-80057223D01*
X151745821Y-80468971D01*
X128599000Y-80468971D01*
X128599000Y-79071971D01*
X154412819Y-79071971D01*
X154570056Y-79452515D01*
X154860952Y-79743919D01*
X155241221Y-79901820D01*
X155652969Y-79902179D01*
X156033513Y-79744942D01*
X156324917Y-79454046D01*
X156482818Y-79073777D01*
X156482930Y-78944971D01*
X158222825Y-78944971D01*
X158380062Y-79325515D01*
X158670958Y-79616919D01*
X159051227Y-79774820D01*
X159462975Y-79775179D01*
X159843519Y-79617942D01*
X160134923Y-79327046D01*
X160292824Y-78946777D01*
X160292825Y-78944971D01*
X163937821Y-78944971D01*
X164095058Y-79325515D01*
X164385954Y-79616919D01*
X164766223Y-79774820D01*
X165177971Y-79775179D01*
X165558515Y-79617942D01*
X165849919Y-79327046D01*
X166007820Y-78946777D01*
X166007932Y-78817971D01*
X168509821Y-78817971D01*
X168667058Y-79198515D01*
X168957954Y-79489919D01*
X169338223Y-79647820D01*
X169749971Y-79648179D01*
X170130515Y-79490942D01*
X170421919Y-79200046D01*
X170579820Y-78819777D01*
X170580179Y-78408029D01*
X170422942Y-78027485D01*
X170132046Y-77736081D01*
X169751777Y-77578180D01*
X169340029Y-77577821D01*
X168959485Y-77735058D01*
X168668081Y-78025954D01*
X168510180Y-78406223D01*
X168509821Y-78817971D01*
X166007932Y-78817971D01*
X166008179Y-78535029D01*
X165850942Y-78154485D01*
X165560046Y-77863081D01*
X165179777Y-77705180D01*
X164768029Y-77704821D01*
X164387485Y-77862058D01*
X164096081Y-78152954D01*
X163938180Y-78533223D01*
X163937821Y-78944971D01*
X160292825Y-78944971D01*
X160293183Y-78535029D01*
X160135946Y-78154485D01*
X159845050Y-77863081D01*
X159464781Y-77705180D01*
X159053033Y-77704821D01*
X158672489Y-77862058D01*
X158381085Y-78152954D01*
X158223184Y-78533223D01*
X158222825Y-78944971D01*
X156482930Y-78944971D01*
X156483177Y-78662029D01*
X156325940Y-78281485D01*
X156035044Y-77990081D01*
X155654775Y-77832180D01*
X155243027Y-77831821D01*
X154862483Y-77989058D01*
X154571079Y-78279954D01*
X154413178Y-78660223D01*
X154412819Y-79071971D01*
X128599000Y-79071971D01*
X128599000Y-71957000D01*
X130136959Y-71957000D01*
X129523128Y-72569760D01*
M02*
