M48
; DRILL file {KiCad (5.1.5)-2} date 04/29/20 22:29:51
; FORMAT={-:-/ absolute / inch / decimal}
; #@! TF.CreationDate,2020-04-29T22:29:51+05:00
; #@! TF.GenerationSoftware,Kicad,Pcbnew,(5.1.5)-2
; #@! TF.FileFunction,Plated,1,2,PTH
FMAT,2
INCH
T1C0.0118
T2C0.0157
T3C0.0197
T4C0.0400
%
G90
G05
T1
X5.563Y-3.8819
X6.3268Y-4.1339
X6.4213Y-3.7992
X6.4213Y-3.8543
X6.4508Y-3.8255
X6.4803Y-3.7992
X6.4843Y-3.8543
T2
X5.455Y-3.72
X5.46Y-3.635
X5.725Y-4.05
X5.825Y-3.635
X5.8313Y-4.6087
X5.855Y-3.55
X6.105Y-3.59
X6.1457Y-4.0315
X6.1713Y-3.5925
X6.173Y-4.681
X6.1732Y-3.4134
X6.205Y-3.93
X6.2165Y-3.1339
X6.2642Y-3.88
X6.3031Y-3.7008
X6.3031Y-3.7638
X6.34Y-4.04
X6.3425Y-3.5709
X6.3536Y-3.9986
X6.355Y-3.925
X6.3622Y-3.7008
X6.365Y-4.1
X6.385Y-3.35
X6.3976Y-4.6299
X6.4Y-4.35
X6.424Y-3.05
X6.4321Y-3.6946
X6.4646Y-4.3465
X6.47Y-3.595
X6.495Y-3.1
X6.5171Y-4.0029
X6.565Y-4.01
X6.565Y-3.725
X6.5746Y-3.8153
X6.59Y-3.55
X6.5945Y-3.9331
X6.63Y-4.435
X6.6496Y-3.5945
X6.69Y-3.64
X6.78Y-3.855
X6.785Y-4.095
X6.815Y-4.225
X6.85Y-3.73
X6.85Y-4.13
X6.875Y-3.02
X6.925Y-3.395
X6.935Y-3.99
T3
X5.97Y-3.8
X6.0094Y-3.7606
X6.0487Y-3.8
T4
X6.775Y-3.09
X6.875Y-3.09
X6.975Y-3.09
X6.775Y-3.2
X6.875Y-3.2
X6.975Y-3.2
X5.3135Y-2.9067
X5.4135Y-2.9067
X5.5135Y-2.9067
X5.6135Y-2.9067
X5.6735Y-4.8067
X5.7135Y-2.9067
X5.7735Y-4.8067
X5.8135Y-2.9067
X5.8735Y-4.8067
X5.9135Y-2.9067
X5.9735Y-4.8067
X6.0135Y-2.9067
X6.0735Y-4.8067
X6.1135Y-2.9067
X6.1735Y-4.8067
X6.2135Y-2.9067
X6.2735Y-4.8067
X6.3735Y-2.9067
X6.3735Y-4.8067
X6.4735Y-2.9067
X6.5735Y-2.9067
X6.5735Y-4.8067
X6.6735Y-2.9067
X6.6735Y-4.8067
X6.7735Y-2.9067
X6.7735Y-4.8067
X6.8735Y-2.9067
X6.8735Y-4.8067
X6.9735Y-2.9067
X6.9735Y-4.8067
X7.0735Y-2.9067
X7.0735Y-3.7067
X7.0735Y-3.8067
X7.0735Y-3.9067
X7.0735Y-4.8067
X7.1735Y-3.7067
X7.1735Y-3.8067
X7.1735Y-3.9067
X6.775Y-3.31
X6.875Y-3.31
X6.975Y-3.31
X5.9Y-4.24
X6.0Y-4.24
X6.1Y-4.24
T0
M30
