G04 #@! TF.GenerationSoftware,KiCad,Pcbnew,no-vcs-found-2a3a699~58~ubuntu16.04.1*
G04 #@! TF.CreationDate,2017-05-22T10:07:49+03:00*
G04 #@! TF.ProjectId,interferometer,696E7465726665726F6D657465722E6B,1*
G04 #@! TF.FileFunction,Copper,L4,Bot,Signal*
G04 #@! TF.FilePolarity,Positive*
%FSLAX46Y46*%
G04 Gerber Fmt 4.6, Leading zero omitted, Abs format (unit mm)*
G04 Created by KiCad (PCBNEW no-vcs-found-2a3a699~58~ubuntu16.04.1) date Mon May 22 10:07:49 2017*
%MOMM*%
%LPD*%
G01*
G04 APERTURE LIST*
%ADD10C,0.100000*%
%ADD11R,1.500000X1.250000*%
%ADD12R,1.500000X1.300000*%
%ADD13C,0.900000*%
%ADD14O,1.524000X1.524000*%
%ADD15C,1.524000*%
%ADD16O,1.524000X2.540000*%
%ADD17C,0.800000*%
%ADD18C,0.650000*%
%ADD19C,0.508000*%
%ADD20C,0.250000*%
%ADD21C,0.381000*%
G04 APERTURE END LIST*
D10*
D11*
X162834000Y-107315000D03*
X165334000Y-107315000D03*
D12*
X171149000Y-107315000D03*
X168449000Y-107315000D03*
D13*
X153638000Y-96520000D03*
X151638000Y-96520000D03*
X152638000Y-95520000D03*
D11*
X156611000Y-98552000D03*
X159111000Y-98552000D03*
D14*
X172085000Y-81280000D03*
X174625000Y-81280000D03*
X177165000Y-81280000D03*
X172085000Y-78486000D03*
X174625000Y-78486000D03*
X177165000Y-78486000D03*
X149860000Y-107696000D03*
X152400000Y-107696000D03*
X154940000Y-107696000D03*
X172085000Y-84074000D03*
X174625000Y-84074000D03*
X177165000Y-84074000D03*
D15*
X182206173Y-99230349D03*
X179666173Y-99230349D03*
X182206173Y-96690349D03*
X179666173Y-96690349D03*
X182206173Y-94150349D03*
X179666173Y-94150349D03*
D16*
X144106173Y-122090349D03*
X146646173Y-122090349D03*
X134962173Y-73830349D03*
X137502173Y-73830349D03*
X154266173Y-122090349D03*
X140042173Y-73830349D03*
X142582173Y-73830349D03*
X145122173Y-73830349D03*
X147662173Y-73830349D03*
X150202173Y-73830349D03*
X152742173Y-73830349D03*
X155282173Y-73830349D03*
X157822173Y-73830349D03*
X161886173Y-73830349D03*
X164426173Y-73830349D03*
X166966173Y-73830349D03*
X169506173Y-73830349D03*
X172046173Y-73830349D03*
X174586173Y-73830349D03*
X177126173Y-73830349D03*
X179666173Y-73830349D03*
X149186173Y-122090349D03*
X151726173Y-122090349D03*
X156806173Y-122090349D03*
X159346173Y-122090349D03*
X161886173Y-122090349D03*
X172046173Y-122090349D03*
X169506173Y-122090349D03*
X166966173Y-122090349D03*
X174586173Y-122090349D03*
X177126173Y-122090349D03*
X179666173Y-122090349D03*
D17*
X168402000Y-112649000D03*
X172212000Y-97917000D03*
X173990000Y-94742000D03*
X173101000Y-107315000D03*
X169926000Y-92456000D03*
X160782000Y-89357200D03*
X157607000Y-99822000D03*
X156591000Y-96901000D03*
X161417000Y-91186000D03*
X156794200Y-118897400D03*
X143510000Y-118440200D03*
X148082000Y-117094000D03*
X157353000Y-116967000D03*
X162560000Y-118999000D03*
X162179000Y-85090000D03*
X138557000Y-94488000D03*
X138684000Y-92329000D03*
X155067000Y-91186000D03*
X144780000Y-108712000D03*
X147243800Y-110236000D03*
X148717000Y-90170000D03*
X164973000Y-78740000D03*
X159258004Y-78740000D03*
X155447998Y-78867000D03*
X147955000Y-92329000D03*
X150495000Y-109855000D03*
X171831000Y-76200000D03*
X169545000Y-78613000D03*
X166497000Y-81153000D03*
X158242000Y-96774000D03*
X163322000Y-82296000D03*
X171577000Y-100457000D03*
X154813000Y-92964000D03*
X152781000Y-80264000D03*
X152781000Y-85979000D03*
X160781942Y-94664927D03*
X160655000Y-82423000D03*
X159758239Y-90431761D03*
X159892980Y-95123000D03*
X170727659Y-87590341D03*
X156083000Y-93599000D03*
X159111000Y-98552000D03*
X164338000Y-91313000D03*
X159512000Y-87630000D03*
X158115000Y-110109004D03*
X154813000Y-109855000D03*
X160274000Y-108839000D03*
X161381454Y-101565010D03*
X161417000Y-99695000D03*
X161671000Y-104140000D03*
X175895000Y-86233000D03*
X166750996Y-101854004D03*
X176149000Y-101346000D03*
X172338994Y-104013000D03*
X174625000Y-76708000D03*
X165533141Y-101674859D03*
X173990000Y-104902000D03*
D18*
X164591999Y-97917000D03*
X164592000Y-96418400D03*
X163093400Y-96418400D03*
X163118800Y-97917000D03*
X163850000Y-97167700D03*
D17*
X167385990Y-90170000D03*
X163982400Y-89916000D03*
X166751000Y-94615010D03*
X163374990Y-93842140D03*
X165277800Y-105003600D03*
X141478000Y-98679000D03*
X162560000Y-110490000D03*
X166995959Y-96907753D03*
X161036000Y-102616000D03*
X145415000Y-102870000D03*
D19*
X168449000Y-107315000D02*
X165334000Y-107315000D01*
X167386000Y-112014000D02*
X167767000Y-112014000D01*
X167767000Y-112014000D02*
X168402000Y-112649000D01*
X166116000Y-112014000D02*
X167386000Y-112014000D01*
X165334000Y-111232000D02*
X166116000Y-112014000D01*
X165334000Y-107315000D02*
X165334000Y-111232000D01*
X168449000Y-107315000D02*
X168576000Y-107188000D01*
X171149000Y-107315000D02*
X173101000Y-107315000D01*
D20*
X157607000Y-99822000D02*
X156972000Y-99822000D01*
X156972000Y-99822000D02*
X156611000Y-99461000D01*
X156611000Y-99461000D02*
X156611000Y-98552000D01*
D19*
X156611000Y-98552000D02*
X156611000Y-96921000D01*
X156611000Y-96921000D02*
X156591000Y-96901000D01*
X157119000Y-98552000D02*
X157119000Y-97937000D01*
D20*
X170307000Y-76454000D02*
X171577000Y-76454000D01*
X171577000Y-76454000D02*
X171831000Y-76200000D01*
X169545000Y-77216000D02*
X170307000Y-76454000D01*
X169545000Y-78047315D02*
X169545000Y-77216000D01*
X169545000Y-78613000D02*
X169545000Y-78047315D01*
X159893000Y-81153000D02*
X166497000Y-81153000D01*
X158750000Y-82296000D02*
X159893000Y-81153000D01*
X158750000Y-91440000D02*
X158750000Y-82296000D01*
X158242000Y-91948000D02*
X158750000Y-91440000D01*
X158242000Y-92202000D02*
X158242000Y-91948000D01*
X158242000Y-96774000D02*
X158242000Y-92202000D01*
X170815000Y-99695000D02*
X170815000Y-88703002D01*
X171577000Y-100457000D02*
X170815000Y-99695000D01*
X170815000Y-88703002D02*
X164407998Y-82296000D01*
X164407998Y-82296000D02*
X163887685Y-82296000D01*
X163887685Y-82296000D02*
X163322000Y-82296000D01*
X157861000Y-89916000D02*
X157822173Y-89877173D01*
X157822173Y-89877173D02*
X157822173Y-73830349D01*
X154813000Y-92964000D02*
X157861000Y-89916000D01*
X152781000Y-85979000D02*
X152781000Y-80264000D01*
X160655000Y-82423000D02*
X160655000Y-88411198D01*
X160056999Y-89705201D02*
X160535599Y-90183801D01*
X160056999Y-89009199D02*
X160056999Y-89705201D01*
X160535599Y-93852899D02*
X160781942Y-94099242D01*
X160535599Y-90183801D02*
X160535599Y-93852899D01*
X160655000Y-88411198D02*
X160056999Y-89009199D01*
X160781942Y-94099242D02*
X160781942Y-94664927D01*
X159892980Y-90566502D02*
X159758239Y-90431761D01*
X159892980Y-95123000D02*
X159892980Y-90566502D01*
X159746000Y-98425000D02*
X159619000Y-98552000D01*
X161417000Y-101529464D02*
X161381454Y-101565010D01*
X161417000Y-99695000D02*
X161417000Y-101529464D01*
X175895000Y-86233000D02*
X173101000Y-89027000D01*
X175641000Y-102616000D02*
X175641000Y-105594004D01*
X173101000Y-89027000D02*
X173101000Y-100076000D01*
X173101000Y-100076000D02*
X175641000Y-102616000D01*
X175641000Y-105594004D02*
X175444004Y-105791000D01*
X175444004Y-105791000D02*
X162433000Y-105791000D01*
X162433000Y-105791000D02*
X161671000Y-105029000D01*
X161671000Y-105029000D02*
X161671000Y-104140000D01*
X172338994Y-104013000D02*
X168909992Y-104013000D01*
X168909992Y-104013000D02*
X166750996Y-101854004D01*
X176149000Y-100780315D02*
X176149000Y-101346000D01*
X179959000Y-86614000D02*
X176149000Y-90424000D01*
X179959000Y-77978000D02*
X179959000Y-86614000D01*
X178689000Y-76708000D02*
X179959000Y-77978000D01*
X174625000Y-76708000D02*
X178689000Y-76708000D01*
X176149000Y-90424000D02*
X176149000Y-100780315D01*
X173990000Y-104902000D02*
X168656000Y-104902000D01*
X168656000Y-104902000D02*
X165533141Y-101779141D01*
X165533141Y-101779141D02*
X165533141Y-101674859D01*
X164267000Y-97592001D02*
X164591999Y-97917000D01*
X163850000Y-97175001D02*
X164267000Y-97592001D01*
X163850000Y-97167700D02*
X163850000Y-97175001D01*
X163850000Y-97167700D02*
X163850000Y-97216548D01*
D21*
X161036000Y-102616000D02*
X162814000Y-102616000D01*
X166995959Y-98434041D02*
X166995959Y-96907753D01*
X162814000Y-102616000D02*
X166995959Y-98434041D01*
D19*
X161290000Y-107315000D02*
X162834000Y-107315000D01*
X159639000Y-105664000D02*
X161290000Y-107315000D01*
X147643315Y-105664000D02*
X159639000Y-105664000D01*
X145415000Y-102870000D02*
X145415000Y-103435685D01*
X145415000Y-103435685D02*
X147643315Y-105664000D01*
M02*
